<svg xmlns="http://www.w3.org/2000/svg" width="125.48" height="28.945" viewBox="0 0 125.48 28.945">
  <g id="Group_596" data-name="Group 596" transform="translate(-492.212 -429.081)">
    <g id="Group_593" data-name="Group 593" transform="translate(492.848 429.081)">
      <rect id="Rectangle_175" data-name="Rectangle 175" width="3.706" height="8.11" transform="translate(30.218 5.243)" fill="#fff"/>
      <path id="Path_117" data-name="Path 117" d="M511.565,431.045a3.746,3.746,0,0,0-3.35-1.962h-3.439a3.748,3.748,0,0,0-3.35,1.962L492.973,446.1a1.053,1.053,0,0,0,.919,1.569h2.474a1.042,1.042,0,0,0,.919-.537l7.385-13.155a1.192,1.192,0,0,1,1.078-.632h1.5a1.192,1.192,0,0,1,1.078.631l7.385,13.156a1.04,1.04,0,0,0,.919.537H519.1a1.054,1.054,0,0,0,.919-1.569Z" transform="translate(-492.837 -429.081)" fill="#fff"/>
      <path id="Path_118" data-name="Path 118" d="M544.142,434.031a4.949,4.949,0,0,0-4.941-4.95H523.593a1.059,1.059,0,0,0-1.053,1.063v3.208h15.972a1.369,1.369,0,0,1,1.369,1.369v.153a1.369,1.369,0,0,1-1.369,1.369H527.145v4.271h11.367a1.368,1.368,0,0,1,1.369,1.36v.163a1.37,1.37,0,0,1-1.369,1.369H522.54v3.208a1.059,1.059,0,0,0,1.053,1.063H539.2a4.949,4.949,0,0,0,4.941-4.95v-1.044a4.9,4.9,0,0,0-1.274-3.3,4.9,4.9,0,0,0,1.274-3.3Z" transform="translate(-492.322 -429.081)" fill="#fff"/>
      <path id="Path_119" data-name="Path 119" d="M562.765,436.244H552.231a1.367,1.367,0,0,1-1.365-1.365v-.162a1.37,1.37,0,0,1,1.365-1.365h13.933a1.06,1.06,0,0,0,1.059-1.059v-2.152a1.06,1.06,0,0,0-1.059-1.059H551.546a4.955,4.955,0,0,0-4.948,4.949v1.531a4.954,4.954,0,0,0,4.948,4.949h10.536a1.367,1.367,0,0,1,1.364,1.365v.162a1.367,1.367,0,0,1-1.364,1.365H548.147a1.058,1.058,0,0,0-1.058,1.058v2.153a1.058,1.058,0,0,0,1.058,1.058h14.618a4.954,4.954,0,0,0,4.949-4.948v-1.532A4.954,4.954,0,0,0,562.765,436.244Z" transform="translate(-491.905 -429.081)" fill="#fff"/>
      <path id="Path_120" data-name="Path 120" d="M589.728,429.083H575.11a4.955,4.955,0,0,0-4.948,4.949v8.691a4.954,4.954,0,0,0,4.948,4.949h14.618a1.059,1.059,0,0,0,1.059-1.058v-2.152a1.06,1.06,0,0,0-1.059-1.058H575.795a1.367,1.367,0,0,1-1.365-1.365v-7.323a1.367,1.367,0,0,1,1.365-1.365h13.933a1.06,1.06,0,0,0,1.059-1.058v-2.152A1.06,1.06,0,0,0,589.728,429.083Z" transform="translate(-491.497 -429.081)" fill="#fff"/>
      <path id="Path_121" data-name="Path 121" d="M610.993,429.083H598.18a4.955,4.955,0,0,0-4.948,4.949v8.691a4.954,4.954,0,0,0,4.948,4.949h12.812a4.954,4.954,0,0,0,4.948-4.949v-8.691A4.955,4.955,0,0,0,610.993,429.083Zm.681,12.957a1.367,1.367,0,0,1-1.365,1.365H598.865a1.367,1.367,0,0,1-1.365-1.365v-7.323a1.367,1.367,0,0,1,1.365-1.365h11.443a1.367,1.367,0,0,1,1.365,1.365Z" transform="translate(-491.097 -429.081)" fill="#fff"/>
      <path id="Path_122" data-name="Path 122" d="M508.568,440.015a1.563,1.563,0,0,0-1.4-.817h-1.607a1.567,1.567,0,0,0-1.4.817l-3.952,7.043a.3.3,0,0,0,.256.439h11.791a.288.288,0,0,0,.253-.146.281.281,0,0,0,0-.293Z" transform="translate(-492.709 -428.906)" fill="#fff"/>
    </g>
    <g id="Group_595" data-name="Group 595" transform="translate(492.212 452.5)">
      <g id="Group_594" data-name="Group 594">
        <path id="Path_123" data-name="Path 123" d="M496.752,456.129c0,.924-.684,1.451-2.042,1.451h-2.5v-5.434h2.344c1.211,0,1.91.513,1.91,1.4a1.261,1.261,0,0,1-.831,1.233A1.3,1.3,0,0,1,496.752,456.129Zm-3.967-3.509v1.972h1.732c.869,0,1.373-.334,1.373-.986s-.5-.986-1.373-.986Zm3.392,3.462c0-.707-.52-1.016-1.475-1.016h-1.917v2.04H494.7C495.658,457.105,496.177,456.8,496.177,456.082Z" transform="translate(-492.212 -452.1)" fill="#fff"/>
        <path id="Path_124" data-name="Path 124" d="M499.255,455.259v-3.113h.574v3.09c0,1.288.605,1.878,1.661,1.878s1.668-.59,1.668-1.878v-3.09h.56v3.113a2.235,2.235,0,1,1-4.463,0Z" transform="translate(-492.09 -452.1)" fill="#fff"/>
        <path id="Path_125" data-name="Path 125" d="M506.169,456.921l.226-.444a2.662,2.662,0,0,0,1.792.66c1.017,0,1.46-.426,1.46-.962,0-1.489-3.345-.574-3.345-2.585,0-.8.621-1.489,2-1.489a3.065,3.065,0,0,1,1.684.481l-.194.457a2.811,2.811,0,0,0-1.489-.45c-.994,0-1.437.444-1.437.987,0,1.49,3.346.589,3.346,2.568,0,.8-.636,1.483-2.027,1.483A2.945,2.945,0,0,1,506.169,456.921Z" transform="translate(-491.97 -452.101)" fill="#fff"/>
        <path id="Path_126" data-name="Path 126" d="M512.71,452.146h.574v5.434h-.574Z" transform="translate(-491.857 -452.1)" fill="#fff"/>
        <path id="Path_127" data-name="Path 127" d="M520.893,452.146v5.434h-.473l-3.492-4.409v4.409h-.574v-5.434h.472l3.5,4.409v-4.409Z" transform="translate(-491.794 -452.1)" fill="#fff"/>
        <path id="Path_128" data-name="Path 128" d="M527.734,457.083v.5h-3.841v-5.434h3.725v.5h-3.152v1.932h2.81v.49h-2.81v2.017Z" transform="translate(-491.663 -452.1)" fill="#fff"/>
        <path id="Path_129" data-name="Path 129" d="M529.822,456.921l.226-.444a2.665,2.665,0,0,0,1.793.66c1.017,0,1.459-.426,1.459-.962,0-1.489-3.345-.574-3.345-2.585,0-.8.621-1.489,2-1.489a3.065,3.065,0,0,1,1.684.481l-.193.457a2.812,2.812,0,0,0-1.49-.45c-.994,0-1.436.444-1.436.987,0,1.49,3.346.589,3.346,2.568,0,.8-.637,1.483-2.026,1.483A2.948,2.948,0,0,1,529.822,456.921Z" transform="translate(-491.56 -452.101)" fill="#fff"/>
        <path id="Path_130" data-name="Path 130" d="M535.852,456.921l.225-.444a2.667,2.667,0,0,0,1.793.66c1.017,0,1.46-.426,1.46-.962,0-1.489-3.346-.574-3.346-2.585,0-.8.622-1.489,2-1.489a3.06,3.06,0,0,1,1.684.481l-.193.457a2.812,2.812,0,0,0-1.49-.45c-.993,0-1.436.444-1.436.987,0,1.49,3.346.589,3.346,2.568,0,.8-.637,1.483-2.026,1.483A2.943,2.943,0,0,1,535.852,456.921Z" transform="translate(-491.456 -452.101)" fill="#fff"/>
        <path id="Path_131" data-name="Path 131" d="M545.259,454.863a2.727,2.727,0,0,1,2.849-2.762,2.63,2.63,0,0,1,1.987.791l-.365.364a2.152,2.152,0,0,0-1.606-.644,2.251,2.251,0,1,0,0,4.5,2.128,2.128,0,0,0,1.606-.651l.365.364a2.641,2.641,0,0,1-1.994.8A2.726,2.726,0,0,1,545.259,454.863Z" transform="translate(-491.293 -452.101)" fill="#fff"/>
        <path id="Path_132" data-name="Path 132" d="M551.967,454.863a2.854,2.854,0,1,1,2.856,2.764A2.734,2.734,0,0,1,551.967,454.863Zm5.13,0a2.282,2.282,0,1,0-2.275,2.251A2.2,2.2,0,0,0,557.1,454.863Z" transform="translate(-491.176 -452.101)" fill="#fff"/>
        <path id="Path_133" data-name="Path 133" d="M564.718,452.146v5.434h-.474l-3.492-4.409v4.409h-.574v-5.434h.473l3.5,4.409v-4.409Z" transform="translate(-491.034 -452.1)" fill="#fff"/>
        <path id="Path_134" data-name="Path 134" d="M567.205,456.921l.226-.444a2.664,2.664,0,0,0,1.792.66c1.017,0,1.46-.426,1.46-.962,0-1.489-3.345-.574-3.345-2.585,0-.8.621-1.489,2-1.489a3.065,3.065,0,0,1,1.684.481l-.193.457a2.814,2.814,0,0,0-1.49-.45c-.994,0-1.436.444-1.436.987,0,1.49,3.346.589,3.346,2.568,0,.8-.637,1.483-2.028,1.483A2.946,2.946,0,0,1,567.205,456.921Z" transform="translate(-490.912 -452.101)" fill="#fff"/>
        <path id="Path_135" data-name="Path 135" d="M573.7,455.259v-3.113h.575v3.09c0,1.288.6,1.878,1.66,1.878s1.668-.59,1.668-1.878v-3.09h.559v3.113a2.235,2.235,0,1,1-4.463,0Z" transform="translate(-490.8 -452.1)" fill="#fff"/>
        <path id="Path_136" data-name="Path 136" d="M581.125,452.146h.574v4.937h3.043v.5h-3.617Z" transform="translate(-490.671 -452.1)" fill="#fff"/>
        <path id="Path_137" data-name="Path 137" d="M587.531,452.643h-1.91v-.5h4.393v.5H588.1v4.936h-.574Z" transform="translate(-490.593 -452.1)" fill="#fff"/>
        <path id="Path_138" data-name="Path 138" d="M595.333,456.129h-3.028l-.651,1.451h-.6l2.483-5.434h.567l2.483,5.434h-.605Zm-.21-.466-1.3-2.919-1.3,2.919Z" transform="translate(-490.499 -452.1)" fill="#fff"/>
        <path id="Path_139" data-name="Path 139" d="M603.259,452.146v5.434h-.474l-3.493-4.409v4.409h-.574v-5.434h.473l3.5,4.409v-4.409Z" transform="translate(-490.366 -452.1)" fill="#fff"/>
        <path id="Path_140" data-name="Path 140" d="M607.327,452.643h-1.909v-.5h4.393v.5H607.9v4.936h-.574Z" transform="translate(-490.25 -452.1)" fill="#fff"/>
        <path id="Path_141" data-name="Path 141" d="M611.38,456.921l.226-.444a2.663,2.663,0,0,0,1.792.66c1.017,0,1.46-.426,1.46-.962,0-1.489-3.345-.574-3.345-2.585,0-.8.62-1.489,2-1.489a3.065,3.065,0,0,1,1.684.481l-.194.457a2.811,2.811,0,0,0-1.489-.45c-.994,0-1.437.444-1.437.987,0,1.49,3.345.589,3.345,2.568,0,.8-.636,1.483-2.026,1.483A2.943,2.943,0,0,1,611.38,456.921Z" transform="translate(-490.147 -452.101)" fill="#fff"/>
      </g>
    </g>
  </g>
</svg>
