<svg xmlns="http://www.w3.org/2000/svg" xmlns:xlink="http://www.w3.org/1999/xlink" width="83.64" height="51.714" viewBox="0 0 83.64 51.714">
  <defs>
    <clipPath id="clip-path">
      <path id="Path_729" data-name="Path 729" d="M87.722,327.444a4.17,4.17,0,0,0,.335-.393l1.1-1.2c.257-.258.49-.489.748-.749a31.069,31.069,0,0,1,4.273-3.361l1.4-.868a32.307,32.307,0,0,1,3.576-1.753,20.388,20.388,0,0,0,2.185-.882c.738-.552.641-1.182.255-1.887a2.908,2.908,0,0,0-.157-.281,13.6,13.6,0,0,0-2.219-2.38c-.215-.194-.088-.29-.862-.041l-1.732.648a15.213,15.213,0,0,0-4.233,2.806l-.8.8a18.318,18.318,0,0,0-1.677,2.264c-.2.335-.373.659-.553,1.018s-.34.71-.483,1.085a17.364,17.364,0,0,0-1.146,5.168" transform="translate(-87.722 -313.501)" fill="none"/>
    </clipPath>
    <clipPath id="clip-path-2">
      <path id="Path_734" data-name="Path 734" d="M106.358,335.455a2.74,2.74,0,0,0,.73-.184c.233-.06.5-.1.759-.154l1.563-.267a6.017,6.017,0,0,0,.887-.932l.765-1.066a18.7,18.7,0,0,0,1.584-2.973c.358-.831.4-.836.133-.851-.189-.013-.266-.035-.441-.036-.353,0-.577-.036-.915-.036-.367,0-.593.04-.947.037a21.756,21.756,0,0,0-5.074.839,1,1,0,0,0-.435.551,1.374,1.374,0,0,1-.534.933c-.329.189-.186.278.1.991l.834,2.123c.178.442.361,1.028.98,1.028" transform="translate(-104.242 -328.956)" fill="none"/>
    </clipPath>
    <clipPath id="clip-path-3">
      <path id="Path_737" data-name="Path 737" d="M97.683,313.385c.095.143.141.133.266.246s.163.173.284.266a12.848,12.848,0,0,1,1.539,1.675c.5.666.768,1.274,1.589,1.622a3.38,3.38,0,0,0,2.17.067,24.822,24.822,0,0,1,2.988-.37,1.362,1.362,0,0,1,.57.266c.958.725.627,1.482,1.219,1.482.557,0,.8-1.007.8-1.57v-.251c.313,0,.477-.037.768-.037a11.39,11.39,0,0,0-1.9-1.39,15.053,15.053,0,0,0-9.721-2.089c-.19.026-.408.081-.572.084" transform="translate(-97.683 -313.166)" fill="none"/>
    </clipPath>
    <clipPath id="clip-path-4">
      <path id="Path_739" data-name="Path 739" d="M112.932,324.726a12.738,12.738,0,0,0-1.362-4.15c-.1-.2-.186-.339-.28-.523-.084-.16-.188-.319-.286-.481s-.195-.311-.313-.49l-1.547-2a3.5,3.5,0,0,0-.593-.612c-.3.071-.51.084-.609.375-.133.382.048.823-.621,1.422-.387.345-.826.185-.315,1.208.064.133.109.212.172.341a15.741,15.741,0,0,1,1.213,3.349c.224,1.411.456,1.342,1.694,1.332.649,0,1.744.073,2.41.145.171.018.286.061.438.072" transform="translate(-106.774 -316.472)" fill="none"/>
    </clipPath>
  </defs>
  <g id="Group_4037" data-name="Group 4037" transform="translate(-43.592 -312.044)">
    <g id="Group_4014" data-name="Group 4014" transform="translate(95.317 312.044)">
      <g id="Group_4013" data-name="Group 4013">
        <path id="Path_725" data-name="Path 725" d="M102.579,343.958a15.957,15.957,0,1,1,11.289-4.668A15.914,15.914,0,0,1,102.579,343.958Zm0-31.085a15.128,15.128,0,1,0,10.7,4.431A15.026,15.026,0,0,0,102.579,312.873Z" transform="translate(-86.621 -312.044)" fill="#b2b2b2"/>
      </g>
    </g>
    <path id="Path_726" data-name="Path 726" d="M94.99,329.867a2.627,2.627,0,0,0,1.243-.545c.19-.111.365-.2.57-.307l.567-.309c.191-.118.386-.192.575-.3.689-.4,2.131-1.072,2.931-1.446.21-.1.41-.177.608-.266a11.972,11.972,0,0,1,3.541-1.1,1.594,1.594,0,0,1,1.132.838c.319.533,1.012,1.66,1.364.533a3.73,3.73,0,0,0,.133-.78c.1-1.654,1.292-1.39,1.923-1.653a1.2,1.2,0,0,0,.813-1.012,4.478,4.478,0,0,0-.427-1.731l-1.531-3.47a2.052,2.052,0,0,0-.822-1.04,3.132,3.132,0,0,0-2.108-.113,27.315,27.315,0,0,0-4.99,1.289,38.172,38.172,0,0,0-4.348,1.884c-.767.447-1.6.838-2.4,1.357l-.761.478a1.271,1.271,0,0,0-.666.608c-.327.631.073,1.367.266,1.932l1.315,3.729c.212.571.453,1.427,1.09,1.427" transform="translate(9.827 1.01)" fill="#b2b2b2" fill-rule="evenodd"/>
    <path id="Path_727" data-name="Path 727" d="M90.184,333.9c.077.114.133.186.218.291l.726.845c.23.287.8.767,1.065,1.045a11.588,11.588,0,0,0,2.511,1.732,5.059,5.059,0,0,0,.465-.557l1.022-1.1c.46-.46,1.176-1.065,1.693-1.482a2.114,2.114,0,0,1,1.821-.626,4.948,4.948,0,0,1,1.065.256c.3-.444-.073-.695-.073-1.315a.4.4,0,0,1,.175-.371,1.451,1.451,0,0,1,.163-.091l.9-.484a2.158,2.158,0,0,0,.648-.448,1.017,1.017,0,0,0,.167-1.391l-.317-.606c-.06-.123-.1-.167-.159-.28s-.089-.182-.145-.293l-.475-.874a3.907,3.907,0,0,0-.882-1.345,1.1,1.1,0,0,0-1.094-.17,1.982,1.982,0,0,0-.371.176,36.152,36.152,0,0,0-4.685,2.873,28.046,28.046,0,0,0-2.92,2.447c-.1.1-.173.174-.273.266a13.341,13.341,0,0,0-1.248,1.5" transform="translate(9.416 2.934)" fill="#b2b2b2" fill-rule="evenodd"/>
    <path id="Path_728" data-name="Path 728" d="M87.722,327.444a4.17,4.17,0,0,0,.335-.393l1.1-1.2c.257-.258.49-.489.748-.749a31.069,31.069,0,0,1,4.273-3.361l1.4-.868a32.307,32.307,0,0,1,3.576-1.753,20.388,20.388,0,0,0,2.185-.882c.738-.552.641-1.182.255-1.887a2.908,2.908,0,0,0-.157-.281,13.6,13.6,0,0,0-2.219-2.38c-.215-.194-.088-.29-.862-.041l-1.732.648a15.213,15.213,0,0,0-4.233,2.806l-.8.8a18.318,18.318,0,0,0-1.677,2.264c-.2.335-.373.659-.553,1.018s-.34.71-.483,1.085a17.364,17.364,0,0,0-1.146,5.168" transform="translate(8.918 0.294)" fill="#b2b2b2" fill-rule="evenodd"/>
    <g id="Group_4017" data-name="Group 4017" transform="translate(96.64 313.795)">
      <g id="Group_4016" data-name="Group 4016" clip-path="url(#clip-path)">
        <g id="Group_4015" data-name="Group 4015" transform="translate(-0.302 2.166)">
          <text id="uno_si" data-name="uno si" transform="translate(1.033 7.298) rotate(-31.082)" fill="#fff" font-size="3" font-family="Arial-BoldMT, Arial" font-weight="700" style="mix-blend-mode: normal;isolation: isolate"><tspan x="0" y="0">uno si</tspan></text>
        </g>
      </g>
    </g>
    <path id="Path_730" data-name="Path 730" d="M105.727,326.872c-1.1,0-1.113-1.107-1.963-1.651-.472-.3-.867-.041-1.519.177-.347.115-.686.22-1.013.338a6.493,6.493,0,0,0-1.427.615.982.982,0,0,0,.024,1.236c.121.2.231.359.338.575s.2.375.3.572l.948,1.751c.133.281.087.363.319.6.638.638,1.352-.011,1.873-.011.79,0,.613.267,1.261.674.328.208.48-.036.578-.368s.022-.831.629-1.123a29.115,29.115,0,0,1,2.862-.569c.333-.044.695-.114,1.024-.146.648-.06,1.274,0,1.7-.6a4.733,4.733,0,0,0,.385-1.914l.234-2.066c.3-1.72-1.981-1.093-3.018-1.047-.285.012-.666.052-.965.093-.516.072-1.057.1-1.372.783a2.749,2.749,0,0,0-.177.92,1.5,1.5,0,0,1-.289.8.918.918,0,0,1-.739.362" transform="translate(11.317 2.369)" fill="#b2b2b2" fill-rule="evenodd"/>
    <path id="Path_731" data-name="Path 731" d="M100.157,334.1c-.646,0-1.6-.593-2.3,0l-.777.648c-.113.088-.149.132-.256.218a12.567,12.567,0,0,0-2.357,2.39l.611.3a13.441,13.441,0,0,0,5.3,1.231c1.725,0,.909.192,2.482-.986a13.9,13.9,0,0,1,3.237-1.91c.337-.132.887-.266.887-.932a1.6,1.6,0,0,0-.249-.666l-1.381-3.219c-.615-1.055-1.864-.339-2.569-.023-.444.2-.831.38-1.265.6-.222.112-.4.2-.594.319-.547.328-.391.313-.4,1.464,0,.315-.05.582-.365.582" transform="translate(10.281 3.753)" fill="#b2b2b2" fill-rule="evenodd"/>
    <path id="Path_732" data-name="Path 732" d="M87.753,326.667a13.429,13.429,0,0,0,2.482,7.375,2.124,2.124,0,0,0,.248-.3c.087-.107.163-.19.248-.3a2.5,2.5,0,0,1,.267-.285c.107-.108.143-.183.254-.293l2.245-2.131c.57-.508.867-.7.867-1.541,0-.289-.947-2.975-1.065-3.318l-.813-2.473c-.153-.463-.173-.64-.611-.64a1.3,1.3,0,0,0-.679.308,5.056,5.056,0,0,0-.59.433,9.766,9.766,0,0,0-1.023.985c-.076.087-.153.155-.237.238-.111.109-.141.163-.237.266a2.473,2.473,0,0,0-.244.267,15.567,15.567,0,0,0-1.116,1.4" transform="translate(8.924 2.166)" fill="#b2b2b2" fill-rule="evenodd"/>
    <path id="Path_733" data-name="Path 733" d="M106.358,335.455a2.74,2.74,0,0,0,.73-.184c.233-.06.5-.1.759-.154l1.563-.267a6.017,6.017,0,0,0,.887-.932l.765-1.066a18.7,18.7,0,0,0,1.584-2.973c.358-.831.4-.836.133-.851-.189-.013-.266-.035-.441-.036-.353,0-.577-.036-.915-.036-.367,0-.593.04-.947.037a21.756,21.756,0,0,0-5.074.839,1,1,0,0,0-.435.551,1.374,1.374,0,0,1-.534.933c-.329.189-.186.278.1.991l.834,2.123c.178.442.361,1.028.98,1.028" transform="translate(12.257 3.418)" fill="#b2b2b2" fill-rule="evenodd"/>
    <g id="Group_4020" data-name="Group 4020" transform="translate(116.499 332.374)">
      <g id="Group_4019" data-name="Group 4019" clip-path="url(#clip-path-2)">
        <g id="Group_4018" data-name="Group 4018" transform="translate(0.577 2.769)">
          <text id="язык" transform="translate(0.061 1.366) rotate(-3.512)" fill="#fff" font-size="2" font-family="Arial-BoldMT, Arial" font-weight="700" style="mix-blend-mode: normal;isolation: isolate"><tspan x="0" y="0">язык</tspan></text>
        </g>
      </g>
    </g>
    <path id="Path_735" data-name="Path 735" d="M97.683,313.385c.095.143.141.133.266.246s.163.173.284.266a12.848,12.848,0,0,1,1.539,1.675c.5.666.768,1.274,1.589,1.622a3.38,3.38,0,0,0,2.17.067,24.822,24.822,0,0,1,2.988-.37,1.362,1.362,0,0,1,.57.266c.958.725.627,1.482,1.219,1.482.557,0,.8-1.007.8-1.57v-.251c.313,0,.477-.037.768-.037a11.39,11.39,0,0,0-1.9-1.39,15.053,15.053,0,0,0-9.721-2.089c-.19.026-.408.081-.572.084" transform="translate(10.931 0.227)" fill="#b2b2b2" fill-rule="evenodd"/>
    <g id="Group_4023" data-name="Group 4023" transform="translate(108.614 313.393)">
      <g id="Group_4022" data-name="Group 4022" clip-path="url(#clip-path-3)">
        <g id="Group_4021" data-name="Group 4021" transform="translate(4.217 -1.504)">
          <path id="Path_736" data-name="Path 736" d="M101.488,315.307l.119.087c.048.035.065.032.111.065l.12-.148c-.183-.132-.328-.292-.1-.575.345-.421.906-.3,1.3-.232.5.082.438.01.486.231.071.317.213.832.3,1.149l.292,1.142a.665.665,0,0,0,.052.166l.516-.63c-.038-.194-.19-.732-.243-.933-.04-.16-.079-.309-.121-.469-.022-.079-.038-.151-.06-.234-.011-.042-.018-.073-.03-.115l-.028-.126a.712.712,0,0,0,.132.024l.133.02c.088.014.171.025.267.042.385.065,1.278.238,1.569-.118a.537.537,0,0,0,.147-.533.657.657,0,0,0-.1-.2,1.142,1.142,0,0,0-.422-.321l-.113.133c.417.305.094.684-.168.779a.887.887,0,0,1-.3.049,3.652,3.652,0,0,1-.6-.059c-.1-.016-.192-.032-.295-.044-.367-.043-.3-.025-.345-.206l-.537-2.023c-.028-.1-.052-.213-.085-.315l-.524.641a.393.393,0,0,1,.035.108c.049.188.424,1.606.417,1.656l-.51-.081c-.087-.016-.168-.025-.254-.037a2.667,2.667,0,0,0-.987-.012.617.617,0,0,0-.171,1.117" transform="translate(-101.191 -311.915)" fill="#fff" fill-rule="evenodd"/>
        </g>
      </g>
    </g>
    <path id="Path_738" data-name="Path 738" d="M112.932,324.726a12.738,12.738,0,0,0-1.362-4.15c-.1-.2-.186-.339-.28-.523-.084-.16-.188-.319-.286-.481s-.195-.311-.313-.49l-1.547-2a3.5,3.5,0,0,0-.593-.612c-.3.071-.51.084-.609.375-.133.382.048.823-.621,1.422-.387.345-.826.185-.315,1.208.064.133.109.212.172.341a15.741,15.741,0,0,1,1.213,3.349c.224,1.411.456,1.342,1.694,1.332.649,0,1.744.073,2.41.145.171.018.286.061.438.072" transform="translate(12.769 0.895)" fill="#b2b2b2" fill-rule="evenodd"/>
    <g id="Group_4026" data-name="Group 4026" transform="translate(119.543 317.367)">
      <g id="Group_4025" data-name="Group 4025" clip-path="url(#clip-path-4)">
        <g id="Group_4024" data-name="Group 4024" transform="translate(1.146 2.544)">
          <text id="भाषा" transform="matrix(0.978, -0.21, 0.21, 0.978, 0.42, 2.964)" fill="#fff" font-size="2" font-family="NirmalaUI-Bold, Nirmala UI" font-weight="700" style="mix-blend-mode: normal;isolation: isolate"><tspan x="0" y="0">भाषा</tspan></text>
        </g>
      </g>
    </g>
    <path id="Path_740" data-name="Path 740" d="M110.436,328.594c0,.861.825.912,1.423.912l.368-2.006a13.862,13.862,0,0,0,.149-2.672c-.019-.166,0-.321-.02-.492-.017-.133-.016-.319-.091-.381s-1.073-.249-1.343.525c-.06.174-.133,1.065-.167,1.364Z" transform="translate(13.509 2.394)" fill="#b2b2b2" fill-rule="evenodd"/>
    <path id="Path_741" data-name="Path 741" d="M101.508,337.963a11.23,11.23,0,0,0,2.414-.47,14.149,14.149,0,0,0,2.084-.789l.706-.353a14.343,14.343,0,0,0,2.026-1.26,4.645,4.645,0,0,0,.8-.666,17.758,17.758,0,0,0-3.4.909,10.973,10.973,0,0,0-1.029.432,15.9,15.9,0,0,0-1.892.991c-.321.194-.581.362-.892.569a5.623,5.623,0,0,0-.817.642" transform="translate(11.704 4.523)" fill="#b2b2b2" fill-rule="evenodd"/>
    <path id="Path_742" data-name="Path 742" d="M109.963,326.327h-2.074l-.117.322h1.63a8.831,8.831,0,0,1-.293.97,1.236,1.236,0,0,1-.267.478.433.433,0,0,1-.26.095,1.531,1.531,0,0,1-.434-.082l-.085-.391a1.426,1.426,0,0,0,.507.162.15.15,0,0,0,.1-.036,1.286,1.286,0,0,0,.142-.281,6.1,6.1,0,0,0,.2-.619h-1.691l.234-.619H106.49l.023-.281h3.47Zm-.635-.457h-2.147l.095-1.14h2.146Zm-.286-.3.046-.546H107.56l-.044.546Z" transform="translate(12.711 2.564)" fill="#fff"/>
    <text id="中" transform="translate(112.717 332.263) rotate(-22.973)" fill="#fff" font-size="3" font-family="SimSun" style="mix-blend-mode: normal;isolation: isolate"><tspan x="0" y="0">中</tspan></text>
    <text id="中-2" data-name="中" transform="translate(112.717 332.263) rotate(-22.973)" fill="rgba(0,0,0,0)" stroke="#fff" stroke-width="0.093" font-size="3" font-family="SimSun" style="mix-blend-mode: normal;isolation: isolate"><tspan x="0" y="0">中</tspan></text>
    <text id="γλ" transform="matrix(0.821, -0.571, 0.571, 0.821, 108.635, 341.851)" fill="#fff" font-size="2" font-family="Arial-BoldMT, Arial" font-weight="700" style="mix-blend-mode: normal;isolation: isolate"><tspan x="0" y="0">γλ</tspan></text>
    <text id="ώσσα" transform="matrix(0.821, -0.571, 0.571, 0.821, 110.544, 340.519)" fill="#fff" font-size="2" font-family="Arial-BoldMT, Arial" font-weight="700" style="mix-blend-mode: normal;isolation: isolate"><tspan x="0" y="0">ώσσα</tspan></text>
    <text id="Êé" transform="matrix(0.85, -0.526, 0.526, 0.85, 98.552, 331.902)" fill="#fff" font-size="3" font-family="Arial-BoldMT, Arial" font-weight="700" style="mix-blend-mode: normal;isolation: isolate"><tspan x="0" y="0">Êé</tspan></text>
    <path id="Path_743" data-name="Path 743" d="M93.33,332.433l-.285.04-.014.183-.353.051.024-.347.284-.035.017-.19.357-.044Zm1.42,1a.271.271,0,0,1-.073.04.343.343,0,0,1-.077.019.273.273,0,0,1-.077,0,.37.37,0,0,1-.072-.011.319.319,0,0,1-.133-.078,1.305,1.305,0,0,1-.153-.153l-.046.035v.3l-.091.044c-.034.014-.067.035-.106.048l-.106.05a1.035,1.035,0,0,1-.1.04.752.752,0,0,1-.115.034.233.233,0,0,1-.082,0,.167.167,0,0,1-.055-.026.363.363,0,0,1-.046-.051.391.391,0,0,1-.04-.1,1.239,1.239,0,0,0-.022-.151.984.984,0,0,1-.013-.158.846.846,0,0,1,0-.111.255.255,0,0,1,.024-.072c.014-.031.034-.059.052-.093s.046-.064.069-.1.047-.07.067-.1.046-.065.071-.1.04-.064.061-.1a.125.125,0,0,1-.026-.03.152.152,0,0,1-.032-.041.241.241,0,0,0-.032-.038l-.023-.032.042-.328.254.319c.014.014.028.034.052.06s.046.055.073.089l.089.107.1.114.091.109c.035.034.063.066.087.093a.093.093,0,0,0,.047.03.17.17,0,0,0,.049.008.364.364,0,0,0,.071-.019.407.407,0,0,0,.1-.058l.133-.1.227.328Zm-.708-.315-.257-.34a.1.1,0,0,0,0,.038v.047a.322.322,0,0,1,0,.048.047.047,0,0,1,0,.031.189.189,0,0,1-.024.043c-.013.02-.026.046-.048.076s-.037.061-.059.093a1.173,1.173,0,0,0-.06.1l-.057.081a.577.577,0,0,1-.035.057v.029c.035-.011.071-.028.113-.043l.125-.065.133-.071c.043-.023.085-.046.123-.069Zm2.264-.85a.383.383,0,0,1-.115.063.356.356,0,0,1-.133.01l.014.3a2.336,2.336,0,0,1-.414.113,1.482,1.482,0,0,1-.379.019.615.615,0,0,1-.011.153.287.287,0,0,1-.028.1.363.363,0,0,1-.06.075c-.026.024-.059.054-.1.083l-.108.079-.023.013a.078.078,0,0,1-.03.018l-.043.013a.27.27,0,0,1-.044,0,.072.072,0,0,1-.04-.019.152.152,0,0,1-.038-.04l-.061-.088a.108.108,0,0,1-.023-.063.133.133,0,0,1,.008-.065.234.234,0,0,1,.026-.055.256.256,0,0,1,.041-.04l.267-.2a.178.178,0,0,0,.075-.1v-.082a1.091,1.091,0,0,0-.022-.123,1.167,1.167,0,0,1-.008-.172.915.915,0,0,1,.03-.179.69.69,0,0,1,.076-.166.533.533,0,0,1,.117-.132.354.354,0,0,1,.044-.029.139.139,0,0,1,.053-.014.171.171,0,0,1,.065.016.276.276,0,0,1,.078.066.63.63,0,0,0,.184.132.657.657,0,0,0,.214.058.128.128,0,0,0,.063-.017.447.447,0,0,0,.1-.059l.076-.058.23.328Zm-.429.04a.56.56,0,0,1-.242-.089.671.671,0,0,1-.159-.144.687.687,0,0,0-.153.154.324.324,0,0,0-.067.149h.133a1.163,1.163,0,0,0,.169-.008c.06-.008.119-.012.179-.017a1.4,1.4,0,0,0,.143-.023Zm1.893-1.529a.587.587,0,0,1-.083.05.621.621,0,0,1-.089.047c-.03.019-.06.036-.087.05a.3.3,0,0,0-.067.042.425.425,0,0,0-.088.079.384.384,0,0,0-.067.085c-.022.03-.037.061-.055.089a.545.545,0,0,0-.046.1,1.694,1.694,0,0,1-.078.158,1.744,1.744,0,0,1-.1.171,1.571,1.571,0,0,1-.149.18,2.018,2.018,0,0,1-.216.188l-.258.192a.156.156,0,0,1-.052.024.138.138,0,0,1-.059.01.168.168,0,0,1-.059-.01.106.106,0,0,1-.049-.042l-.061-.087a.111.111,0,0,1-.023-.062.137.137,0,0,1,.007-.066.577.577,0,0,1,.028-.054.308.308,0,0,1,.04-.04l.325-.243a2.228,2.228,0,0,0,.206-.178,2.138,2.138,0,0,0,.154-.176c.044-.058.083-.112.117-.161s.055-.095.081-.132a1.512,1.512,0,0,1-.177.058c-.056.019-.109.034-.167.051a1.476,1.476,0,0,0-.145.057.412.412,0,0,0-.12.064.238.238,0,0,0-.06.065.246.246,0,0,0-.032.07.288.288,0,0,0-.016.071.261.261,0,0,0,0,.043l-.083.019c-.019-.075-.034-.148-.047-.213a.7.7,0,0,1-.008-.18.41.41,0,0,1,.03-.147.284.284,0,0,1,.089-.111.889.889,0,0,1,.225-.111c.1-.03.208-.06.322-.087.064-.013.133-.03.2-.043l.216-.058a1.993,1.993,0,0,0,.213-.082.785.785,0,0,0,.195-.112Zm-.182,1.349-.393.054.023-.364.4-.049Zm1.969-2.292a.458.458,0,0,1-.093.049.205.205,0,0,1-.12,0l-.017.037a.7.7,0,0,1,.078.159,1.174,1.174,0,0,1,.059.214,2.287,2.287,0,0,1,.028.231.9.9,0,0,1-.017.234.711.711,0,0,1-.066.2.4.4,0,0,1-.124.151.494.494,0,0,1-.132.075,1.437,1.437,0,0,1-.18.071,1.774,1.774,0,0,1-.22.065c-.079.022-.163.038-.249.054l-.017-.085.1-.04c.035-.011.061-.026.087-.035l.071-.037a.463.463,0,0,0,.064-.044.58.58,0,0,0,.133-.143,1.357,1.357,0,0,0,.113-.2,1.581,1.581,0,0,0,.09-.226,2.07,2.07,0,0,0,.059-.221,1.312,1.312,0,0,0,.023-.181.175.175,0,0,0-.022-.107.2.2,0,0,0-.028-.018.194.194,0,0,0-.055-.026c-.023-.01-.047-.02-.073-.03s-.049-.017-.075-.023-.053-.012-.079-.02a.309.309,0,0,1-.087-.024l-.083-.028-.067-.023-.038-.445a.686.686,0,0,0,.087.034.358.358,0,0,0,.071.026c.064.02.12.042.173.057a.59.59,0,0,0,.143.032.437.437,0,0,0,.125-.011.355.355,0,0,0,.123-.061l.095-.071.227.328Z" transform="translate(9.92 3.511)" fill="#fff"/>
    <path id="Path_744" data-name="Path 744" d="M98.082,328.847l-.285.04-.02.178-.353.05.024-.349.284-.034.017-.19.356-.046Zm.188,1.429a.169.169,0,0,1-.052.024.119.119,0,0,1-.058.008.129.129,0,0,1-.06-.01.113.113,0,0,1-.05-.041l-.061-.088a.109.109,0,0,1-.022-.063.136.136,0,0,1,.008-.066.178.178,0,0,1,.025-.053.264.264,0,0,1,.041-.041l.457-.343a.514.514,0,0,0-.082-.05.9.9,0,0,0-.107-.043.733.733,0,0,0-.111-.035.529.529,0,0,0-.087-.019v-.393a.972.972,0,0,1,.142.058.838.838,0,0,1,.147.083.906.906,0,0,1,.133.1.413.413,0,0,1,.1.1.638.638,0,0,1,.059.109,1.063,1.063,0,0,1,.048.121,1.263,1.263,0,0,1,.036.132c.012.041.018.081.028.118Z" transform="translate(10.879 3.325)" fill="#fff"/>
    <g id="Group_4027" data-name="Group 4027" transform="translate(103.49 321.077)">
      <path id="Path_745" data-name="Path 745" d="M94.945,324.795c-.093-.214-.161-.377-.2-.487-.066-.167-.148-.391-.246-.665l.476-.167a.063.063,0,0,0,.04-.046.08.08,0,0,0-.006-.054.482.482,0,0,0-.029-.062c-.012-.023-.02-.04-.025-.052-.042-.108-.049-.13-.05-.133l-.034.006.03-.018v0l-.019-.031-.012.006a.073.073,0,0,0-.029,0l0-.008-.035.013h0l-.179.084c-.208.1-.361.166-.457.2s-.335.119-.676.23l-.02.006a.068.068,0,0,0-.042.073.97.97,0,0,0,.034.144l.01.081a.369.369,0,0,0,.019.09.054.054,0,0,0,.075.03c.109-.042.275-.115.5-.216.118.273.209.493.272.653.042.108.1.275.177.494s.136.387.178.5a.073.073,0,0,0,.07.052.109.109,0,0,0,.032-.006c.018-.007.044-.019.081-.037s.058-.026.073-.032.043-.016.079-.026.065-.02.083-.028c.059-.023.066-.066.053-.1C95.108,325.175,95.039,325.01,94.945,324.795Z" transform="translate(-93.42 -318.847)" fill="#fff"/>
      <path id="Path_746" data-name="Path 746" d="M95.92,323.31a.053.053,0,0,0-.03-.032.209.209,0,0,0-.145.023.524.524,0,0,0-.145.078.635.635,0,0,0-.118.117l-.066.09-.018-.032c-.013-.028-.037-.077-.071-.091l-.008-.014-.034.013.014.037h0l-.024-.031s-.023.016-.126.079c-.06.032-.107.058-.141.075l-.008.006a.066.066,0,0,0-.02.077.142.142,0,0,0,.016.026,2.114,2.114,0,0,1,.281.531c.03.077.075.195.132.35s.1.274.133.351a.074.074,0,0,0,.069.053.089.089,0,0,0,.03-.006l.135-.052c.061-.022.106-.04.136-.05a.072.072,0,0,0,.044-.044.088.088,0,0,0,0-.06c-.02-.053-.055-.135-.1-.242s-.079-.186-.1-.239l-.063-.157a.687.687,0,0,1-.066-.249c0-.064.06-.117.165-.157.019-.007.05-.017.09-.028s.077-.023.1-.03a.071.071,0,0,0,.041-.09A1.838,1.838,0,0,0,95.92,323.31Z" transform="translate(-93.106 -318.808)" fill="#fff"/>
      <path id="Path_747" data-name="Path 747" d="M97.825,324.059c-.2-.434-.28-.614-.285-.625a3.686,3.686,0,0,1-.163-.578.232.232,0,0,0-.008-.038c-.017-.041-.071-.04-.18-.024a1,1,0,0,0-.16.038c-.055.022-.038.106-.029.15l.006.03-.059-.03a.624.624,0,0,0-.47,0,.725.725,0,0,0-.44.434.869.869,0,0,0,.024.625.837.837,0,0,0,.391.444.721.721,0,0,0,.339.089.677.677,0,0,0,.249-.048.576.576,0,0,0,.219-.156.908.908,0,0,0,.121-.172l.024-.042.026.046c.024.041.073.126.13.1a1.015,1.015,0,0,0,.12-.057,1.069,1.069,0,0,1,.111-.054.08.08,0,0,0,.047-.043.083.083,0,0,0,0-.067Zm-.654-.16h0a.332.332,0,0,1-.2.22.344.344,0,0,1-.3-.019.461.461,0,0,1-.215-.554.346.346,0,0,1,.51-.2.452.452,0,0,1,.2.24A.438.438,0,0,1,97.171,323.9Z" transform="translate(-92.901 -318.906)" fill="#fff"/>
      <path id="Path_748" data-name="Path 748" d="M99.064,323.282,98.95,323q-.018-.045-.05-.137c-.023-.061-.04-.107-.052-.137a.794.794,0,0,0-.231-.359.47.47,0,0,0-.466-.018.63.63,0,0,0-.274.22c-.042.065-.078.123-.108.171a.86.86,0,0,1-.064-.112c-.026-.047-.058-.041-.071-.036a1.592,1.592,0,0,0-.156.09l-.159.094a.061.061,0,0,0-.023.073.089.089,0,0,0,.016.026,2.378,2.378,0,0,1,.279.528c.03.076.073.19.129.34s.1.266.13.341a.069.069,0,0,0,.065.05.1.1,0,0,0,.03-.006c.03-.012.076-.03.137-.052l.138-.053a.069.069,0,0,0,.036-.1l-.334-.858c0-.013-.008-.056.071-.163a.4.4,0,0,1,.149-.143.229.229,0,0,1,.206-.007.4.4,0,0,1,.121.192l.069.171.069.171c.018.047.044.119.078.215s.061.168.079.215a.088.088,0,0,0,.046.054.059.059,0,0,0,.049,0l.141-.053.142-.054a.066.066,0,0,0,.041-.04.074.074,0,0,0,0-.055Q99.142,323.471,99.064,323.282Z" transform="translate(-92.638 -319.005)" fill="#fff"/>
      <path id="Path_749" data-name="Path 749" d="M99.512,322.567h0a1.51,1.51,0,0,0-.28-.056c-.077-.011-.124-.032-.135-.059s-.016-.067.044-.113.118-.064.175-.1.042-.07.037-.081a.636.636,0,0,0-.077-.117,1.054,1.054,0,0,0-.087-.108.073.073,0,0,0-.078-.014.692.692,0,0,0-.347.267.461.461,0,0,0-.034.434.4.4,0,0,0,.246.243,1.845,1.845,0,0,0,.28.046c.081.011.129.036.143.073s.049.127-.183.218h0l-.024.006-.016,0a.237.237,0,0,0-.066.025.067.067,0,0,0-.031.083.926.926,0,0,0,.047.095.666.666,0,0,1,.042.087c.008.02.032.083.09.087a.406.406,0,0,0,.113-.037.685.685,0,0,0,.35-.28.477.477,0,0,0,.04-.444A.446.446,0,0,0,99.512,322.567Z" transform="translate(-92.354 -319.081)" fill="#fff"/>
      <path id="Path_750" data-name="Path 750" d="M100.238,322.64c-.093-.225-.16-.394-.2-.507-.1-.251-.208-.563-.323-.922l-.006-.02a.062.062,0,0,0-.087-.038l-.081.036c-.032.016-.058.028-.076.035s-.041.014-.076.024-.064.02-.082.028a.068.068,0,0,0-.042.093c.041.1.106.256.2.458s.156.355.2.457.109.282.2.51l.195.51a.07.07,0,0,0,.065.05.064.064,0,0,0,.026,0l.273-.106a.067.067,0,0,0,.034-.095C100.4,323.033,100.331,322.865,100.238,322.64Z" transform="translate(-92.24 -319.237)" fill="#fff"/>
      <path id="Path_751" data-name="Path 751" d="M102,322.428c-.188-.409-.282-.618-.286-.625a3.7,3.7,0,0,1-.162-.578.178.178,0,0,0-.008-.036c-.017-.042-.073-.041-.179-.025a1,1,0,0,0-.161.037c-.049.02-.043.088-.03.151l.006.029-.041-.02-.017-.008a.624.624,0,0,0-.47,0,.721.721,0,0,0-.44.435.859.859,0,0,0,.024.624.828.828,0,0,0,.391.444.708.708,0,0,0,.338.09.684.684,0,0,0,.25-.048.59.59,0,0,0,.219-.156.96.96,0,0,0,.121-.173l.024-.042.028.046c.034.06.075.121.131.1.026-.011.065-.03.118-.058s.085-.043.109-.053a.077.077,0,0,0,.044-.112Zm-.654-.16a.334.334,0,0,1-.2.221.344.344,0,0,1-.3-.02.427.427,0,0,1-.208-.236.445.445,0,0,1-.008-.317.347.347,0,0,1,.511-.2.447.447,0,0,1,.2.242A.435.435,0,0,1,101.35,322.268Z" transform="translate(-92.056 -319.236)" fill="#fff"/>
      <path id="Path_752" data-name="Path 752" d="M102.847,322h0c-.011-.04-.02-.071-.029-.093a.06.06,0,0,0-.079-.042.672.672,0,0,0-.127.073.769.769,0,0,1-.115.066c-.075.029-.108.007-.127-.011a.44.44,0,0,1-.079-.148l-.084-.214c-.047-.123-.081-.215-.1-.284-.007-.023-.011-.038-.013-.048.036-.013.085-.03.148-.049.081-.025.139-.046.179-.06a.1.1,0,0,0,.046-.034.067.067,0,0,0,.006-.062l-.028-.066-.026-.064c0-.011-.01-.029-.016-.053a.582.582,0,0,0-.018-.063.054.054,0,0,0-.03-.032.073.073,0,0,0-.053,0l-.345.131c-.017-.041-.037-.1-.064-.19s-.049-.151-.065-.195a.074.074,0,0,0-.091-.043c-.276.055-.286.06-.293.063-.052.02-.059.078-.022.172.016.04.04.1.072.176s.057.135.071.172c0,.012.008.02-.02.032l-.075.031a.092.092,0,0,0-.048.1.655.655,0,0,0,.03.094c.026.069.061.138.127.129l.1-.038c.019-.006.025,0,.032.016.032.082.077.2.137.367s.106.287.137.369a.327.327,0,0,0,.309.237.533.533,0,0,0,.2-.042,1.011,1.011,0,0,0,.362-.209.1.1,0,0,0,.03-.055.1.1,0,0,0-.01-.048Z" transform="translate(-91.808 -319.363)" fill="#fff"/>
      <path id="Path_753" data-name="Path 753" d="M102.47,320.615a.359.359,0,0,0,.124-.026h0a.269.269,0,0,0,.151-.121.222.222,0,0,0,0-.184.217.217,0,0,0-.132-.13.273.273,0,0,0-.325.125.214.214,0,0,0-.013.189A.2.2,0,0,0,102.47,320.615Z" transform="translate(-91.634 -319.441)" fill="#fff"/>
      <path id="Path_754" data-name="Path 754" d="M103.215,321.578c-.058-.137-.1-.24-.126-.309s-.067-.186-.115-.337-.089-.267-.118-.34a.064.064,0,0,0-.087-.041.624.624,0,0,0-.083.041.554.554,0,0,1-.073.036.546.546,0,0,1-.078.023.667.667,0,0,0-.088.025.065.065,0,0,0-.043.089c.029.076.079.186.148.331s.117.251.145.326.064.166.112.3.084.234.111.3a.113.113,0,0,0,.054.068.07.07,0,0,0,.026.006.093.093,0,0,0,.025,0l.278-.109a.065.065,0,0,0,.038-.035.074.074,0,0,0,0-.058C103.314,321.82,103.272,321.717,103.215,321.578Z" transform="translate(-91.605 -319.358)" fill="#fff"/>
      <path id="Path_755" data-name="Path 755" d="M104.209,320.2a.772.772,0,0,0-1.047.41.855.855,0,0,0,.417,1.069.746.746,0,0,0,.333.081.758.758,0,0,0,.281-.056.736.736,0,0,0,.434-.435.853.853,0,0,0-.418-1.067Zm.048.914a.354.354,0,0,1-.51.2.419.419,0,0,1-.206-.233.436.436,0,0,1-.01-.311.347.347,0,0,1,.212-.216.355.355,0,0,1,.132-.026.345.345,0,0,1,.167.044.424.424,0,0,1,.2.234A.441.441,0,0,1,104.257,321.116Z" transform="translate(-91.463 -319.444)" fill="#fff"/>
      <path id="Path_756" data-name="Path 756" d="M106.19,320.832h0c-.025-.065-.064-.16-.114-.286s-.09-.22-.114-.284c-.012-.03-.029-.076-.052-.137l-.05-.138a.8.8,0,0,0-.232-.359.466.466,0,0,0-.466-.017.644.644,0,0,0-.274.22c-.042.065-.078.121-.107.171a1.043,1.043,0,0,1-.065-.112c-.025-.048-.058-.042-.07-.037s-.012,0-.157.091l-.157.093a.063.063,0,0,0-.024.075.077.077,0,0,0,.017.025,2.51,2.51,0,0,1,.279.528c.029.077.072.19.129.341s.1.266.129.34a.071.071,0,0,0,.066.05.083.083,0,0,0,.029-.006l.137-.052c.063-.023.108-.041.138-.053a.07.07,0,0,0,.037-.1l-.335-.857c0-.013-.008-.056.071-.163a.4.4,0,0,1,.15-.144.225.225,0,0,1,.206-.006.4.4,0,0,1,.121.192c.014.038.037.1.067.171s.054.132.069.169.044.119.079.215.06.168.078.215a.1.1,0,0,0,.046.054.064.064,0,0,0,.049,0l.141-.054.142-.053A.068.068,0,0,0,106.19,320.832Z" transform="translate(-91.221 -319.558)" fill="#fff"/>
    </g>
    <g id="Group_4028" data-name="Group 4028" transform="translate(66.533 347.149)">
      <path id="Path_757" data-name="Path 757" d="M68.653,357.856l-.558-.1a6.245,6.245,0,0,1-4.283-2.584,5.094,5.094,0,0,1-.939-2.339c-.076-.662-.141-1.326-.19-1.991a4.622,4.622,0,0,1,.031-.8,1.293,1.293,0,0,1,1.308-1.287,8.516,8.516,0,0,1,2.129.12c-.006.1,0,.2-.017.3a20.468,20.468,0,0,0-.231,3.056,5.454,5.454,0,0,0,.423,2.1,2.482,2.482,0,0,0,1.268,1.316,3.99,3.99,0,0,0,3.326.084,2.748,2.748,0,0,0,1.533-1.772,8.279,8.279,0,0,0,.352-2.564c.016-1.188,0-2.375.01-3.562a6.163,6.163,0,0,1,.1-1.007,1,1,0,0,1,.97-.924,13.325,13.325,0,0,1,1.58.012c.232.008.463.06.74.1a20.511,20.511,0,0,0-.233,5.586c.833,0,1.641.041,2.441-.012a1.247,1.247,0,0,0,1.26-1.14,11.673,11.673,0,0,0,.154-1.5c.046-.638.071-1.279.109-1.919a1.808,1.808,0,0,1,.057-.307,1.063,1.063,0,0,1,1.118-.928c.584.008,1.168.1,1.753.168.136.016.269.057.434.091-.071.453-.141.9-.208,1.337a8.893,8.893,0,0,0-.081,2.563l0,.026c.219,1.519,1.328,1.9,2.679,1.581a1.5,1.5,0,0,0,1.053-1.307,9.108,9.108,0,0,0,.151-1.367c.023-.423,0-.849,0-1.273a3.288,3.288,0,0,1,.028-.545,1.323,1.323,0,0,1,1.492-1.268c.619.011,1.237.111,1.884.173-.011.16-.014.268-.028.375-.085.731-.191,1.461-.255,2.193a5.069,5.069,0,0,0,.169,1.931,1.545,1.545,0,0,0,1.091,1.088,2.13,2.13,0,0,0,1.755-.2,1.631,1.631,0,0,0,.78-1.233,12.657,12.657,0,0,0,.123-1.681c.008-.692-.049-1.386-.043-2.078a3.341,3.341,0,0,1,.15-.941,1.3,1.3,0,0,1,.929-.87,3.121,3.121,0,0,1,2.32.3c-.052.442-.1.879-.155,1.315a15.382,15.382,0,0,0-.183,3.082,4.16,4.16,0,0,0,.3,1.337,1.692,1.692,0,0,0,1.534,1.066,1.631,1.631,0,0,0,1.667-.879,2.636,2.636,0,0,0,.282-.881,26.283,26.283,0,0,0,.077-5.759,10.536,10.536,0,0,1-.025-1.582c.06-.833.381-1.147,1.2-1.279a8.077,8.077,0,0,1,2.248.145c-.019.207-.036.42-.061.63a42.478,42.478,0,0,0-.263,5.89,10.737,10.737,0,0,1-.126,2.071,3.889,3.889,0,0,1-2.809,3.085,6.389,6.389,0,0,1-4.186.03,4.081,4.081,0,0,1-.934-.442.647.647,0,0,0-.765-.025,4.856,4.856,0,0,1-1.409.588,7.135,7.135,0,0,1-3.922-.13,2.413,2.413,0,0,1-.718-.356A.894.894,0,0,0,88,352.7a8.227,8.227,0,0,1-1.428.537,6.792,6.792,0,0,1-3.843-.121,2.533,2.533,0,0,1-.694-.346.959.959,0,0,0-1.094-.06c-.333.163-.679.3-1.027.434a5.747,5.747,0,0,1-2.05.274c-.632,0-1.265.01-1.9.006a.315.315,0,0,0-.327.193,6.742,6.742,0,0,0-.311.626,4.56,4.56,0,0,1-1.566,2.03,6.937,6.937,0,0,1-3.716,1.539.926.926,0,0,0-.148.04Z" transform="translate(-62.676 -341.247)" fill="#b2b2b2"/>
    </g>
    <g id="Group_4029" data-name="Group 4029" transform="translate(43.592 331.819)">
      <path id="Path_758" data-name="Path 758" d="M43.592,343.634c.519-1.394,1.042-2.788,1.558-4.183.821-2.225,1.664-4.442,2.588-6.627.557-1.315,1.079-2.645,1.613-3.969.133-.331.182-.374.542-.321a5.34,5.34,0,0,0,1.86-.017c.286-.059.361-.011.487.3.249.609.487,1.223.721,1.837q1.055,2.766,2.1,5.534,1.168,3.085,2.332,6.17.211.559.42,1.118c.036.1.063.195.106.329a2.028,2.028,0,0,1-.289.044c-.762,0-1.524-.006-2.286.006a.4.4,0,0,1-.4-.3c-.174-.451-.331-.91-.492-1.366-.1-.278-.183-.56-.287-.834a3.677,3.677,0,0,0-.22-.441.615.615,0,0,0-.593-.341q-2.665.007-5.329,0a.485.485,0,0,0-.5.29c-.209.511-.4,1.029-.6,1.546-.148.388-.287.779-.435,1.167a.419.419,0,0,1-.462.285c-.7-.017-1.4,0-2.106-.012a1.2,1.2,0,0,1-.328-.1Zm7.142-11.765c-.065.153-.111.252-.149.353-.392,1.009-.789,2.013-1.171,3.026q-.44,1.165-.849,2.342c-.1.293-.02.446.282.524a2.886,2.886,0,0,0,.666.089c.7.012,1.4.017,2.1,0a5.574,5.574,0,0,0,.979-.1c.346-.072.4-.212.275-.541q-.716-1.906-1.43-3.814C51.213,333.14,50.985,332.534,50.734,331.869Z" transform="translate(-43.592 -328.495)" fill="#b2b2b2"/>
    </g>
    <g id="Group_4030" data-name="Group 4030" transform="translate(80.883 332.003)">
      <path id="Path_759" data-name="Path 759" d="M85.429,339.443c.016-.3.05-.6.046-.9q-.058-3.17-.127-6.341c-.02-1-.044-1.992-.065-2.988a1.331,1.331,0,0,1,.007-.208.262.262,0,0,1,.313-.266,4.028,4.028,0,0,0,.415.032c.553,0,1.106-.006,1.659-.028.4-.016.464.023.454.423-.052,2.191-.137,4.383-.156,6.574-.022,2.5.016,4.992.025,7.488a3.159,3.159,0,0,1-.01.338.248.248,0,0,1-.275.249c-.13,0-.26-.013-.389-.014a9.6,9.6,0,0,0-1.191.008.989.989,0,0,1-1.011-.451q-3.633-4.861-7.294-9.7c-.141-.186-.293-.362-.44-.542l-.069.007a3.546,3.546,0,0,0-.047.434q.02,2.443.048,4.887c.017,1.62.037,3.242.052,4.862,0,.5-.026.517-.531.507-.613-.011-1.227,0-1.842,0-.347,0-.4-.035-.385-.385.052-1.629.124-3.256.159-4.885.031-1.437.046-2.875.025-4.313-.024-1.586-.1-3.171-.148-4.756,0-.095-.006-.191-.013-.286-.022-.311.012-.339.314-.363.577-.046,1.158-.077,1.729-.166a.733.733,0,0,1,.811.335c.667.939,1.356,1.863,2.047,2.785q2.714,3.615,5.439,7.226c.119.157.255.3.383.452Z" transform="translate(-74.614 -328.648)" fill="#b2b2b2"/>
    </g>
    <g id="Group_4031" data-name="Group 4031" transform="translate(70.673 332.006)">
      <path id="Path_760" data-name="Path 760" d="M74.651,329.789c-.327.689-.637,1.336-.941,1.986-.083.178-.19.2-.375.136-.671-.228-1.345-.45-2.027-.644a2.638,2.638,0,0,0-1.313.008,1.4,1.4,0,0,0-1.15,1,1.519,1.519,0,0,0,.4,1.694,6.56,6.56,0,0,0,1.07.725c.685.388,1.4.728,2.081,1.12a3.256,3.256,0,0,1,1.646,2.459,4.613,4.613,0,0,1-2.607,5,7.734,7.734,0,0,1-4.115.739,2.013,2.013,0,0,1-.357-.067.3.3,0,0,1-.251-.29,10.581,10.581,0,0,0-.429-2c-.091-.315-.044-.376.275-.365.7.025,1.4.072,2.1.07A3.918,3.918,0,0,0,70.241,341a1.83,1.83,0,0,0,.448-3.076,7.636,7.636,0,0,0-.964-.655q-.88-.528-1.782-1.021a3.325,3.325,0,0,1-1.779-2.649,4.369,4.369,0,0,1,.608-2.994,4.151,4.151,0,0,1,2.732-1.828,6.87,6.87,0,0,1,3.487.237,13.148,13.148,0,0,1,1.412.578A1.063,1.063,0,0,1,74.651,329.789Z" transform="translate(-66.12 -328.65)" fill="#b2b2b2"/>
    </g>
    <g id="Group_4032" data-name="Group 4032" transform="translate(59.238 332.127)">
      <path id="Path_761" data-name="Path 761" d="M56.845,336.3c-.073-1.968-.148-3.88-.216-5.794-.017-.476-.018-.953-.02-1.429,0-.28.055-.337.339-.328s.57.053.855.05c.459,0,.917-.036,1.375-.05.32-.01.37.036.362.353-.042,1.524-.113,3.047-.13,4.572-.026,2.383-.019,4.765-.022,7.148a4.115,4.115,0,0,0,.063.567.208.208,0,0,0,.245.2c1.671-.046,3.343-.073,5.014-.133.534-.019,1.065-.123,1.6-.182.381-.042.434,0,.417.381-.025.578-.05,1.159-.112,1.735-.049.465-.167.549-.628.529-1.281-.054-2.562-.149-3.843-.166-1.594-.02-3.188.023-4.782.039-.1,0-.208,0-.313,0-.328,0-.385-.05-.379-.374.019-1.1.04-2.2.067-3.3C56.769,338.832,56.809,337.541,56.845,336.3Z" transform="translate(-56.608 -328.751)" fill="#b2b2b2"/>
    </g>
    <g id="Group_4033" data-name="Group 4033" transform="translate(110.178 347.304)">
      <path id="Path_762" data-name="Path 762" d="M101.245,341.426c-.018.349-.036.691-.055,1.035-.127,2.362-.171,4.725-.115,7.09.031,1.291.041,2.581.056,3.872,0,.351-.014.367-.363.368H99.547c-.423,0-.426,0-.422-.414.012-1.681.054-3.361.032-5.04-.024-1.957-.1-3.913-.159-5.869-.007-.286-.01-.572-.014-.857,0-.143.049-.238.207-.237q.959,0,1.921,0A.5.5,0,0,1,101.245,341.426Z" transform="translate(-98.984 -341.376)" fill="#b2b2b2"/>
    </g>
    <g id="Group_4034" data-name="Group 4034" transform="translate(71.733 349.071)">
      <path id="Path_763" data-name="Path 763" d="M70.4,344.542a1.691,1.691,0,0,1-1.691,1.707,1.7,1.7,0,1,1-.011-3.4A1.693,1.693,0,0,1,70.4,344.542Z" transform="translate(-67.002 -342.846)" fill="#b2b2b2"/>
    </g>
    <g id="Group_4035" data-name="Group 4035" transform="translate(95.887 345.002)">
      <path id="Path_764" data-name="Path 764" d="M88.479,341.413c.075-.314.121-.578.2-.833a1.409,1.409,0,0,1,2.081-.946,2.149,2.149,0,0,1,.968.835,1.021,1.021,0,0,1-.4,1.559,4.1,4.1,0,0,1-1.153.368c-.648.1-1.307.144-1.961.2a2.083,2.083,0,0,1-.44-.023.709.709,0,0,1-.677-.772.264.264,0,0,1,.107-.209,2,2,0,0,1,.557-.174A5.755,5.755,0,0,1,88.479,341.413Zm1.28-.057c.2-.017.391-.043.588-.048.29,0,.476-.119.508-.425-.224-.344-.521-.513-.75-.428C89.838,340.555,89.714,340.864,89.759,341.357Z" transform="translate(-87.095 -339.461)" fill="#b2b2b2"/>
    </g>
    <g id="Group_4036" data-name="Group 4036" transform="translate(109.379 344.74)">
      <path id="Path_765" data-name="Path 765" d="M98.373,339.25c.613.04,1.225.112,1.836.111s1.223-.075,1.855-.118a1.088,1.088,0,0,1-.18.976,1.944,1.944,0,0,1-1.864.8,1.83,1.83,0,0,1-1.547-.91A1.021,1.021,0,0,1,98.373,339.25Z" transform="translate(-98.319 -339.243)" fill="#b2b2b2"/>
    </g>
  </g>
</svg>
