<svg xmlns="http://www.w3.org/2000/svg" width="34.753" height="34.203" viewBox="0 0 34.753 34.203">
  <g id="office" transform="translate(-0.001 0)">
    <path id="Path_254" data-name="Path 254" d="M16.834,26.834H5.25V18.369A3.122,3.122,0,0,1,8.369,15.25h5.347a3.122,3.122,0,0,1,3.119,3.119ZM7.923,24.161h6.238V18.369a.446.446,0,0,0-.446-.446H8.369a.446.446,0,0,0-.446.446Z" transform="translate(0.095 7.369)" fill="#27a8e0"/>
    <path id="Path_255" data-name="Path 255" d="M34.033,15.448l-9.506-4.074v-5.7A3.117,3.117,0,0,0,20.59,2.67L5.862,6.685a4.912,4.912,0,0,0-3.611,4.728V31.859a4.905,4.905,0,0,0,4.9,4.9H32.1a4.905,4.905,0,0,0,4.9-4.9V19.952a4.9,4.9,0,0,0-2.969-4.505Zm-12.18,18.64H7.15a2.231,2.231,0,0,1-2.228-2.228V11.415A2.234,2.234,0,0,1,6.564,9.266l14.73-4.015a.405.405,0,0,1,.118-.016.441.441,0,0,1,.266.091.437.437,0,0,1,.176.355V34.09Zm12.475-2.228A2.231,2.231,0,0,1,32.1,34.088H24.527V14.283l8.451,3.623a2.226,2.226,0,0,1,1.351,2.048ZM17.4,14.039a1.337,1.337,0,0,1-1.337,1.337H10.715a1.337,1.337,0,1,1,0-2.673h5.347A1.337,1.337,0,0,1,17.4,14.039Zm0,5.347a1.337,1.337,0,0,1-1.337,1.337H10.715a1.337,1.337,0,1,1,0-2.673h5.347A1.337,1.337,0,0,1,17.4,19.385ZM31.655,28.3a1.337,1.337,0,0,1-1.337,1.337H28.537a1.337,1.337,0,0,1,0-2.673h1.782A1.337,1.337,0,0,1,31.655,28.3Zm0-5.347a1.337,1.337,0,0,1-1.337,1.337H28.537a1.337,1.337,0,0,1,0-2.673h1.782A1.337,1.337,0,0,1,31.655,22.95Z" transform="translate(-2.25 -2.558)" fill="#292561"/>
  </g>
</svg>
