<svg xmlns="http://www.w3.org/2000/svg" width="181.422" height="120.357" viewBox="0 0 100.422 220">
  <path id="Path_242" data-name="Path 242" d="M63.558,134.213c-1.853,2.362-3.781,4.672-5.517,7.116a4.625,4.625,0,0,1-2.443,2.02c.094-.371.191-.742.314-1.215-1.576,1.453-1.576,1.453-1.645,2.182l1.374-1.016a2.254,2.254,0,0,1-.256.752c-.268.314-.574.463-.134.96a.8.8,0,0,0,1.048.268c3.174-1.122,6.326-2.321,9.539-3.31a101.685,101.685,0,0,1,13.719-3.413,4.4,4.4,0,0,1,2.686.147,10.45,10.45,0,0,0,2.576.3c1.445.171,1.9,1.277,2.568,2.171.241.323-.188.806-.574,1.09a9.029,9.029,0,0,1-2.8,1.275c-5.093,1.555-10.193,3.085-15.278,4.663a143.306,143.306,0,0,0-24.144,10.271A8.9,8.9,0,0,0,42.7,159.5c-2.118,1.9-4.766,1.966-7.353,2.252-.925.1-1.164-.464-.977-1.275-.46-.114-.8.655-1.234.116a1.845,1.845,0,0,1-.3-1.768,57.1,57.1,0,0,1,3.341-8.371A235.658,235.658,0,0,0,47.5,117.359a4.389,4.389,0,0,1,1.342-2.289c.253.613-.217,1.164.171,1.668a1.611,1.611,0,0,1,.347-.2c.442-.122.083-2.277,1.272-.505,1.278-.321,1.393.841,1.8,1.511a3.227,3.227,0,0,1,.26,2.255c-.941,1.448-.341,2.934-.334,4.7-.248-.486-.337-.655-.468-.913.338,3.358-.719,6.4-1.393,9.49-1.709,1.187-1.24,3.28-2.019,4.855a.588.588,0,0,0,.033.719c.319-.979.615-1.9.914-2.815l.3.084q-.794,2.7-1.589,5.408c.056.034.112.065.168.1,1.283-1.581,2.626-3.118,3.833-4.754,2.845-3.863,5.806-7.649,8.322-11.739,6.743-10.957,11.434-22.715,12.815-35.56a33.12,33.12,0,0,0-5.533-22.717,19.749,19.749,0,0,0-8.068-6.768c-1.339-.632-1.938-.263-2.029,1.214-.069,1.125-1.176,1.58-1.618,2.519A49.765,49.765,0,0,1,53,68.578a28.269,28.269,0,0,1-6.154,6.674,23.492,23.492,0,0,1-9.037,4.933,16.191,16.191,0,0,1-9.933-.673,7.759,7.759,0,0,1-4.747-10.291,19.755,19.755,0,0,1,7.977-9.752c6.846-4.583,14.3-6.851,22.613-5.37.789.141,1.11-.143,1.347-.877,2.728-8.506,2.269-16.7-2.271-24.533A51.382,51.382,0,0,0,34.751,10.72,60.062,60.062,0,0,0,13.557,2.179,41.346,41.346,0,0,0,2.839,1.954C1.772,2.045.611,2.329,0,.818A42.535,42.535,0,0,1,10.564.094c9.019.737,17.124,4.13,24.843,8.6a58.465,58.465,0,0,1,16.368,13.45,40.441,40.441,0,0,1,6.3,9.652c1.9,4.527,3.326,9.17,3.085,14.249a38.146,38.146,0,0,1-1.293,8.7c-.278.979.324,1.179.95,1.449A30.576,30.576,0,0,1,71.336,63.59a35.455,35.455,0,0,1,9.52,21.4,21.063,21.063,0,0,1,.028,6.128c-.2,1,.025,2.367-.154,3.393-.481,2.743-.6,5.574-1.561,8.228a1,1,0,0,1-.574.519c-.333.171-.311.221.067.478.326.22.054.485.006.674a80.492,80.492,0,0,1-4.368,12.4,87.2,87.2,0,0,1-6.876,12.8c-.1.146-.208.282-.318.431-.56-.36.278-.709-.089-1.081a9.241,9.241,0,0,0-1.643,2.7ZM63.43,124a1.494,1.494,0,0,0-.421.262c-1.841,2.365-3.125,5.1-5.165,7.356-1.883,2.091-3.334,4.566-5.1,6.769a75.173,75.173,0,0,1-5.3,6.464,4.684,4.684,0,0,0-1.585,2.963,2.6,2.6,0,0,0,.564-.376c2.191-2.923,4.651-5.627,6.879-8.525,2.624-3.413,5.305-6.776,7.623-10.409.924-1.452,2.076-2.788,2.475-4.53a10.872,10.872,0,0,0,2.562-4.7C64.438,120.493,63.947,122.251,63.43,124ZM31.313,76.189c.448-.058,1.261-.11,2.049-.281a15.221,15.221,0,0,0,2.582-.747c7.624-3.135,12.6-9,16.482-16,.523-.943-.236-.814-.741-.819a24.933,24.933,0,0,0-8.335,1.417c-4.991,1.715-9.384,4.321-12.466,8.753a10.294,10.294,0,0,0-2.079,5.607C28.761,75.912,29.16,76.236,31.313,76.189Zm4.575,79.7A119.253,119.253,0,0,0,44.4,134.027C41.852,141.432,38.761,148.619,35.888,155.889Zm9.621-85.225a30.694,30.694,0,0,0,8.555-11.849A54,54,0,0,1,45.509,70.665Zm-15.661-8.1a10.666,10.666,0,0,0-4.313,5.346A55.49,55.49,0,0,1,29.848,62.566Z" transform="translate(181.422 52.665) rotate()" fill="#27a8e0" fill-rule="evenodd"/>
</svg>
