<svg xmlns="http://www.w3.org/2000/svg" width="88.241" height="59.46" viewBox="0 0 88.241 59.46">
  <g id="Group_4046" data-name="Group 4046" transform="translate(-9425 -8423.27)">
    <path id="Path_766" data-name="Path 766" d="M1467.613,1206.894h1.37l-3.239,15.216h-1.391Z" transform="translate(8026.308 7260.402)" fill="#b2b2b2"/>
    <path id="Path_767" data-name="Path 767" d="M1517.326,1216.783a5.473,5.473,0,0,1,.13-1.13l1.761-8.282c.478-2.2,1.739-3.326,3.608-3.326,2.13,0,3.326,1.065,3.326,2.913a5.472,5.472,0,0,1-.13,1.13l-1.761,8.282c-.456,2.239-1.739,3.326-3.652,3.326C1518.521,1219.7,1517.326,1218.63,1517.326,1216.783Zm5.565-.456,1.8-8.456a6.03,6.03,0,0,0,.087-.8c0-1.152-.7-1.8-2-1.8-1.13,0-1.87.652-2.2,2.174l-1.8,8.434a3.923,3.923,0,0,0-.109.8c0,1.174.717,1.782,2.043,1.782C1521.8,1218.457,1522.586,1217.8,1522.891,1216.326Z" transform="translate(7977.377 7263.034)" fill="#b2b2b2"/>
    <path id="Path_768" data-name="Path 768" d="M1628.531,1206.894h1.739l1.456,11.76,2.521-11.76h1.261l-3.239,15.216H1630.9l-1.565-12.977-2.782,12.977h-1.282Z" transform="translate(7877.671 7260.402)" fill="#b2b2b2"/>
    <text transform="translate(9512.609 8473.724)" fill="#b2b2b2" font-size="10" font-family="Arial"><tspan x="0" y="0"></tspan></text>
    <path id="Path_769" data-name="Path 769" d="M633.523,657.306l.15-.7h-2.428l-.757,3.556a16.6,16.6,0,0,1-5.575,2.648l.849-4.036h3.858l.477-2.167h-6.307l-1.418,6.662a16.676,16.676,0,1,1,14.98-16.59A16.6,16.6,0,0,1,633.523,657.306Z" transform="translate(8821 7793.27)" fill="#b2b2b2"/>
    <path id="Path_770" data-name="Path 770" d="M825.293,1060.07l.04-.19a16.614,16.614,0,0,1-2.541.458l-1.812,8.509h2.449l1.409-6.61h3.013l.455-2.167Z" transform="translate(8620.579 7396.197)" fill="#b2b2b2"/>
    <path id="Path_771" data-name="Path 771" d="M921.152,990.643l-2.472,11.615h2.427l3.08-14.469A16.709,16.709,0,0,1,921.152,990.643Z" transform="translate(8530.336 7462.785)" fill="#b2b2b2"/>
    <path id="Path_772" data-name="Path 772" d="M998.191,993.759l2.753-13h-2.492l.477-2.167h7.412l-.477,2.167h-2.493l-2.753,13Z" transform="translate(8456.893 7471.286)" fill="#b2b2b2"/>
    <path id="Path_773" data-name="Path 773" d="M1077.711,993.759l3.229-15.172h2.883l.477,9.081,1.951-9.081h2.167l-3.229,15.172h-2.341l-.607-11.075-2.362,11.075Z" transform="translate(8383.441 7471.286)" fill="#b2b2b2"/>
    <path id="Path_774" data-name="Path 774" d="M1198.975,993.759l3.229-15.172h6.5l-.477,2.167h-4.053l-.845,4.01h3.208l-.455,2.167h-3.208l-1,4.66h4.053l-.455,2.167Z" transform="translate(8271.432 7471.286)" fill="#b2b2b2"/>
    <path id="Path_775" data-name="Path 775" d="M1304.336,988.535a5.808,5.808,0,0,1,.152-1.344l.108-.52h2.276l-.173.932a3.024,3.024,0,0,0-.065.585c0,.672.369,1,1.127,1,.975,0,1.474-.715,1.474-2.124a4.534,4.534,0,0,0-1.322-2.883,6.189,6.189,0,0,1-1.8-4.075,4.507,4.507,0,0,1,1.062-3.121,3.66,3.66,0,0,1,2.9-1.235q3.251,0,3.251,2.8a7.309,7.309,0,0,1-.173,1.365l-.065.282h-2.276l.13-.65a3.665,3.665,0,0,0,.065-.65c0-.65-.369-.975-1.084-.975-.975,0-1.409.867-1.409,1.972a4.486,4.486,0,0,0,1.322,2.818,6.52,6.52,0,0,1,1.8,4.161,4.865,4.865,0,0,1-1.084,3.251,3.69,3.69,0,0,1-2.948,1.235C1305.42,991.352,1304.336,990.42,1304.336,988.535Z" transform="translate(8174.112 7473.909)" fill="#b2b2b2"/>
    <path id="Path_776" data-name="Path 776" d="M1409.416,988.535a5.807,5.807,0,0,1,.152-1.344l.109-.52h2.276l-.173.932a3.013,3.013,0,0,0-.065.585c0,.672.368,1,1.127,1,.975,0,1.474-.715,1.474-2.124a4.534,4.534,0,0,0-1.322-2.883,6.188,6.188,0,0,1-1.8-4.075,4.507,4.507,0,0,1,1.062-3.121,3.66,3.66,0,0,1,2.9-1.235q3.251,0,3.251,2.8a7.311,7.311,0,0,1-.173,1.365l-.065.282H1415.9l.13-.65a3.663,3.663,0,0,0,.065-.65c0-.65-.368-.975-1.084-.975-.975,0-1.409.867-1.409,1.972a4.486,4.486,0,0,0,1.322,2.818,6.521,6.521,0,0,1,1.8,4.161,4.865,4.865,0,0,1-1.084,3.251,3.69,3.69,0,0,1-2.948,1.235C1410.5,991.352,1409.416,990.42,1409.416,988.535Z" transform="translate(8077.051 7473.909)" fill="#b2b2b2"/>
    <path id="Path_777" data-name="Path 777" d="M827.079,1206.894h6.086l-.261,1.217h-4.717l-1.152,5.456H830.9l-.261,1.217h-3.869l-1.3,6.086h4.717l-.261,1.239h-6.108Z" transform="translate(8617.958 7260.402)" fill="#b2b2b2"/>
    <path id="Path_778" data-name="Path 778" d="M955.726,1206.894H957.1l-.37,13.39,5.3-13.39h1.326l-6.086,15.216H955.4Z" transform="translate(8496.418 7260.402)" fill="#b2b2b2"/>
    <path id="Path_779" data-name="Path 779" d="M1042.551,1216.783a5.472,5.472,0,0,1,.13-1.13l1.761-8.282c.478-2.2,1.739-3.326,3.608-3.326,2.13,0,3.326,1.065,3.326,2.913a5.472,5.472,0,0,1-.13,1.13l-1.761,8.282c-.456,2.239-1.739,3.326-3.652,3.326C1043.747,1219.7,1042.551,1218.63,1042.551,1216.783Zm5.565-.456,1.8-8.456a6.01,6.01,0,0,0,.087-.8c0-1.152-.7-1.8-2-1.8-1.13,0-1.869.652-2.2,2.174l-1.8,8.434a3.915,3.915,0,0,0-.109.8c0,1.174.717,1.782,2.043,1.782C1047.029,1218.457,1047.811,1217.8,1048.116,1216.326Z" transform="translate(8415.918 7263.034)" fill="#b2b2b2"/>
    <path id="Path_780" data-name="Path 780" d="M1153.755,1206.894h1.369l-2.978,13.977h4.521l-.261,1.239h-5.912Z" transform="translate(8316.213 7260.402)" fill="#b2b2b2"/>
    <path id="Path_781" data-name="Path 781" d="M1254.45,1219.458a5.671,5.671,0,0,1,.13-1.152l2.434-11.412h1.369l-2.478,11.629a3.568,3.568,0,0,0-.109.8c0,1.239.826,1.761,2,1.761,1.13,0,1.848-.674,2.152-2.13l2.587-12.064h1.326L1261.3,1219c-.456,2.152-1.674,3.326-3.586,3.326C1255.732,1222.327,1254.45,1221.349,1254.45,1219.458Z" transform="translate(8220.19 7260.402)" fill="#b2b2b2"/>
    <path id="Path_782" data-name="Path 782" d="M1393,1208.111h-2.8l.283-1.217h6.956l-.261,1.217h-2.8l-2.978,14h-1.369Z" transform="translate(8094.967 7260.402)" fill="#b2b2b2"/>
    <g id="Group_4045" data-name="Group 4045" transform="translate(9425.176 8425.33)">
      <g id="Group_4044" data-name="Group 4044" transform="translate(0 0)">
        <g id="Group_4042" data-name="Group 4042" transform="translate(2.223)">
          <path id="Path_783" data-name="Path 783" d="M880.565,683.642l.349-.161-.029-.069-.351.162-.072-.157-.006-.013.352-.163c-.021-.046-.043-.091-.065-.136l-.351.162-.042-.087.349-.161c-.261-.5-.538-.841-.656-.787l-.147.068-.066-.118.192-.089c.166-.077.561.424.883,1.119s.448,1.32.281,1.4l-.192.089C880.87,684.358,880.726,684,880.565,683.642Z" transform="translate(-861.178 -680.171)" fill="#fff"/>
          <path id="Path_784" data-name="Path 784" d="M890.57,680.136a.278.278,0,0,1,.109.077,1.221,1.221,0,0,1,.182.252,2.49,2.49,0,0,1,.136.276,2.844,2.844,0,0,1,.1.281c.025.085.046.17.064.256a1.578,1.578,0,0,0,0-.167,2.241,2.241,0,0,0-.041-.29,2.07,2.07,0,0,0-.08-.279,1.7,1.7,0,0,0-.128-.278.969.969,0,0,0-.16-.213l.1-.046a.276.276,0,0,1,.109.077,1.223,1.223,0,0,1,.182.252,2.458,2.458,0,0,1,.136.276,2.816,2.816,0,0,1,.1.282c.026.085.046.17.064.256a1.546,1.546,0,0,0,0-.167,2.232,2.232,0,0,0-.041-.29,2.088,2.088,0,0,0-.08-.279,1.722,1.722,0,0,0-.128-.278.982.982,0,0,0-.16-.213l.1-.046a.276.276,0,0,1,.11.077,1.235,1.235,0,0,1,.182.252,2.517,2.517,0,0,1,.136.276,2.833,2.833,0,0,1,.1.282c.025.085.046.17.064.256a1.575,1.575,0,0,0,0-.167,2.237,2.237,0,0,0-.041-.29,2.068,2.068,0,0,0-.08-.279,1.717,1.717,0,0,0-.128-.278.973.973,0,0,0-.16-.213l.1-.046a.276.276,0,0,1,.109.077,1.226,1.226,0,0,1,.182.252,2.5,2.5,0,0,1,.136.276,2.829,2.829,0,0,1,.1.282c.026.085.046.17.064.256a1.637,1.637,0,0,0-.008-.239,2.2,2.2,0,0,0-.046-.269,1.818,1.818,0,0,0-.228-.558.908.908,0,0,0-.128-.161c.167-.065.451.206.64.613s.212.811.046.888l-1.1.511a7.46,7.46,0,0,0-.693-1.5Z" transform="translate(-871.023 -677.922)" fill="#fff"/>
          <g id="Group_4038" data-name="Group 4038" transform="translate(12.486)">
            <path id="Path_785" data-name="Path 785" d="M825.49,662.228a22.831,22.831,0,0,1,1.593,4.386.99.99,0,0,0,.869-.526c.006-.014.012-.029.017-.046h0c.181-.578-.318-2.381-1.246-4.385s-1.98-3.551-2.537-3.787h0l-.046-.017a.989.989,0,0,0-.964.322A22.84,22.84,0,0,1,825.49,662.228Zm.811.612q-.057-.095-.112-.191a27.671,27.671,0,0,0-1.964-3.605c-.05-.1-.1-.2-.145-.3-.036-.078-.07-.156-.1-.237a.651.651,0,0,1-.033-.122.17.17,0,0,1,.011-.107c.041-.073.149-.043.21-.017a1.02,1.02,0,0,1,.22.134,2.074,2.074,0,0,1,.2.174c.057.056.111.115.163.175.115.132.222.272.324.415.085.12.167.244.245.368q.132.211.254.427.132.234.254.474t.237.486q.114.243.219.491t.2.494c.064.167.125.335.18.5s.107.336.151.507c.021.082.042.165.058.248a1.777,1.777,0,0,1,.033.234c0,.045.012.2-.075.165a.189.189,0,0,1-.049-.032.636.636,0,0,1-.059-.06,1.985,1.985,0,0,1-.141-.187C826.48,663.138,826.39,662.989,826.3,662.84Z" transform="translate(-821.335 -657.759)" fill="#fff"/>
            <path id="Path_786" data-name="Path 786" d="M848.422,664.884a15.4,15.4,0,0,1,.643,2.051,1.031,1.031,0,0,0,.771-.479c.007-.013.013-.026.019-.04h0c.214-.506-.149-2.015-.913-3.667s-1.68-2.9-2.2-3.069h0l-.043-.011a1.031,1.031,0,0,0-.864.278,15.387,15.387,0,0,1,1.147,1.817c.262.466.527.982.782,1.532S848.237,664.383,848.422,664.884Zm-.038-1.322c-.051-.076-.1-.154-.149-.233a19.961,19.961,0,0,0-1.464-2.667l-.013-.027c-.035-.075-.069-.15-.1-.227-.016-.04-.03-.08-.042-.121a.549.549,0,0,1-.025-.123.152.152,0,0,1,.025-.106.116.116,0,0,1,.106-.035.377.377,0,0,1,.119.037.85.85,0,0,1,.109.065,1.9,1.9,0,0,1,.36.345,4.2,4.2,0,0,1,.282.379c.09.135.175.274.255.415s.171.315.25.476.152.324.222.488.134.33.194.5.113.335.16.505c.023.083.044.167.061.252a1.792,1.792,0,0,1,.037.249.614.614,0,0,1,0,.1.164.164,0,0,1-.017.064.046.046,0,0,1-.034.025.08.08,0,0,1-.05-.015.326.326,0,0,1-.063-.052.977.977,0,0,1-.075-.086C848.481,663.7,848.432,663.633,848.385,663.562Z" transform="translate(-842.26 -659.45)" fill="#fff"/>
            <path id="Path_787" data-name="Path 787" d="M801.166,663.793a11.287,11.287,0,0,0,2.179,3.251.391.391,0,0,0,.061.042.409.409,0,0,0,.212.077.884.884,0,0,0,.986-.528c.005-.016.01-.033.014-.051h0c.15-.645-.476-2.722-1.556-5.056s-2.259-4.155-2.847-4.458h0l-.048-.022a.884.884,0,0,0-1.041.41.41.41,0,0,0-.078.212.371.371,0,0,0-.007.074,11.442,11.442,0,0,0,1.14,4.013c.244.086.618.662.765,1.6.006.038.011.073.014.1C801.043,663.573,801.166,663.793,801.166,663.793Zm1.109-1.444c-.089-.152-.174-.305-.26-.459a28.194,28.194,0,0,0-1.921-3.549c-.051-.1-.1-.2-.149-.306-.036-.078-.071-.156-.1-.237a.819.819,0,0,1-.06-.223.164.164,0,0,1,.024-.112.124.124,0,0,1,.108-.043.5.5,0,0,1,.22.075,1.869,1.869,0,0,1,.393.313,4.162,4.162,0,0,1,.28.311c.106.129.206.263.3.4s.191.282.28.426.176.29.259.438.173.314.255.474.162.322.24.484.151.324.222.487.142.332.208.5.129.332.189.5.117.336.17.506.1.337.141.509c.02.084.039.169.053.255a1.584,1.584,0,0,1,.024.223c0,.048,0,.185-.08.161a.152.152,0,0,1-.047-.025.445.445,0,0,1-.056-.049,1.444,1.444,0,0,1-.137-.166c-.1-.141-.2-.288-.286-.436-.046-.076-.092-.151-.137-.227S802.319,662.425,802.274,662.348Zm-.518.913-.22-.475-.229-.494-.228-.493-.22-.474-.21-.45-.2-.422q-.092-.195-.185-.389-.084-.177-.17-.353c-.071-.145-.142-.29-.215-.434-.06-.119-.121-.237-.185-.354s-.127-.227-.2-.337c.033.04.066.08.1.121.08.1.155.212.229.321q.126.188.244.38t.227.376q.1.176.2.354.109.194.215.39t.224.422q.117.224.23.451t.232.476q.118.247.232.5t.218.49q.1.236.2.473t.189.467q.1.242.187.485.082.22.16.443c.053.151.1.3.153.455s.1.308.14.464.077.294.106.443c-.016-.046-.031-.092-.047-.137-.054-.148-.113-.3-.174-.442s-.128-.3-.194-.454-.124-.281-.187-.421-.134-.3-.2-.447-.146-.32-.22-.48Zm-.6-.933-.343.159h0a3.287,3.287,0,0,0-.527-.8h0l0,0h0l0,0h0l0,0h0l-.021-.014h-.02l-.006,0h-.022l.343-.159C800.629,661.457,800.929,661.865,801.155,662.328Zm.077.165-.343.159-.023-.051-.033-.069h0l.343-.159.033.07Zm.087.2-.343.159-.018-.043.343-.158Z" transform="translate(-799.037 -657)" fill="#fff"/>
          </g>
          <g id="Group_4039" data-name="Group 4039" transform="translate(1.232 4.27)">
            <path id="Path_788" data-name="Path 788" d="M665.4,730.309a.99.99,0,0,0-.869.526.461.461,0,0,0-.017.046h0c-.181.578.318,2.381,1.245,4.385s1.98,3.551,2.537,3.787h0l.046.017a.99.99,0,0,0,.964-.322,27.452,27.452,0,0,1-3.906-8.439Zm1.692,5.9a1.95,1.95,0,0,1,.052.229.6.6,0,0,1,.007.084.186.186,0,0,1-.007.058c-.029.09-.142-.019-.174-.05a1.791,1.791,0,0,1-.157-.176c-.053-.067-.1-.135-.152-.2-.1-.144-.2-.293-.288-.443s-.182-.307-.268-.463-.168-.313-.248-.472-.158-.321-.233-.484-.148-.329-.217-.495-.135-.332-.2-.5-.112-.312-.161-.47c-.044-.141-.086-.282-.122-.425-.043-.17-.081-.342-.107-.516-.012-.079-.022-.159-.028-.238a2.044,2.044,0,0,1-.006-.262,1.023,1.023,0,0,1,.04-.254c.02-.063.066-.165.149-.149a.169.169,0,0,1,.089.061.651.651,0,0,1,.072.1c.043.074.081.151.116.229.045.1.089.2.132.3a27.684,27.684,0,0,0,1.478,3.83q.037.1.073.209C666.987,735.874,667.041,736.039,667.087,736.207Z" transform="translate(-663.487 -728.984)" fill="#fff"/>
            <path id="Path_789" data-name="Path 789" d="M653.72,751.9c-.254-.55-.477-1.086-.663-1.588a15.421,15.421,0,0,1-.643-2.051,1.03,1.03,0,0,0-.771.479c-.007.013-.013.026-.019.04h0c-.214.506.149,2.015.913,3.667s1.68,2.9,2.2,3.069h0l.043.011a1.029,1.029,0,0,0,.863-.278,15.42,15.42,0,0,1-1.147-1.817C654.239,752.969,653.974,752.452,653.72,751.9Zm-.141.9a1.1,1.1,0,0,1,.017.113.344.344,0,0,1,0,.082.084.084,0,0,1-.021.048.046.046,0,0,1-.041.01.168.168,0,0,1-.06-.029.589.589,0,0,1-.076-.064,1.767,1.767,0,0,1-.166-.189q-.08-.1-.152-.21c-.1-.146-.193-.3-.281-.449s-.174-.311-.254-.47-.157-.321-.229-.485-.14-.331-.2-.5c-.056-.153-.108-.307-.152-.463a4.207,4.207,0,0,1-.107-.46,1.906,1.906,0,0,1-.029-.5.862.862,0,0,1,.021-.125A.37.37,0,0,1,651.9,749a.116.116,0,0,1,.095-.058.152.152,0,0,1,.1.049.546.546,0,0,1,.078.1c.023.036.045.073.065.111.039.072.075.147.109.222l.012.027a19.968,19.968,0,0,0,1.086,2.842q.043.132.081.264C653.541,752.633,653.563,752.715,653.579,752.8Z" transform="translate(-651.563 -745.569)" fill="#fff"/>
            <path id="Path_790" data-name="Path 790" d="M682.881,718.252q-.033-.034-.07-.078c-.62-.719-.818-1.378-.725-1.619a11.446,11.446,0,0,0-2.321-3.466.375.375,0,0,0-.061-.042.411.411,0,0,0-.212-.078.884.884,0,0,0-.986.528c-.005.016-.01.032-.014.051h0c-.15.645.476,2.722,1.556,5.056s2.259,4.155,2.847,4.458h0a.5.5,0,0,0,.048.022.884.884,0,0,0,1.041-.41.409.409,0,0,0,.078-.212.381.381,0,0,0,.007-.074A11.284,11.284,0,0,0,683,718.623S682.912,718.388,682.881,718.252Zm-1.612.532c.029.084.057.167.084.251.055.165.107.331.147.5a1.455,1.455,0,0,1,.038.212.448.448,0,0,1,0,.075.145.145,0,0,1-.011.052c-.036.079-.139-.011-.175-.043a1.625,1.625,0,0,1-.155-.162c-.056-.066-.109-.135-.16-.2-.1-.142-.2-.288-.3-.437s-.187-.3-.276-.457-.175-.31-.259-.467-.166-.32-.245-.482-.155-.322-.228-.485-.146-.33-.214-.5-.134-.333-.2-.5-.115-.319-.167-.481-.1-.325-.144-.49-.08-.325-.11-.49a4.144,4.144,0,0,1-.056-.415,1.856,1.856,0,0,1,.015-.5.5.5,0,0,1,.085-.216.124.124,0,0,1,.1-.054.165.165,0,0,1,.1.055.824.824,0,0,1,.131.19c.042.075.079.153.115.231.048.1.093.207.137.312A28.16,28.16,0,0,0,681,718.038c.061.165.123.33.181.5C681.211,718.617,681.241,718.7,681.27,718.784Zm1.152.4q.111.239.224.478.1.222.21.443t.2.415q.109.222.221.442c.072.141.146.281.224.418.024.042.049.084.074.125-.1-.118-.184-.241-.269-.367s-.178-.269-.263-.406-.167-.273-.248-.411-.157-.272-.234-.409-.167-.3-.249-.456-.157-.3-.234-.446-.155-.305-.23-.459-.156-.322-.232-.484-.154-.331-.229-.5-.143-.323-.213-.485-.132-.311-.2-.467-.119-.3-.177-.444-.107-.277-.158-.416-.093-.255-.138-.384-.1-.277-.14-.416-.091-.287-.132-.432c-.036-.126-.069-.254-.1-.382-.011-.051-.02-.1-.029-.153.039.124.083.246.13.368s.1.247.15.37q.094.223.191.445.079.179.159.358l.177.393.193.424.207.451.219.474.228.493.229.494.22.475Zm-.776-2.515.342-.159h-.016l0,.005h0v0h0v0h0v0h0v0h0v0h0a.01.01,0,0,1,0,0h0v0h0a.158.158,0,0,0,0,.025h0s0,0,0,0h0a.028.028,0,0,0,0,0h0v0h0a3.277,3.277,0,0,0,.272.922h0l-.343.159C681.683,717.2,681.566,716.7,681.646,716.665Zm.3,1.116-.032-.07.343-.159h0l.032.07.024.051-.343.159Zm.1.208.342-.159.022.041-.343.159Z" transform="translate(-676.415 -712.954)" fill="#fff"/>
          </g>
          <path id="Path_791" data-name="Path 791" d="M653.271,788.531l-.349.161-.034-.066.35-.162-.073-.157-.006-.013-.352.163q-.032-.07-.061-.138l.351-.162-.039-.088-.349.161c-.214-.524-.294-.954-.175-1.009l.147-.068c-.016-.042-.032-.085-.047-.127l-.192.089c-.166.077-.04.7.282,1.4s.717,1.2.883,1.119l.192-.089C653.62,789.227,653.443,788.888,653.271,788.531Z" transform="translate(-651.076 -777.103)" fill="#fff"/>
          <path id="Path_792" data-name="Path 792" d="M636.559,797.238a.277.277,0,0,0-.012.133,1.231,1.231,0,0,0,.074.3,2.463,2.463,0,0,0,.123.282,2.8,2.8,0,0,0,.148.26c.048.075.1.145.153.214a1.59,1.59,0,0,1-.126-.109,2.226,2.226,0,0,1-.194-.219,2.053,2.053,0,0,1-.161-.242,1.718,1.718,0,0,1-.129-.277.971.971,0,0,1-.059-.26l-.1.046a.277.277,0,0,0-.012.133,1.223,1.223,0,0,0,.074.3,2.446,2.446,0,0,0,.122.282,2.8,2.8,0,0,0,.148.26c.048.074.1.145.153.214a1.631,1.631,0,0,1-.127-.109,2.248,2.248,0,0,1-.194-.219,2.055,2.055,0,0,1-.161-.242,1.736,1.736,0,0,1-.129-.277.978.978,0,0,1-.059-.26l-.1.046a.276.276,0,0,0-.012.133,1.223,1.223,0,0,0,.074.3,2.43,2.43,0,0,0,.122.282,2.772,2.772,0,0,0,.148.26c.048.074.1.145.154.214a1.52,1.52,0,0,1-.127-.109,2.246,2.246,0,0,1-.194-.219,2.051,2.051,0,0,1-.161-.242,1.719,1.719,0,0,1-.129-.277.968.968,0,0,1-.059-.26l-.1.046a.276.276,0,0,0-.012.133,1.23,1.23,0,0,0,.074.3,2.511,2.511,0,0,0,.122.282,2.813,2.813,0,0,0,.149.26c.048.074.1.145.153.214a1.618,1.618,0,0,1-.177-.16,2.183,2.183,0,0,1-.175-.209,1.812,1.812,0,0,1-.278-.535.9.9,0,0,1-.04-.2c-.158.085-.135.477.053.884s.481.687.647.61l1.1-.511a7.488,7.488,0,0,1-.693-1.5Z" transform="translate(-635.425 -786.5)" fill="#fff"/>
          <g id="Group_4040" data-name="Group 4040" transform="translate(12.134 4.93)">
            <path id="Path_793" data-name="Path 793" d="M794.418,723.462a.58.58,0,0,0,.086.007,1.024,1.024,0,0,0,.064.165c-.007-.055-.012-.111-.016-.166a.778.778,0,0,0,.08-.008q.049.049.1.1a.887.887,0,0,0-.041-.085l-.014-.024a.573.573,0,0,0,.14-.051.984.984,0,0,0,.043.1c-.005-.039-.009-.078-.013-.117a.511.511,0,0,0,.076-.057q.049.049.1.1c-.013-.029-.026-.057-.042-.084l-.026-.044a.581.581,0,0,0,.111-.173l.008.033a1.054,1.054,0,0,0,.076.209c-.011-.085-.018-.17-.022-.256.063.058.124.119.181.182-.013-.029-.026-.057-.042-.084a1.158,1.158,0,0,0-.068-.107q-.02-.028-.041-.055l-.022-.028-.011-.013s0-.01,0-.015c0-.027,0-.053,0-.08a1.317,1.317,0,0,0,.013-.179l.089.077.1.087s.011.008.012.013l0,.017.006.033q.007.033.015.066a1.069,1.069,0,0,0,.076.209c-.011-.085-.018-.17-.022-.256.063.058.123.119.181.182a.929.929,0,0,0-.041-.084,1.238,1.238,0,0,0-.068-.107c-.013-.018-.027-.037-.041-.055l-.023-.028-.011-.013s0-.01,0-.015c0-.091,0-.181,0-.271l.1.089.1.087s.011.008.012.013l0,.017.006.033c0,.023.01.044.015.066a1.071,1.071,0,0,0,.076.209c-.011-.085-.018-.17-.022-.256.063.058.124.119.181.182a.887.887,0,0,0-.041-.085,1.2,1.2,0,0,0-.067-.107c-.013-.018-.027-.037-.041-.055l-.022-.028-.011-.013s0-.01,0-.015c0-.091,0-.181,0-.271l.1.09.1.087s.011.008.012.013l0,.017.006.033c0,.022.01.044.015.066a1.053,1.053,0,0,0,.076.209c-.011-.085-.018-.17-.022-.256.063.058.123.119.181.182a.928.928,0,0,0-.041-.084,1.174,1.174,0,0,0-.068-.107l-.041-.055-.022-.028-.011-.013s0-.01,0-.015c0-.091,0-.181,0-.272l.1.09.1.087s.011.008.012.013l0,.017.006.033q.007.034.015.067a1.058,1.058,0,0,0,.076.209c-.011-.085-.018-.17-.022-.256.063.058.123.119.181.182a.911.911,0,0,0-.041-.085,1.161,1.161,0,0,0-.068-.106c-.013-.019-.026-.037-.041-.055l-.023-.028-.011-.013s0-.01,0-.015c0-.086,0-.173,0-.259-.04-.078-.08-.15-.118-.216-.044-.028-.089-.054-.135-.078l-.021-.011s-.009,0-.009-.007,0-.007,0-.011,0-.031,0-.047,0-.051,0-.077c-.015.04-.029.08-.041.121q-.058-.026-.119-.047l.063.049.037.029s.009.005.008.009l0,.01-.006.024a.118.118,0,1,1-.2.091l-.021-.011s-.009,0-.009-.007,0-.007,0-.011,0-.031,0-.047,0-.051,0-.077q-.023.06-.041.121c-.039-.018-.078-.033-.119-.047l.063.049.037.029s.009.005.008.01l0,.01-.006.023a1.835,1.835,0,0,0-.033.19,1.792,1.792,0,0,0-.169-.1l-.021-.011s-.009,0-.009-.007v-.011c0-.016,0-.031,0-.047s0-.051,0-.077c-.016.04-.029.08-.041.121q-.058-.027-.119-.047l.063.049.037.029s.009.005.008.009l0,.01-.006.023a.118.118,0,1,1-.2.091l-.022-.011s-.009,0-.009-.007v-.011q0-.023,0-.047c0-.025,0-.051,0-.077-.016.04-.029.08-.041.121h0c-.015-.076-.034-.157-.057-.243l.938-.434c.075-.035.292.272.483.686s.286.777.21.812l-2.071.959A1.833,1.833,0,0,0,794.418,723.462Z" transform="translate(-794.418 -721.595)" fill="#fff"/>
            <path id="Path_794" data-name="Path 794" d="M814.785,726.525l-.019-.014c0-.009,0-.017,0-.026s0-.033,0-.05c0-.058,0-.116,0-.174.064.052.127.105.19.158,0,0,0,.01,0,.015s0,.011,0,.016,0,.022,0,.032,0,.044,0,.066q0,.067.007.134c-.032-.032-.065-.063-.1-.093l0,0,0,0C814.835,726.564,814.81,726.544,814.785,726.525Z" transform="translate(-813.213 -725.904)" fill="#fff"/>
            <path id="Path_795" data-name="Path 795" d="M803.523,731.739l-.007-.006c0-.039-.006-.08-.012-.123s0-.091,0-.136c.064.052.127.1.19.159,0,0,0,.01,0,.015s0,.011,0,.016,0,.022,0,.032,0,.044,0,.066c0,.044,0,.089.007.134-.032-.032-.065-.063-.1-.093l0,0,0,0C803.573,731.778,803.548,731.758,803.523,731.739Z" transform="translate(-802.811 -730.72)" fill="#fff"/>
            <path id="Path_796" data-name="Path 796" d="M807.275,730l-.019-.015c0-.009,0-.017,0-.026s0-.033,0-.05c0-.058,0-.116,0-.174.064.052.127.105.19.159,0,0,0,.01,0,.015s0,.011,0,.016,0,.022,0,.032,0,.044,0,.067q0,.067.007.133c-.032-.032-.065-.063-.1-.093l0,0,0,0C807.324,730.039,807.3,730.019,807.275,730Z" transform="translate(-806.276 -729.114)" fill="#fff"/>
            <path id="Path_797" data-name="Path 797" d="M811.03,728.264l-.019-.015c0-.009,0-.017,0-.026s0-.034,0-.05c0-.058,0-.116,0-.174.064.052.127.1.19.158,0,0,0,.01,0,.015s0,.01,0,.016,0,.021,0,.032,0,.044,0,.066c0,.045,0,.089.007.134-.032-.032-.065-.063-.1-.093l0,0,0,0C811.08,728.3,811.055,728.283,811.03,728.264Z" transform="translate(-809.745 -727.51)" fill="#fff"/>
          </g>
          <g id="Group_4041" data-name="Group 4041" transform="translate(6.98 7.854)">
            <path id="Path_798" data-name="Path 798" d="M726.911,760.078l.357-.165c.021.061.046.128.073.2-.026-.011-.052-.021-.078-.03l.063.049.031.024.011.028,0,.019a1.908,1.908,0,0,0-.033.19,1.845,1.845,0,0,0-.169-.1l-.022-.011s-.009,0-.009-.007,0-.007,0-.011,0-.031,0-.047,0-.051,0-.077q-.023.06-.041.121l-.06-.025.008.03.033.026s.009.005.008.009l0,.01-.006.024-.005.025q.024.077.056.163s0-.01,0-.015c0-.058,0-.116,0-.174.064.052.127.105.19.158,0,0,0,.01,0,.015s0,.011,0,.016,0,.021,0,.032,0,.044,0,.066c0,.045,0,.089.006.134-.032-.032-.065-.063-.1-.093l0,0,0,0-.06-.049c.025.063.052.129.082.2l.089.078s.011.008.012.013l0,.017c0,.011,0,.022.006.033s.01.044.015.066a1.1,1.1,0,0,0,.06.176l.015.028c-.011-.083-.017-.167-.021-.25.063.058.124.119.181.182a.826.826,0,0,0-.041-.084,1.114,1.114,0,0,0-.068-.107c-.013-.019-.027-.037-.041-.055l-.022-.028-.011-.013s0-.01,0-.015c0-.091,0-.181,0-.272l.1.09.057.05q.049.121.1.248a1,1,0,0,0,.052.128s0-.007,0-.01q.076.177.161.361l-.285.132c-.075.035-.292-.272-.483-.686S726.836,760.113,726.911,760.078Z" transform="translate(-726.885 -759.913)" fill="#fff"/>
            <path id="Path_799" data-name="Path 799" d="M733.806,765.251v-.076q0-.035,0-.07c.026.067.053.138.082.211l-.063-.051Z" transform="translate(-733.278 -764.71)" fill="#fff"/>
          </g>
        </g>
        <g id="Group_4043" data-name="Group 4043" transform="translate(0 4.423)">
          <path id="Path_800" data-name="Path 800" d="M785.266,715.825l.165-.077c-.492-.877-1-.853-1.235-.739a.461.461,0,0,0-.207.64c.122.275.4.9.5,1.2s.184.447.449.376.477-.33.387-.883a2.6,2.6,0,0,0-.281-.866A.742.742,0,0,1,785.266,715.825Zm-.125,1.023s-.037.135-.278.232c0,0,.167-.127.192-.237,0,0-.092-.489-.334-.441a.351.351,0,0,0-.287.205.391.391,0,0,1,.252-.28C784.9,716.25,785.063,716.426,785.141,716.849Z" transform="translate(-770.379 -714.953)" fill="#fff"/>
          <path id="Path_801" data-name="Path 801" d="M735,732.715c-.149.115-.465.208-.768.435a1.779,1.779,0,0,1,.131-.8c.17-.35.428-.637.818-.4.35.211.4.246.4.246S735.145,732.6,735,732.715Z" transform="translate(-724.462 -730.568)" fill="#fff"/>
          <path id="Path_802" data-name="Path 802" d="M752.038,723.55c-.23-.3-.449-.45-.8-.287a.908.908,0,0,0-.494.652c-.035.159.182.208.182.208a.423.423,0,0,1,.584.125.728.728,0,0,1,.106.724,7.676,7.676,0,0,0,.253.77c.17.442.482.632.859.518s.381-.3.327-.432c0,0-.085-.419-.223-.939A4.218,4.218,0,0,0,752.038,723.55Zm.2,1.956a.444.444,0,0,1,.6-.1.545.545,0,0,0-.516.166,2.274,2.274,0,0,0,.111.658A1.01,1.01,0,0,1,752.237,725.507Z" transform="translate(-739.715 -722.567)" fill="#fff"/>
          <path id="Path_803" data-name="Path 803" d="M755.785,748.086a1.728,1.728,0,0,0,.283.575,2.66,2.66,0,0,1-.368.17c-.289.118-.434-.162-.526-.371a.8.8,0,0,0,.13-.087.716.716,0,0,0,.224.408.89.89,0,0,1-.149-.474.88.88,0,0,0,.263-.738A4.523,4.523,0,0,1,755.785,748.086Z" transform="translate(-743.813 -745.079)" fill="#fff"/>
          <path id="Path_804" data-name="Path 804" d="M769.007,720.785c-.166-.415-.364-1.025-.7-1.211a.623.623,0,0,0-.925.321,6.6,6.6,0,0,1,.455.612,2.371,2.371,0,0,1,.529,1.224,2.538,2.538,0,0,0,.208.831.956.956,0,0,0,.592.085c.252-.082.452-.285.276-.8S769.172,721.2,769.007,720.785Zm.159.942a.958.958,0,0,1,.216.516,1.216,1.216,0,0,0-.25-.405.757.757,0,0,0-.457.137c-.064.5.292.58.292.58-.443.008-.4-.629-.4-.629A.683.683,0,0,1,769.166,721.727Z" transform="translate(-755.087 -719.133)" fill="#fff"/>
          <path id="Path_805" data-name="Path 805" d="M618.391,756.029a19.838,19.838,0,0,0,8.624-2.059c2.029-1.089,1.6-1.3,2.044-1.686a1.1,1.1,0,0,0,.492-1.074,1.607,1.607,0,0,0-.363-.879,2.627,2.627,0,0,1-.2.775,12.441,12.441,0,0,0-.656-3.909,6.012,6.012,0,0,0-.386-.927l0,0c-1.769-3.634-2.9-3.914-4.4-6.8a5.034,5.034,0,0,1-.577-1.684,2.2,2.2,0,0,0-.464-1.133l-1.674.775a.52.52,0,0,1-.135.38,1.439,1.439,0,0,1-.106,1.972,1.621,1.621,0,0,0,.033-1.858.963.963,0,0,1-.3.075,1.976,1.976,0,0,1-.587,2.436,1.935,1.935,0,0,0,.508-2.432,1.1,1.1,0,0,1-.512-.124s0,.188-.451.3a.862.862,0,0,1-.115.021.875.875,0,0,1-.052.892,1.093,1.093,0,0,0-.033-.888,1.342,1.342,0,0,1-.382-.1,1.516,1.516,0,0,1,0,1.507,1.815,1.815,0,0,0-.123-1.523.568.568,0,0,0-.193.038,1.1,1.1,0,0,0-.279.149,2.273,2.273,0,0,1,.091,1.261,3.761,3.761,0,0,0-.158-1.207.956.956,0,0,0-.208.243.5.5,0,0,0,.01-.275.921.921,0,0,1-.473.449s.547-.413.346-.761a1.578,1.578,0,0,0-.14-.2.713.713,0,0,1-.684-.055.852.852,0,0,0,.815-.131.807.807,0,0,0,.341-.524c.007-.232.19-.443.057-.793a.429.429,0,0,0-.437-.294.409.409,0,0,1,.145.425.481.481,0,0,0-.225-.394,5.5,5.5,0,0,0-.673.558c.157.24.4.414.848.042a1.079,1.079,0,0,1-.328.289c-.213.125-.425-.014-.619-.278a1.224,1.224,0,0,0-.343.219c-.471.169-.647.386-.554.678s.382.991.663,1.822.943.76,2.333,1.044a1.771,1.771,0,0,1,1.071.735,15.809,15.809,0,0,1,1.8,5.477h0a17.044,17.044,0,0,0,.334,1.709,4.908,4.908,0,0,1,2.913,2.025,7.251,7.251,0,0,0-2.953-1.727c-1.036-.274-1.663-1.022-3.553-1.03a5.32,5.32,0,0,0-4.1,1.639,8.947,8.947,0,0,1,1.035-1.293,4.584,4.584,0,0,1-.795-.273c-1.686-.733-5.237-1.434-6.938,2.087a2.378,2.378,0,0,1,.254-1,5.584,5.584,0,0,0-1.655-.826,11.864,11.864,0,0,0,.015,1.749,4.542,4.542,0,0,1,.745-.133s-.309.113-.728.31a11.993,11.993,0,0,0,3.792,7.626,28.874,28.874,0,0,1,2.62-3.436,6.593,6.593,0,0,0,.884-1.248,3.726,3.726,0,0,0,.486-2.69,3.65,3.65,0,0,1-.023,2.418,13.09,13.09,0,0,0,6.159,1.491,9.19,9.19,0,0,1-6.281-1.134l-.01,0c-.681,1.657-2.208,3.261-3.245,5.112a11.867,11.867,0,0,0,2.123,1.374c1.036-1.552.972-3.645,1.43-4.074C614.766,754.82,615.915,755.85,618.391,756.029Zm2.842-16.858a1.376,1.376,0,0,0-.184-1.363A.931.931,0,0,1,621.233,739.171Zm1.554-1.749a1.245,1.245,0,0,0-.824-.42A.691.691,0,0,1,622.787,737.422Zm.132,1.175c-.625.221-1.876.868-1.876.868A3.458,3.458,0,0,1,622.919,738.6Zm.3,3.064a13.059,13.059,0,0,1-1.2-1.994A7.892,7.892,0,0,1,623.221,741.66Zm.4,2.211a22.417,22.417,0,0,1-2.174-4.077A42.363,42.363,0,0,1,623.62,743.871Zm3.48,7.146s1.54.541.779,1.721A1.586,1.586,0,0,0,627.1,751.018Zm-3.116-5.32s.112,3.849,3.513,4.789C627.5,750.487,623.645,750.184,623.984,745.7Zm-1.776,6.042c-3.782,2.126-6.981-.873-6.981-.873A10.111,10.111,0,0,0,622.208,751.74Z" transform="translate(-606.297 -734.373)" fill="#fff"/>
        </g>
      </g>
    </g>
  </g>
</svg>
