<svg xmlns="http://www.w3.org/2000/svg" width="25" height="25" viewBox="0 0 25 25">
  <g id="Group_4298" data-name="Group 4298" transform="translate(5495 -8714)">
    <g id="instagram" transform="translate(-5489.449 8720)">
      <path id="Path_977" data-name="Path 977" d="M12.476,3.546a4.407,4.407,0,0,0-.28-1.463A3.089,3.089,0,0,0,10.431.318,4.418,4.418,0,0,0,8.968.038C8.322.007,8.117,0,6.48,0S4.637.007,3.994.035a4.408,4.408,0,0,0-1.463.28,2.943,2.943,0,0,0-1.07.7,2.969,2.969,0,0,0-.7,1.067,4.419,4.419,0,0,0-.28,1.463c-.031.646-.038.851-.038,2.488S.456,7.874.484,8.517A4.407,4.407,0,0,0,.764,9.98a3.089,3.089,0,0,0,1.765,1.765,4.419,4.419,0,0,0,1.463.28c.643.028.848.035,2.486.035s1.842-.007,2.486-.035a4.406,4.406,0,0,0,1.463-.28A3.085,3.085,0,0,0,12.191,9.98a4.422,4.422,0,0,0,.28-1.463c.028-.643.035-.848.035-2.486s0-1.842-.031-2.486ZM11.39,8.47a3.306,3.306,0,0,1-.207,1.119,2,2,0,0,1-1.145,1.145,3.317,3.317,0,0,1-1.119.207c-.636.028-.827.035-2.436.035s-1.8-.007-2.436-.035a3.3,3.3,0,0,1-1.119-.207,1.856,1.856,0,0,1-.693-.45,1.875,1.875,0,0,1-.45-.693,3.318,3.318,0,0,1-.207-1.119c-.028-.636-.035-.827-.035-2.436s.007-1.8.035-2.436a3.3,3.3,0,0,1,.207-1.119,1.833,1.833,0,0,1,.452-.693,1.872,1.872,0,0,1,.693-.45,3.32,3.32,0,0,1,1.119-.207C4.685,1.1,4.876,1.1,6.485,1.1s1.8.007,2.436.035a3.306,3.306,0,0,1,1.119.207,1.854,1.854,0,0,1,.693.45,1.875,1.875,0,0,1,.45.693A3.319,3.319,0,0,1,11.39,3.6c.028.636.035.827.035,2.436s-.007,1.8-.035,2.434Zm0,0" transform="translate(0 0)" fill="#fff"/>
      <path id="Path_978" data-name="Path 978" d="M128.047,124.5a3.1,3.1,0,1,0,3.1,3.1A3.1,3.1,0,0,0,128.047,124.5Zm0,5.108a2.01,2.01,0,1,1,2.01-2.01A2.01,2.01,0,0,1,128.047,129.608Zm0,0" transform="translate(-121.567 -121.567)" fill="#fff"/>
      <path id="Path_979" data-name="Path 979" d="M363.9,89.325a.723.723,0,1,1-.723-.723A.723.723,0,0,1,363.9,89.325Zm0,0" transform="translate(-353.473 -86.514)" fill="#fff"/>
    </g>
    <circle id="Oval" cx="12" cy="12" r="12" transform="translate(-5494.5 8714.5)" fill="none" stroke="#fff" stroke-width="1"/>
  </g>
</svg>
