<svg xmlns="http://www.w3.org/2000/svg" width="25" height="25" viewBox="0 0 25 25">
  <g id="Group_4296" data-name="Group 4296" transform="translate(5519 -8688)">
    <g id="linkedin" transform="translate(-5512 8694)">
      <path id="Path_974" data-name="Path 974" d="M16.122,15.661h0V11.327c0-2.12-.456-3.753-2.935-3.753a2.573,2.573,0,0,0-2.317,1.274h-.034V7.772H8.489V15.66h2.447V11.754c0-1.028.195-2.023,1.469-2.023,1.255,0,1.274,1.174,1.274,2.089v3.841Z" transform="translate(-4.31 -3.845)" fill="#fff"/>
      <path id="Path_975" data-name="Path 975" d="M.4,7.977h2.45v7.888H.4Z" transform="translate(-0.201 -4.05)" fill="#fff"/>
      <path id="Path_976" data-name="Path 976" d="M1.419,0A1.425,1.425,0,1,0,2.838,1.419,1.419,1.419,0,0,0,1.419,0Z" fill="#fff"/>
    </g>
    <circle id="Oval" cx="12" cy="12" r="12" transform="translate(-5518.5 8688.5)" fill="none" stroke="#fff" stroke-width="1"/>
  </g>
</svg>
