<svg xmlns="http://www.w3.org/2000/svg" width="96.463" height="86.169" viewBox="0 0 96.463 86.169">
  <g id="Group_882" data-name="Group 882" transform="translate(-401.608 -24.199)">
    <path id="Path_197" data-name="Path 197" d="M4.55-4.119a.825.825,0,0,0,.215-.334Q4.813-4.6,4.9-4.6a.165.165,0,0,1,.108.06q.042.215.119.866l.143,1.123q0,.108-.131.108-.072,0-.125-.119a3.262,3.262,0,0,0-.938-1.3,2.083,2.083,0,0,0-1.356-.514,1.345,1.345,0,0,0-1.09.436,1.416,1.416,0,0,0-.367.926,1.1,1.1,0,0,0,.4.914,5.9,5.9,0,0,0,1.649.717,6.907,6.907,0,0,1,1.377.555,2.288,2.288,0,0,1,.768.753A1.889,1.889,0,0,1,5.769.964a2.284,2.284,0,0,1-.782,1.69A2.673,2.673,0,0,1,3.069,3.4a3.884,3.884,0,0,1-2.055-.639.755.755,0,0,0-.263.394Q.7,3.347.6,3.347T.459,3.1Q.417,2.858.286.785.31.713.411.713T.554.845q.92,2.312,2.568,2.312A1.672,1.672,0,0,0,4.4,2.663a1.605,1.605,0,0,0,.463-1.132A1.43,1.43,0,0,0,4.619.719a1.864,1.864,0,0,0-.657-.6A7.614,7.614,0,0,0,2.669-.386a5.3,5.3,0,0,1-1.544-.69,2.054,2.054,0,0,1-.6-.735A1.866,1.866,0,0,1,.333-2.6a1.82,1.82,0,0,1,.72-1.41,2.623,2.623,0,0,1,1.765-.615,2.973,2.973,0,0,1,.827.125A4.559,4.559,0,0,1,4.55-4.119Zm8.207,3.3.054-1.66a3.073,3.073,0,0,0-.218-1.436.8.8,0,0,0-.732-.343q-.3,0-.3-.125t.179-.113l1.741.06,1.478-.03q.173,0,.173.108t-.113.1a1.543,1.543,0,0,0-.7.131.659.659,0,0,0-.331.448,12.812,12.812,0,0,0-.131,1.807Q13.8-.392,13.8.283l-.018,1.469a1.935,1.935,0,0,0,.131.893.87.87,0,0,0,.391.323,1.767,1.767,0,0,0,.535.146q.191.024.191.113t-.162.1l-1.843-.048-1.2.042q-.209,0-.209-.108,0-.09.149-.1a1.487,1.487,0,0,0,.624-.125.671.671,0,0,0,.236-.364,3.406,3.406,0,0,0,.1-.908l.03-2.168q-.513-.036-1.044-.036-2.308,0-2.928.084Q8.737.741,8.737,1.48A8.078,8.078,0,0,0,8.773,2.5.63.63,0,0,0,9,2.855a1.1,1.1,0,0,0,.517.23q.2.042.2.131,0,.108-.131.108a.847.847,0,0,1-.119-.012q-.323-.036-1.338-.036a9.609,9.609,0,0,0-1.356.053.878.878,0,0,1-.108.007q-.137,0-.137-.092t.185-.129a1.072,1.072,0,0,0,.657-.256,3.36,3.36,0,0,0,.272-1.521q.075-1.318.075-3.2A7.619,7.619,0,0,0,7.573-3.8a.714.714,0,0,0-.7-.441q-.125-.012-.125-.1,0-.123.257-.123L9.412-4.5a1.739,1.739,0,0,1,.308.015q.051.015.051.1t-.155.11a1.194,1.194,0,0,0-.72.215A6.665,6.665,0,0,0,8.767-2.12q0,.185.018,1.3.608.048,1.431.048Q11.278-.774,12.757-.822ZM16.305-4.6l1.089.024,1.67-.024q.3,0,.3.119,0,.09-.161.113a.929.929,0,0,0-.827.478A13.1,13.1,0,0,0,18.21-.977q0,.926.048,2.085a10.232,10.232,0,0,0,.108,1.386.714.714,0,0,0,.227.37,1.244,1.244,0,0,0,.621.2q.149.018.149.113t-.138.108l-1.484-.012-1.263.018q-.209,0-.209-.119t.167-.125q.555-.012.651-.37a14.4,14.4,0,0,0,.1-2.288q0-1.864-.033-3.016a3.717,3.717,0,0,0-.194-1.41.812.812,0,0,0-.609-.323q-.167-.03-.167-.137T16.305-4.6Zm5.949.1q.358.484,1.242,1.5L25.408-.786l1.84,2.126q.06-1.081.06-2.807,0-1.3-.054-1.735a1.131,1.131,0,0,0-.4-.738,1.26,1.26,0,0,0-.857-.3q-.239,0-.239-.1a.091.091,0,0,1,.051-.087,5.618,5.618,0,0,1,.8-.054q.753-.027,1.266-.027l.806.006h.131Q29-4.5,29-4.4t-.161.11a1.5,1.5,0,0,0-.869.314,1.1,1.1,0,0,0-.317.714q-.051.466-.051,3.138l-.059,3.156q0,.239-.117.239a.2.2,0,0,1-.082-.027,6.312,6.312,0,0,1-.536-.6q-.484-.576-1.192-1.383T24.506-.045q-.89-1.081-1.123-1.332A10.2,10.2,0,0,1,22.362-2.56q-.1-.179-.185-.179-.066,0-.066.233l.012.926q0,1.762.1,2.813a4.678,4.678,0,0,0,.2,1.233,1.237,1.237,0,0,0,.364.367.935.935,0,0,0,.552.185q.394,0,.394.143,0,.108-.221.108l-2.873-.006q-.2,0-.2-.1,0-.119.2-.119a1.176,1.176,0,0,0,.98-.326,2.57,2.57,0,0,0,.245-1.383L21.8-.762a12.268,12.268,0,0,0-.1-2.189,2.827,2.827,0,0,0-.457-.806,1.218,1.218,0,0,0-.809-.535q-.2-.024-.2-.108,0-.113.263-.113Zm7.813-.1,1.089.024,1.67-.024q.3,0,.3.119,0,.09-.161.113a.929.929,0,0,0-.827.478,13.1,13.1,0,0,0-.164,2.915q0,.926.048,2.085a10.231,10.231,0,0,0,.108,1.386.714.714,0,0,0,.227.37,1.244,1.244,0,0,0,.621.2q.149.018.149.113t-.138.108L31.5,3.276l-1.263.018q-.209,0-.209-.119t.167-.125q.555-.012.651-.37a14.4,14.4,0,0,0,.1-2.288q0-1.864-.033-3.016a3.717,3.717,0,0,0-.194-1.41.812.812,0,0,0-.609-.323q-.167-.03-.167-.137T30.067-4.6Zm5.949.1q.358.484,1.242,1.5L39.169-.786l1.84,2.126q.06-1.081.06-2.807,0-1.3-.054-1.735a1.131,1.131,0,0,0-.4-.738,1.26,1.26,0,0,0-.857-.3q-.239,0-.239-.1a.091.091,0,0,1,.051-.087,5.618,5.618,0,0,1,.8-.054q.753-.027,1.266-.027l.806.006h.131q.185,0,.185.1t-.161.11a1.5,1.5,0,0,0-.869.314,1.1,1.1,0,0,0-.317.714q-.051.466-.051,3.138l-.059,3.156q0,.239-.118.239a.2.2,0,0,1-.082-.027,6.313,6.313,0,0,1-.536-.6q-.484-.576-1.192-1.383T38.268-.045q-.89-1.081-1.123-1.332A10.2,10.2,0,0,1,36.123-2.56q-.1-.179-.185-.179-.066,0-.066.233l.012.926q0,1.762.1,2.813a4.678,4.678,0,0,0,.2,1.233,1.237,1.237,0,0,0,.364.367.935.935,0,0,0,.552.185q.394,0,.394.143,0,.108-.221.108L34.4,3.264q-.2,0-.2-.1,0-.119.2-.119a1.176,1.176,0,0,0,.98-.326,2.57,2.57,0,0,0,.245-1.383l-.049-2.1a12.267,12.267,0,0,0-.1-2.189,2.827,2.827,0,0,0-.457-.806,1.218,1.218,0,0,0-.809-.535Q34-4.316,34-4.4q0-.113.263-.113ZM51.079-2.034q-.078,0-.161-.191a4.08,4.08,0,0,0-1.292-1.661,2.858,2.858,0,0,0-1.712-.585,2.632,2.632,0,0,0-1.446.451,3.233,3.233,0,0,0-1.141,1.392,4.653,4.653,0,0,0-.442,2A4,4,0,0,0,45.793,2a2.821,2.821,0,0,0,2.27,1.1,2.046,2.046,0,0,0,.824-.149,2.3,2.3,0,0,0,.642-.43,1.7,1.7,0,0,0,.364-.418,2.375,2.375,0,0,0,.063-.723A2.175,2.175,0,0,0,49.7.092a1.027,1.027,0,0,0-.833-.311l-.185.006q-.173,0-.173-.113,0-.137.191-.137l.317.012,1.35-.018,1.655-.036q.137,0,.137.125T52-.242a1.6,1.6,0,0,0-.6.161.552.552,0,0,0-.287.287,1.916,1.916,0,0,0-.054.544,8.245,8.245,0,0,1-.066,1.535,3.935,3.935,0,0,1-1.111.627,4.915,4.915,0,0,1-2.1.49,4.307,4.307,0,0,1-2.992-1.123A3.666,3.666,0,0,1,43.542-.565a4.012,4.012,0,0,1,.588-2.141,4.015,4.015,0,0,1,1.61-1.487,4.476,4.476,0,0,1,2.079-.529,4.854,4.854,0,0,1,2.138.567,1.253,1.253,0,0,0,.454.161.321.321,0,0,0,.287-.161q.09-.137.161-.137.137,0,.161.346.036.544.173,1.66a.554.554,0,0,1,.012.108Q51.2-2.034,51.079-2.034Zm8.153-2.18q-.466-.024-.657-.024A2.692,2.692,0,0,0,56.7-3.7a2.094,2.094,0,0,0-.675.959q-.03.15-.16.15a.154.154,0,0,1-.113-.058,16.384,16.384,0,0,1,.233-1.919l.364-.006q.466,0,1.248.048.842.048,2.58.048,1.78,0,2.317-.042.49-.048,1.344-.048a7.913,7.913,0,0,1,.1.9q.036.532.072.747a.821.821,0,0,1,.006.1q0,.143-.125.143a.172.172,0,0,1-.128-.051,2.836,2.836,0,0,1-.23-.337,2.739,2.739,0,0,0-.645-.732,1.738,1.738,0,0,0-.747-.32,13.637,13.637,0,0,0-1.667-.1q-.072.9-.072,2.061a32.38,32.38,0,0,0,.164,4.522q.164.687,1.174.687.245,0,.245.1,0,.119-.233.119H58.08q-.143,0-.143-.113t.281-.113a1.082,1.082,0,0,0,.762-.266,1.081,1.081,0,0,0,.334-.72q.045-.454.045-2.622Q59.358-2.411,59.233-4.214Zm5.579,3.53a3.958,3.958,0,0,1,.49-1.771,4.152,4.152,0,0,1,1.431-1.592,3.742,3.742,0,0,1,2.123-.627,3.537,3.537,0,0,1,2.733,1.183,3.9,3.9,0,0,1,1.078,2.7A4.134,4.134,0,0,1,71.471,2.1,3.789,3.789,0,0,1,68.6,3.383,3.608,3.608,0,0,1,65.9,2.26,4.048,4.048,0,0,1,64.811-.684Zm1.332-.194a7.139,7.139,0,0,0,.3,2,2.69,2.69,0,0,0,.937,1.488,2.283,2.283,0,0,0,1.366.463,2.136,2.136,0,0,0,1.882-1.145,4.942,4.942,0,0,0,.707-2.651,4.571,4.571,0,0,0-.722-2.561,2.174,2.174,0,0,0-1.885-1.1,1.976,1.976,0,0,0-1.462.589,3.525,3.525,0,0,0-.853,1.408A4.882,4.882,0,0,0,66.143-.879ZM73.83-4.543h2.992q.257,0,.257.108t-.191.125a1.046,1.046,0,0,0-.627.233,1.3,1.3,0,0,0-.308.675,12.536,12.536,0,0,0-.1,2.073,20.863,20.863,0,0,0,.111,2.64,1.717,1.717,0,0,0,.693,1.168,2.6,2.6,0,0,0,1.586.433,2.7,2.7,0,0,0,1.6-.4,1.875,1.875,0,0,0,.714-1.189A21.613,21.613,0,0,0,80.717-2.1a3.655,3.655,0,0,0-.281-1.777.933.933,0,0,0-.83-.421q-.221,0-.221-.125t.293-.119h2.389q.161,0,.161.119,0,.084-.131.1a1.12,1.12,0,0,0-.666.287,1.4,1.4,0,0,0-.278.8,16.342,16.342,0,0,0-.066,1.7,22.97,22.97,0,0,1-.1,2.383,3.082,3.082,0,0,1-.451,1.46,2.4,2.4,0,0,1-1.042.776,4.38,4.38,0,0,1-1.711.3,4.27,4.27,0,0,1-1.771-.332,1.9,1.9,0,0,1-.992-.879,3.967,3.967,0,0,1-.26-1.635l.024-1.656a10.8,10.8,0,0,0-.188-2.7.792.792,0,0,0-.809-.505q-.2,0-.2-.1Q73.579-4.543,73.83-4.543ZM87.461-.729a3.1,3.1,0,0,1,1.154.752,2.683,2.683,0,0,1,.478,1.211,2.946,2.946,0,0,0,.558,1.445,1.32,1.32,0,0,0,.934.394q.161.012.161.116t-.185.1a10.182,10.182,0,0,1-2.028-.11q-.355-.11-.529-1.221a9.3,9.3,0,0,0-.337-1.58,1.505,1.505,0,0,0-.561-.765,2.151,2.151,0,0,0-1.2-.266,4.341,4.341,0,0,0-.7.066q-.03.376-.03.781,0,1.533.042,1.983a1.019,1.019,0,0,0,.254.656,1.034,1.034,0,0,0,.708.218q.215.006.215.1,0,.117-.263.117H83.166q-.257,0-.257-.117t.2-.1a1.064,1.064,0,0,0,.63-.137.9.9,0,0,0,.278-.427,3.627,3.627,0,0,0,.1-1.047L84.11.226l.006-1.856a17.48,17.48,0,0,0-.063-1.88,1.091,1.091,0,0,0-.224-.618,1.494,1.494,0,0,0-.747-.248q-.125-.018-.125-.1t.251-.1l3.536-.078a3.256,3.256,0,0,1,2.123.561,1.736,1.736,0,0,1,.66,1.373,1.728,1.728,0,0,1-.266.937,1.671,1.671,0,0,1-.63.615A7.3,7.3,0,0,1,87.461-.729ZM85.2-.882a8.75,8.75,0,0,0,1.72-.161,1.832,1.832,0,0,0,.977-.6,1.634,1.634,0,0,0,.4-1.1,1.71,1.71,0,0,0-.448-1.177,1.832,1.832,0,0,0-1.434-.5,5.567,5.567,0,0,0-1.189.143q-.072,1.643-.072,2.616Q85.155-1.335,85.2-.882ZM95.53-4.119a.825.825,0,0,0,.215-.334q.048-.143.137-.143a.165.165,0,0,1,.108.06q.042.215.119.866l.143,1.123q0,.108-.131.108-.072,0-.125-.119a3.262,3.262,0,0,0-.938-1.3A2.083,2.083,0,0,0,93.7-4.376a1.345,1.345,0,0,0-1.09.436,1.416,1.416,0,0,0-.367.926,1.1,1.1,0,0,0,.4.914,5.9,5.9,0,0,0,1.649.717,6.907,6.907,0,0,1,1.377.555,2.288,2.288,0,0,1,.768.753A1.889,1.889,0,0,1,96.748.964a2.284,2.284,0,0,1-.782,1.69,2.673,2.673,0,0,1-1.917.747,3.884,3.884,0,0,1-2.055-.639.755.755,0,0,0-.263.394q-.048.191-.155.191T91.439,3.1Q91.4,2.858,91.265.785q.024-.072.125-.072t.143.131q.92,2.312,2.568,2.312a1.672,1.672,0,0,0,1.281-.493,1.605,1.605,0,0,0,.463-1.132A1.43,1.43,0,0,0,95.6.719a1.864,1.864,0,0,0-.657-.6,7.615,7.615,0,0,0-1.293-.508,5.3,5.3,0,0,1-1.544-.69,2.054,2.054,0,0,1-.6-.735,1.866,1.866,0,0,1-.191-.791,1.82,1.82,0,0,1,.72-1.41A2.623,2.623,0,0,1,93.8-4.627a2.973,2.973,0,0,1,.827.125A4.559,4.559,0,0,1,95.53-4.119Z" transform="translate(401.322 100.159)" fill="#b2b2b2"/>
    <path id="Path_198" data-name="Path 198" d="M-18.991,1.58l-1.289-3.824h.415l1.207,3.6h-.208l1.245-3.6h.371l1.229,3.6h-.2L-15-2.244h.388L-15.9,1.58h-.426L-17.5-1.835h.109l-1.18,3.414Zm6.522-2.114h2.021V-.19h-2.021Zm.038,1.764h2.305l-.005.35h-2.7l.005-3.824h2.617v.35h-2.218Zm4.223.35-.005-3.824h.4l.005,3.474h2.136l.005.35Zm5.834.033a2.149,2.149,0,0,1-.8-.145,1.885,1.885,0,0,1-.634-.407A1.879,1.879,0,0,1-4.223.443a1.971,1.971,0,0,1-.15-.776,1.971,1.971,0,0,1,.15-.776A1.859,1.859,0,0,1-3.8-1.725a1.915,1.915,0,0,1,.636-.407,2.149,2.149,0,0,1,.8-.145,2.177,2.177,0,0,1,.781.139A1.569,1.569,0,0,1-.97-1.72l-.257.257a1.422,1.422,0,0,0-.519-.347,1.728,1.728,0,0,0-.612-.107A1.712,1.712,0,0,0-3-1.8a1.525,1.525,0,0,0-.513.333,1.566,1.566,0,0,0-.341.5,1.585,1.585,0,0,0-.123.631A1.585,1.585,0,0,0-3.852.3,1.566,1.566,0,0,0-3.51.8,1.525,1.525,0,0,0-3,1.134a1.712,1.712,0,0,0,.639.117,1.69,1.69,0,0,0,.612-.109,1.453,1.453,0,0,0,.519-.35l.257.257a1.594,1.594,0,0,1-.617.421A2.155,2.155,0,0,1-2.374,1.612Zm4.894,0a2.156,2.156,0,0,1-.795-.145,1.887,1.887,0,0,1-.639-.41A1.889,1.889,0,0,1,.666.438a1.956,1.956,0,0,1-.15-.77,1.956,1.956,0,0,1,.15-.77,1.84,1.84,0,0,1,.423-.617,1.99,1.99,0,0,1,.636-.41,2.093,2.093,0,0,1,.795-.147,2.143,2.143,0,0,1,.8.145,1.953,1.953,0,0,1,.636.407,1.84,1.84,0,0,1,.423.617,1.971,1.971,0,0,1,.15.776,1.97,1.97,0,0,1-.15.776,1.84,1.84,0,0,1-.423.617,1.953,1.953,0,0,1-.636.407A2.143,2.143,0,0,1,2.52,1.612Zm0-.355a1.782,1.782,0,0,0,.642-.123A1.5,1.5,0,0,0,3.67.8,1.588,1.588,0,0,0,4.009.3a1.585,1.585,0,0,0,.123-.631,1.723,1.723,0,0,0-.123-.631,1.5,1.5,0,0,0-.336-.5A1.531,1.531,0,0,0,3.162-1.8a1.782,1.782,0,0,0-.642-.123,1.776,1.776,0,0,0-.634.123,1.525,1.525,0,0,0-.513.333,1.53,1.53,0,0,0-.339.5,1.617,1.617,0,0,0-.12.631A1.622,1.622,0,0,0,1.034.3,1.523,1.523,0,0,0,1.373.8a1.525,1.525,0,0,0,.513.333A1.776,1.776,0,0,0,2.52,1.257ZM6.4,1.58V-2.244h.333L8.48.738H8.305l1.732-2.983h.333V1.58H9.982V-1.638h.093L8.48,1.093H8.289L6.683-1.638h.1V1.58ZM12.937-.534h2.021V-.19H12.937Zm.038,1.764h2.305l-.005.35h-2.7l.005-3.824H15.2v.35H12.981Zm5.763.35-.005-3.474H17.389v-.35h3.092v.35H19.132l.005,3.474Zm4.217.033a2.156,2.156,0,0,1-.795-.145,1.887,1.887,0,0,1-.639-.41A1.889,1.889,0,0,1,21.1.438a1.956,1.956,0,0,1-.15-.77,1.956,1.956,0,0,1,.15-.77,1.84,1.84,0,0,1,.423-.617,1.99,1.99,0,0,1,.636-.41,2.093,2.093,0,0,1,.795-.147,2.143,2.143,0,0,1,.8.145,1.953,1.953,0,0,1,.636.407,1.84,1.84,0,0,1,.423.617,1.971,1.971,0,0,1,.15.776,1.97,1.97,0,0,1-.15.776,1.84,1.84,0,0,1-.423.617,1.953,1.953,0,0,1-.636.407A2.143,2.143,0,0,1,22.956,1.612Zm0-.355a1.782,1.782,0,0,0,.642-.123A1.5,1.5,0,0,0,24.106.8a1.588,1.588,0,0,0,.339-.5,1.585,1.585,0,0,0,.123-.631,1.723,1.723,0,0,0-.123-.631,1.5,1.5,0,0,0-.336-.5A1.531,1.531,0,0,0,23.6-1.8a1.782,1.782,0,0,0-.642-.123,1.776,1.776,0,0,0-.634.123,1.525,1.525,0,0,0-.513.333,1.53,1.53,0,0,0-.339.5,1.617,1.617,0,0,0-.12.631A1.622,1.622,0,0,0,21.47.3,1.523,1.523,0,0,0,21.808.8a1.525,1.525,0,0,0,.513.333A1.776,1.776,0,0,0,22.956,1.257Zm5.73.355a2.413,2.413,0,0,1-.817-.139,1.562,1.562,0,0,1-.6-.358L27.424.8a1.614,1.614,0,0,0,.544.33,1.951,1.951,0,0,0,.718.134,1.611,1.611,0,0,0,.587-.09.711.711,0,0,0,.333-.243A.579.579,0,0,0,29.713.6a.5.5,0,0,0-.128-.361A.885.885,0,0,0,29.249.02a3.709,3.709,0,0,0-.459-.139q-.251-.06-.5-.128a2.122,2.122,0,0,1-.462-.183.956.956,0,0,1-.339-.3.862.862,0,0,1-.128-.494.957.957,0,0,1,.15-.522,1.049,1.049,0,0,1,.462-.382,1.9,1.9,0,0,1,.8-.145,2.325,2.325,0,0,1,.639.09,1.84,1.84,0,0,1,.546.249l-.137.322a1.805,1.805,0,0,0-.522-.24,1.991,1.991,0,0,0-.533-.076,1.494,1.494,0,0,0-.568.093.72.72,0,0,0-.33.249.609.609,0,0,0-.107.352.5.5,0,0,0,.128.361.857.857,0,0,0,.339.213,4.236,4.236,0,0,0,.462.137q.251.06.5.131a2.342,2.342,0,0,1,.459.183.942.942,0,0,1,.339.3.839.839,0,0,1,.128.486.935.935,0,0,1-.153.516,1.066,1.066,0,0,1-.467.382A1.933,1.933,0,0,1,28.686,1.612Zm2.655-.033,1.748-3.824h.4L35.235,1.58h-.426L33.2-2.009h.164L31.761,1.58ZM32.029.558l.12-.328h2.223l.12.328Zm6.342,1.054a1.557,1.557,0,0,1-1.153-.421A1.689,1.689,0,0,1,36.8-.054v-2.19h.4V-.07a1.41,1.41,0,0,0,.306,1,1.133,1.133,0,0,0,.863.322A1.14,1.14,0,0,0,39.24.929a1.41,1.41,0,0,0,.306-1V-2.244h.393v2.19a1.7,1.7,0,0,1-.418,1.245A1.548,1.548,0,0,1,38.371,1.612Zm3.747-.033V-2.244h1.557A2.271,2.271,0,0,1,44.749-2a1.784,1.784,0,0,1,.718.675,1.907,1.907,0,0,1,.257.994,1.907,1.907,0,0,1-.257.994,1.784,1.784,0,0,1-.718.675,2.271,2.271,0,0,1-1.073.243Zm.4-.35h1.131a1.85,1.85,0,0,0,.882-.2,1.453,1.453,0,0,0,.582-.552,1.568,1.568,0,0,0,.208-.811,1.564,1.564,0,0,0-.208-.814,1.459,1.459,0,0,0-.582-.549,1.85,1.85,0,0,0-.882-.2H42.523Zm5.069.35V-2.244H48V1.58Z" transform="translate(435.996 108.755)" fill="#b2b2b2"/>
    <g id="Group_881" data-name="Group 881" transform="translate(428.831 24.199)">
      <path id="Path_173" data-name="Path 173" d="M438.572,24.2A20.915,20.915,0,0,0,417.681,45.09V87.326h.142v.059l8.429-.059h33.208V45.09A20.912,20.912,0,0,0,438.572,24.2Zm0,1.865a18.955,18.955,0,0,1,5.73.882l-.842,2.066a.7.7,0,1,0,1.3.527l.864-2.12a19.037,19.037,0,0,1,5.943,3.789l-6.158,6.233a.7.7,0,1,0,1,.982L452.55,32.2a19.075,19.075,0,0,1,3.733,5.946l-13.56,5.711a7.016,7.016,0,0,0-2.776-2.508l3.572-8.77a.7.7,0,0,0-1.3-.527l-3.584,8.8a6.86,6.86,0,0,0-1.125-.207L437.429,26.1C437.809,26.077,438.19,26.064,438.572,26.064ZM419.546,45.09a19.058,19.058,0,0,1,.447-4.1l3.931,1.639a.675.675,0,0,0,.268.054.7.7,0,0,0,.269-1.345l-4.112-1.716a18.988,18.988,0,0,1,2.559-5.315L430.7,42a.7.7,0,0,0,.984-1l-7.935-7.826a19.018,19.018,0,0,1,12.279-6.939l.085,14.41a6.959,6.959,0,0,0-1.13.21l-4.505-10.7a.7.7,0,0,0-1.289.544l4.488,10.655a7,7,0,0,0-3.648,4.573l-2.353-1.172-8.135,4.06Zm0,5.809,8.135-4.06,3.848,1.914,3.447,1.829-15.429,7.633Zm3.767,27.919a8.887,8.887,0,0,0-3.767.945V71.58c.334-.3,1.391-1.219,3.013-2.444a4.827,4.827,0,0,0-.312,1.385c-.025.285-.063.567-.1.852a24.716,24.716,0,0,0-.269,3.022,5.893,5.893,0,0,0,.1,1.455c.042.173.054.3-.108.406a.158.158,0,0,0-.046.058.156.156,0,0,0,.064.256,1.094,1.094,0,0,0,.1.044,3.119,3.119,0,0,0,.866.2.121.121,0,0,1,.122.112,2.217,2.217,0,0,0,.119.391,3.175,3.175,0,0,0,1.248,1.548A9.675,9.675,0,0,0,423.312,78.818Zm-.185-1.844q.036.127.081.249c-.031-.081-.058-.164-.083-.251s-.024-.127.086-.11C423.1,76.847,423.1,76.891,423.128,76.974Zm-.254-.323a1.973,1.973,0,0,1-.889-.183c-.039-.017-.054-.037-.052-.058,0,.02.014.041.052.056a1.907,1.907,0,0,0,.889.183c.171-.014.34-.042.512-.066C423.214,76.606,423.045,76.635,422.874,76.65Zm-.774-.859c0-.034.037-.027.081-.014C422.137,75.765,422.1,75.758,422.1,75.792Zm1.031.217c-.161-.027-.32-.063-.479-.1l-.113-.032c-.007-.046-.015-.095-.027-.144.219.058.439.11.661.152.163.029.222.037.249-.025a.217.217,0,0,0,.049.144.189.189,0,0,0,.095.058C423.419,76.049,423.275,76.032,423.131,76.008Zm.269-4.014-.527-.442c-.029.508-.093,1.611-.132,2.251,0,.066-.007.125-.008.183.01.164.019.329.034.493a.742.742,0,0,1-.1.515,1.357,1.357,0,0,1-.124.259.137.137,0,0,1-.117.066.132.132,0,0,1-.069-.02.141.141,0,0,1-.047-.186.911.911,0,0,0,.113-.252c0-.1,0-.2,0-.3V74.4a15.712,15.712,0,0,1,.108-1.661c.042-.74.085-1.468.085-1.468l.008-.154.007-.119.942.793a.136.136,0,0,1-.174.208Zm4.961,5.415a.131.131,0,0,0-.061.024,1.8,1.8,0,0,1-.976.332l-.068.005a1.5,1.5,0,0,1-.232-.008,1.22,1.22,0,0,1-.847-.456c-.015-.02-.032-.037-.049-.059a.19.19,0,0,0-.151-.088c-.132-.014-.266-.027-.4-.042-.242-.025-.483-.051-.725-.069-.137-.012-.276-.022-.413-.036-.3-.025-.6-.058-.9-.1-.008-.032-.019-.063-.024-.093a.7.7,0,0,0-.1-.24l.056-.007a9.492,9.492,0,0,1,.977-.095c.105,0,.212,0,.318.01.611.054,1.223.105,1.834.156.266.022.534.044.8.068h0v0h0q1.019.089,2.039.18c.51.047,1.025.068,1.529.151.2.032.4.069.593.108.13.025.261.056.391.083-.23-.036-.462-.068-.7-.085-.356-.025-.723-.064-1.077-.1l-.388-.041c-.034,0-.066-.005-.1-.005a.647.647,0,0,0-.606.4c-.008.024-.022.044-.032.068l-.637-.064A.332.332,0,0,0,428.361,77.409ZM423.7,75.8a1,1,0,0,1,.02-.141,1.627,1.627,0,0,1,.19,0,.905.905,0,0,0,.2-.014.689.689,0,0,1-.025.078c-.008.025-.017.051-.024.076A3.226,3.226,0,0,1,423.7,75.8Zm.508.237a.2.2,0,0,0,.068-.059l-.012.022A.141.141,0,0,1,424.207,76.037Zm.1-.11,0,0,.008-.017-.008.019Zm5.1,1.585c.069.012.066.046.041.105C429.474,77.558,429.477,77.524,429.408,77.512Zm.423.579a4.5,4.5,0,0,0-.677.227c-.061.027-.117.052-.169.08.052-.027.108-.053.169-.08a2.605,2.605,0,0,0,.435-.7.1.1,0,0,1,.1-.075l.042,0c.491.049.986.107,1.48.144a13.2,13.2,0,0,1,1.589.252l.027.005A7.616,7.616,0,0,0,429.831,78.092Zm7.362,1.35a17.336,17.336,0,0,0-3.464-1.321c.2.036.41.064.616.081,1.213.091,2.429.141,3.641.2.091,0,.13.03.146.12a4.811,4.811,0,0,0,.594,1.682l.064.107A17.575,17.575,0,0,0,437.194,79.442Zm-2.745-1.675a7.865,7.865,0,0,0,.918.085c.613.017,1.226.036,1.839.046-.613-.01-1.226-.027-1.841-.044A8.26,8.26,0,0,1,434.448,77.767Zm4.617,2.708,0,0c-.025-.036-.051-.071-.076-.108a4.411,4.411,0,0,1-.408-.769,4.411,4.411,0,0,0,.408.769c.025.037.051.073.078.11l.234.141Zm11.619-1.712a8.624,8.624,0,0,0-3.575.557,11.561,11.561,0,0,0-1.468.694,7.88,7.88,0,0,1-2.032.83l-.031.008-.108.029-.024.007a1.936,1.936,0,0,0,.254-.247l.027-.034a2.111,2.111,0,0,1-.425.318c-.268.069-.55.135-.843.186a1.358,1.358,0,0,1-.771-.374,3.143,3.143,0,0,1-.835-1.48,7.355,7.355,0,0,1-.188-3.1,6.621,6.621,0,0,1,.706-2.292,2.787,2.787,0,0,1,.989-1.131,1.308,1.308,0,0,1,1.661.178l.024.025a2.321,2.321,0,0,0-.195-.215,2.173,2.173,0,0,0-1.314-.571,4.729,4.729,0,0,0-.493-.027,5.367,5.367,0,0,0-1.558,2.8l-.508,2.029-.039.005c-.031.119-.059.237-.09.354a2.975,2.975,0,0,1-.373.987.446.446,0,0,1-.078.088.221.221,0,0,1-.112.053.313.313,0,0,1-.071.005c-.132-.01-.266-.015-.4-.019l-.147-.007a.655.655,0,0,0-.41-.52l.076,0c.323,0,.647-.008.971-.014l.141,0c.044,0,.086,0,.112-.037a.1.1,0,0,0,.015-.03c.032-.124.064-.247.1-.371.041-.156.083-.312.124-.467a32.369,32.369,0,0,1-3.816.257A11.819,11.819,0,0,1,433.366,77l-.141-.01c-.391.034-1.462.081-1.689-.369-1.03-.068-2.06-.154-3.086-.252-.351-.036-.7-.071-1.05-.108-.5-.052-1.011-.11-1.514-.18s-.991-.132-1.487-.2l-.007,0c-.029,0-.058-.008-.075.014.007-.027.017-.054.025-.081a.629.629,0,0,0,.046-.2.141.141,0,0,0,.017-.041.188.188,0,0,0,.025-.068.158.158,0,0,0,.025-.1l0-.017a.191.191,0,0,0,.027-.075.33.33,0,0,0,.025-.112.206.206,0,0,0,.034-.137l.008-.039a3.335,3.335,0,0,0,.141-.486l.029-.115,6.743.727.071.406c.01.047.017.1.027.144l.029.135a3.862,3.862,0,0,0,.2.7c.142.191.788.234,1.3.2v0c-.03-.108.03-.256-.044-.32a.256.256,0,0,0-.146-.044H432.9a1.105,1.105,0,0,1-.169-.015.468.468,0,0,1-.417-.332c-.073-.249-.171-.489-.254-.735l-.024-.073v0l.095-2.325-.159-.014h0c.108-.007.215-.017.322-.03a.942.942,0,0,0,.569-.241.865.865,0,0,0,.09-.1c.146-.2.288-.4.422-.611s.261-.408.391-.613l.008.019a.32.32,0,0,0,.307.161l.413.005c-.181.252-.356.51-.518.776-.02.034-.042.066-.063.1a3.016,3.016,0,0,0-.442,1.028c-.042.252-.078.5-.108.759-.068.559-.11,1.121-.137,1.685-.008.193-.017.386-.022.579,0,.11.01.222.019.334l0,0,.068-.007.025,0,.024.005c2.012.52,5.782.078,6.416,0l.464-1.855a7.348,7.348,0,0,1,1.167-2.461,2.356,2.356,0,0,1-1.279-1.059l0,0a.142.142,0,0,0-.08-.019l-.213.005c-.073,0-.147.005-.222.005l-.005,0h0a.338.338,0,0,0,.053-.135l.071,0c.086,0,.173-.007.259-.007a.1.1,0,0,0,.076-.022,2.719,2.719,0,0,1-.1-.649,4.385,4.385,0,0,1,.135-1.136c.012-.049.024-.1.037-.147a.626.626,0,0,1-.09.024,5.519,5.519,0,0,1-.852.051c-.215.01-.428.019-.642.036a.281.281,0,0,0-.161.058,2.561,2.561,0,0,0-.523.576c-.095.151-.058.22.117.232.388.024.776.049,1.164.068a.157.157,0,0,1,.174.147,4.946,4.946,0,0,1,.064.689c0,.073-.027.088-.093.088h0c-.3,0-.608,0-.913,0h-.972l-2.181-.012v0c-.376-.005-.752-.012-1.128-.014-.08,0-.088-.02-.047-.083a11.531,11.531,0,0,1,1.661-2.149.373.373,0,0,1,.274-.108c.471-.01.942-.03,1.413-.046.428-.014.859-.022,1.287-.039.537-.022,1.072-.047,1.609-.075h.014c.017-.047.034-.091.052-.135a1.711,1.711,0,0,1,.29-.513,5.948,5.948,0,0,1,2.6-.344c.385-.012.749-.022.84-.044a.143.143,0,0,0,.063-.029l.086-.159.008-.047-.014,0-.036-.005-.118-.02c-.279-.047-.559-.095-.838-.139l-.093-.015-.154-.025-.439.051c-.2.039-.41.068-.617.091l-.075.007c-.078.008-.157.017-.235.024l-.115.01-.259.02.137-.027c-1.187.125-2.8.283-4.017.357-1.912.119-2.175.4-2.652.9l-.051.051-.024.025.366.02c.18,0,.359,0,.539-.008v0l-.029.022-.105.107h0c-.21,0-.418,0-.628-.007-.271-.008-.542-.019-.813-.032l-.075,0h0l-.014,0a.153.153,0,0,0-.108.047,4.7,4.7,0,0,0-.93,1.182c-.174.337-.339.681-.5,1.025-.064.132-.127.264-.193.4l-.058.119a5.312,5.312,0,0,1-.349.63.238.238,0,0,1-.105.1.2.2,0,0,1-.108.02c-.127-.008-.256-.005-.383-.01l-.063,0-.622-.041-.727-.051c-1.311-.093-2.622-.2-3.924-.39-.225-.032-.381-.122-.418-.361-.012-.069-.032-.137-.044-.207a13.784,13.784,0,0,1-.119-1.518,3.635,3.635,0,0,1,.08-1.033,3.125,3.125,0,0,1,.122-.4.111.111,0,0,0,.01-.051c0-.037-.041-.037-.086-.041-.134-.008-.269-.019-.4-.029s-.276-.017-.413-.029a.276.276,0,0,0-.039,0,.082.082,0,0,0-.066.046l-.015.027a3.35,3.35,0,0,0-.152.522,6.794,6.794,0,0,0,.024,2.629c.039.2.081.4.132.6a.388.388,0,0,0,.3.3h0l-.381,2.087.027,0-.129.518-.02.091a.164.164,0,0,0-.029.108v0a.167.167,0,0,0-.039.108c-.059.185-.064.185-.227.181-.295-.008-.4.019-.454.195.056-.54.093-1.084.13-1.624a15.943,15.943,0,0,0,0-3.242c-.027-.2-.013-.212-.2-.266s-.376-.11-.564-.169c.007-.044.014-.088.022-.132l-.232-.071c-.069-.022-.183-.025-.13-.161a3.219,3.219,0,0,1,.735-1.645,3.936,3.936,0,0,1,.349-.4.1.1,0,0,1,.139-.02c.1.058.21.112.318.163l.29.054a1.848,1.848,0,0,1,.96-.769c.4-.115.738-.181.967-.224a18.942,18.942,0,0,1,2.132-.227c.195-.02.388-.039.581-.058.364-.036.733-.049,1.1-.073a3.883,3.883,0,0,0,.618-.1c.117-.029.232-.063.347-.1a.613.613,0,0,0-.068-.279,3.14,3.14,0,0,1,.063-.7c.007-.029.012-.058.02-.086l.107,0c.029,0,.059,0,.086,0s.059,0,.086,0a.7.7,0,0,0,.093.246l.142.232c.047-.046.1-.093.144-.141q.5-.48,1.011-.954c.64-.594.964-.887,1.38-1.226.293-.239.542-.429.713-.556a1.128,1.128,0,0,1,.237-.168c.157-.037.352-.08.578-.117a19.065,19.065,0,0,1,3.548-.051c.476.005,1.013.01,1.8.041.22.008.44.02.661.03q1.481.071,2.955.207l.147.014c.457.044.913.093,1.37.141a.556.556,0,0,1,.085.015c.047.015.056.041.044.095-.005.017-.012.037-.02.063-.027.073-.051.147-.078.22-.456,1.252-.942,2.49-1.492,3.7-.024.051-.022.078,0,.095a.143.143,0,0,0,.066.027c.2.036.391.078.586.124.086.02.174.041.261.064a.188.188,0,0,0,.049.007h0a.067.067,0,0,0,.052-.027.163.163,0,0,0,.032-.064c.323-1.052.659-2.1,1.031-3.137a7.581,7.581,0,0,1,.367-.9c.034-.066.068-.122.166-.12.136,0,.271.007.4.012.186.007.371.015.557.025.439.024.877.059,1.314.112.244.029.486.063.728.1q.6.089,1.191.213c.146.03.291.061.435.095a16.56,16.56,0,0,1,2.2.664l.036.017.03.014a.3.3,0,0,1,.041.029c.124.119.246.241.359.368l.005.007a6.384,6.384,0,0,1,.273.642,6.394,6.394,0,0,1-.044,1.221,2.952,2.952,0,0,1-.132.556,2.135,2.135,0,0,1-.173.393.168.168,0,0,1-.176.1c-.108-.005-.219-.007-.329-.008l-.408,0c.015.036.032.066.047.1a.844.844,0,0,0,.086.135c.012.014.022.03.034.044a.976.976,0,0,1,.185.285,1.97,1.97,0,0,1,.086.251c.019.069.032.139.049.21.044.185.083.371.117.557.063.351.117.7.185,1.053a1.327,1.327,0,0,1,.01.483,1.426,1.426,0,0,1-.127.388c-.029.058-.059.113-.095.171a5.129,5.129,0,0,0-.349.688c-.037.086-.073.171-.107.257-.044.113-.083.227-.12.34-.169.539-.261,1.1-.393,1.646-.042.178-.081.357-.132.532a2.4,2.4,0,0,1-.208.523l-.005.017a.094.094,0,0,0-.008.029v.005a.2.2,0,0,0,.007.042.769.769,0,0,1-.095.65h0c-.061.007-.122.012-.183.022-.667.107-1.333.215-2,.32q-.529.084-1.057.164c.352-.056.7-.108,1.055-.164l1.026-.164a.759.759,0,0,0-.22-.032h0a7.181,7.181,0,0,0-1.137.125c-.127.02-.256.041-.383.059-.578.081-1.16.174-1.722.266l-.185.029c-.335.053-.694.113-1.1.186a1.57,1.57,0,0,0-.481.166c.022-.005.044-.012.066-.015a1.5,1.5,0,0,0-.151.034.456.456,0,0,1-.5-.32l-.02-.051c-.019-.047-.036-.1-.058-.144-.012-.03-.01-.076-.039-.095l-.024-.005c-.007,0-.01-.005-.019,0h-.008a.924.924,0,0,0-.339.049l-.005.014a.387.387,0,0,0-.005.046c-.014.151-.027.3-.042.452l-.01.1c-.007.056.008.081.049.088a.134.134,0,0,0,.029,0c.115,0,.232.005.346-.005.163-.015.325-.015.484-.046a1.077,1.077,0,0,0,.158-.041c.061,0,.124,0,.185-.01l.569-.088-.569.088c-.061.008-.124.007-.185.012l-.029.007-.012.007a1.628,1.628,0,0,1-.97.2h-.068l-.054,0a.393.393,0,0,1-.054,0l-.039-.008c-.025.183-.054.362-.09.537a.746.746,0,0,0,.183.019l.124,0h0a2.115,2.115,0,0,0,1.277-.3.965.965,0,0,1,.391-.152c.361-.066.723-.129,1.086-.185.632-.1,1.265-.2,1.9-.293a11.009,11.009,0,0,1,1.45-.181h0l.017,0c.051,0,.081.014.1.053a.13.13,0,0,1,.012.049,3.1,3.1,0,0,0,.429,1.191,1.484,1.484,0,0,0,.437.476C451.707,78.761,451.177,78.761,450.684,78.762Zm-24.992-5.24a.222.222,0,0,0-.066-.08.878.878,0,0,0-.169-.093.972.972,0,0,1-.173-.1.261.261,0,0,1-.078-.112.281.281,0,0,1-.022-.142.3.3,0,0,1,.112-.212.333.333,0,0,1,.246-.066.9.9,0,0,1,.12.025l.073.024.005,0,.041.146h-.01l-.037-.049a.311.311,0,0,0-.091-.078.3.3,0,0,0-.12-.036.256.256,0,0,0-.191.047.223.223,0,0,0-.083.152.187.187,0,0,0,.022.112.28.28,0,0,0,.124.1q.168.076.229.112a.355.355,0,0,1,.114.112.272.272,0,0,1,.042.186.357.357,0,0,1-.02.086.251.251,0,0,1-.042.078.323.323,0,0,1-.063.064.365.365,0,0,1-.073.042.361.361,0,0,1-.112.014c-.051,0-.083,0-.1,0l-.3-.029.032-.329.012,0a.3.3,0,0,0,.054.235.356.356,0,0,0,.227.086.311.311,0,0,0,.225-.046.219.219,0,0,0,.091-.158A.179.179,0,0,0,425.692,73.522Zm.322-.7c-.007-.015-.029-.025-.064-.03l0-.012.291.029,0,.012a.123.123,0,0,0-.066.012.093.093,0,0,0-.024.061l-.042.442.618.061.041-.4a.235.235,0,0,0,0-.1c-.005-.017-.027-.027-.063-.03v-.012l.29.029,0,.012a.1.1,0,0,0-.053,0,.041.041,0,0,0-.025.022A.4.4,0,0,0,426.9,73l-.086.865a.357.357,0,0,0,0,.085.065.065,0,0,0,.019.029.1.1,0,0,0,.051.017v.01l-.288-.027v-.012a.077.077,0,0,0,.064-.014.211.211,0,0,0,.027-.1l.042-.429-.62-.063-.044.435a.428.428,0,0,0,0,.078.058.058,0,0,0,.019.03.112.112,0,0,0,.054.017l0,.012-.291-.029V73.9a.068.068,0,0,0,.088-.069l.09-.908A.229.229,0,0,0,426.014,72.821Zm1.159.112c-.008-.017-.032-.027-.068-.027l0-.012.3.029,0,.012a.13.13,0,0,0-.051,0,.046.046,0,0,0-.034.024.424.424,0,0,0-.014.083l-.085.865a.335.335,0,0,0,0,.088.05.05,0,0,0,.019.027.129.129,0,0,0,.058.017v.012l-.3-.03,0-.012c.037,0,.061,0,.073-.014a.243.243,0,0,0,.024-.1l.085-.857A.247.247,0,0,0,427.172,72.933Zm.42.08c-.014-.044-.056-.068-.124-.071l0-.012.212.02.757.984.08-.8c0-.042,0-.069-.015-.08a.1.1,0,0,0-.058-.02v-.012l.219.022v.01a.1.1,0,0,0-.071.015.114.114,0,0,0-.027.08l-.1,1.028-.806-1.047-.083.833a.207.207,0,0,0,0,.059.042.042,0,0,0,.014.029.22.22,0,0,0,.058.019l0,.012-.217-.022,0-.01a.1.1,0,0,0,.075-.014.226.226,0,0,0,.024-.1l.075-.762A.4.4,0,0,0,427.592,73.012Zm1.245.086c-.008-.019-.031-.027-.066-.029v-.012l.3.029,0,.012a.123.123,0,0,0-.049,0,.053.053,0,0,0-.036.024.624.624,0,0,0-.013.083l-.085.867a.418.418,0,0,0,0,.086.052.052,0,0,0,.02.027.115.115,0,0,0,.058.017l0,.012-.3-.03,0-.012c.037.005.063,0,.073-.014a.235.235,0,0,0,.024-.1l.085-.857A.235.235,0,0,0,428.837,73.1Zm.422.078c-.015-.044-.056-.068-.124-.071l0-.012.212.022.757.984.078-.8c.005-.042,0-.069-.015-.08a.1.1,0,0,0-.058-.02l0-.012.218.022,0,.012a.094.094,0,0,0-.071.014.124.124,0,0,0-.027.081l-.1,1.026-.806-1.047-.081.833a.181.181,0,0,0,0,.061.052.052,0,0,0,.015.027.182.182,0,0,0,.056.019l0,.012-.217-.02,0-.012c.039,0,.064,0,.075-.014a.226.226,0,0,0,.024-.1l.076-.762A.428.428,0,0,0,429.259,73.177Zm1.262.828a.446.446,0,0,0,.071.164.423.423,0,0,0,.124.127.551.551,0,0,0,.157.066.981.981,0,0,0,.141.027l.061,0a.339.339,0,0,0,.13-.005c.019-.01.029-.034.034-.076l.017-.171a.082.082,0,0,0-.015-.069.086.086,0,0,0-.058-.02l0-.012.293.029,0,.012a.093.093,0,0,0-.068.012.121.121,0,0,0-.024.073l-.017.178a.15.15,0,0,0,.007.078c.007.017.024.025.049.029l.015,0v.01l-.456-.044a.831.831,0,0,1-.227-.051.579.579,0,0,1-.19-.129.606.606,0,0,1-.146-.213.509.509,0,0,1-.041-.247.549.549,0,0,1,.107-.261.609.609,0,0,1,.247-.2.669.669,0,0,1,.34-.051.984.984,0,0,1,.344.108l.034.135-.012,0a.443.443,0,0,0-.149-.141.528.528,0,0,0-.222-.071.449.449,0,0,0-.374.129.61.61,0,0,0-.18.395A.652.652,0,0,0,430.521,74Zm7.064,2.071a.358.358,0,0,1-.024-.059.484.484,0,0,1-.034-.239v0l0-.007a.539.539,0,0,1,.02-.1c.21-.759.466-1.5.715-2.249.108-.32.217-.642.332-.979l-4.273.581-.019,0a.133.133,0,0,1-.085-.239l.008-.008a.134.134,0,0,1,.058-.024l4.9-.666a.121.121,0,0,1,.073.012l.007,0a.121.121,0,0,0,.058-.019.055.055,0,0,0,.02-.039l0-.022.01-.229c0-.108.007-.215.014-.323a.341.341,0,0,0,.13-.056l0,.017c0,.069,0,.139-.007.207,0,.051,0,.1,0,.154-.008.217-.014.435-.02.654-.019.594-.036,1.191-.047,1.787-.005.281,0,.562-.007.843a4.668,4.668,0,0,1-.066.716,1.249,1.249,0,0,1-.047.181.981.981,0,0,1-.1.222.874.874,0,0,1-.384.337,2.038,2.038,0,0,1-.545.159c-.174.027-.351.049-.527.068-.078.008-.158.015-.235.022a11.975,11.975,0,0,1-1.846.135,13.957,13.957,0,0,1-1.77-.108.136.136,0,0,1,.037-.269,13.585,13.585,0,0,0,3.868-.086C437.721,76.329,437.653,76.2,437.585,76.076ZM422.95,68.39a3.848,3.848,0,0,1,.322-.412,3.677,3.677,0,0,1,.369-.359,3.677,3.677,0,0,0-.369.359A3.848,3.848,0,0,0,422.95,68.39Zm2.981-1.353h0l-.254.058Zm-.254.005a.71.71,0,0,1,.254-.005h0A.7.7,0,0,0,425.677,67.042Zm20.573-4.69c.113.012.225.024.339.039l-.007.025.007-.024C446.475,62.376,446.362,62.364,446.25,62.352Zm.312.088c-.015.012-.032.019-.046.029l-.024.015.024-.015C446.529,62.459,446.546,62.451,446.562,62.44Zm.672.251a.957.957,0,0,1,.452-.1l.08,0c.122.007.247.019.373.029l-.015.008h0a.143.143,0,0,0-.041.058c-.017.039-.061.044-.105.042h-.03C447.708,62.715,447.471,62.7,447.234,62.691Zm4.2.227a3.064,3.064,0,0,1,.5.107c.078.02.154.042.23.064l.066.019c.078.025.158.049.237.071a.186.186,0,0,1,.064.029l.008.007.005.008.01.015.01.025,0,.01h0a.039.039,0,0,1,0,.036.031.031,0,0,1-.02.014.056.056,0,0,1-.024,0l-.024-.005c-.254-.063-.508-.122-.762-.183l-.151-.036c-.088-.022-.086-.107-.151-.181Zm1.136.554c.313.1.632.183.947.281-.313-.1-.633-.183-.947-.281-.144-.046-.291-.085-.439-.12C452.281,63.387,452.428,63.426,452.572,63.472Zm-.6-.161.014,0c-.491-.113-.992-.193-1.487-.3l-.014,0c-.688-.144-1.382-.252-2.075-.373.583.054,1.2.141,1.861.261A17.381,17.381,0,0,1,451.969,63.311Zm-1.292-.4c-.791-.142-1.582-.291-2.378-.417-.037-.007-.117.014-.105-.066s.068-.059.119-.054l.086,0,.161.024c.749.122,1.494.259,2.241.393a.087.087,0,0,1,.017.086C450.791,62.986,450.72,62.918,450.677,62.911Zm2.849.845a5.952,5.952,0,0,1,.916.354.728.728,0,0,1,.081.049.917.917,0,0,0-.081-.049A5.952,5.952,0,0,0,453.526,63.756Zm1.026,1.2c.02.024.042.046.061.068s.029.039.042.058c-.014-.019-.027-.039-.042-.058S454.573,64.984,454.552,64.961Zm-2.71,12.867a3.245,3.245,0,0,1-.242-.811.1.1,0,0,1,0-.058.116.116,0,0,0,0,.058A3.225,3.225,0,0,0,451.842,77.827Zm.74.876h0a1.246,1.246,0,0,1-.52-.469,1.246,1.246,0,0,0,.52.469Zm.716-3.562q-.089.541-.152,1.086c-.051.423-.047.42-.469.534-.071.019-.144.036-.217.053s-.149.03-.225.044l-.041.007-.01,0c-.061.01-.122.019-.185.027a.611.611,0,0,0-.329-.413l-.466.073c.506-.081,1.016-.152,1.519-.254l.1-.019.017,0c.015-.041.041-.042.073-.019.091.015.1-.047.108-.112a16.92,16.92,0,0,1,.315-1.931,7.377,7.377,0,0,1,.513-1.567c.034-.071.064-.144.1-.215.022-.041.044-.08.068-.119a2.286,2.286,0,0,1,.373-.513,1.45,1.45,0,0,1,.2-.174,1.007,1.007,0,0,1,.371-.164.724.724,0,0,1,.818.369c.019.032.036.066.054.1l.014.02a.055.055,0,0,0,.024.02.084.084,0,0,0,.061-.008,2.654,2.654,0,0,0,.266-.141.936.936,0,0,0,.024.141,1.956,1.956,0,0,0,.3-.2.129.129,0,0,1,.037-.029.091.091,0,0,1,.051-.008h.008a.288.288,0,0,0-.012.083.455.455,0,0,0,.11.285l.03.042a.738.738,0,0,1,.113.22.756.756,0,0,1,.025.251c-.034.633-.056,1.27-.08,1.905l0,.025h0a.1.1,0,0,1-.015.058.127.127,0,0,1-.042.042c-.056.039-.11.08-.164.119l-.288.207-.022.014a.086.086,0,0,1-.085.019l-.017-.005c-.046-.029-.027-.073-.025-.113.005-.069.01-.141.014-.212a.663.663,0,0,0-.081-.008.776.776,0,0,0-.088.008,3.98,3.98,0,0,0-.444-1.67,2.275,2.275,0,0,0-.259-.469,1.877,1.877,0,0,0-.149-.185.974.974,0,0,0-.19-.158.906.906,0,0,0-.478-.151h0a.181.181,0,0,0-.173.088,5.087,5.087,0,0,0-.683,1.529A12.9,12.9,0,0,0,453.3,75.141Zm1.609-6.622c-.019-.081.008-.119.091-.115s.149.007.224.012c.286-.019.288-.019.347.259q.107.488.208.979c.034.169.008.2-.163.2a2.437,2.437,0,0,0-.273.005c-.127.015-.181-.044-.2-.159-.054-.279-.112-.557-.168-.837C454.95,68.746,454.933,68.633,454.908,68.519Zm1.731,2.031c.005.056.007.113.007.173,0,.159-.005.32-.007.479,0-.159,0-.32.007-.479C456.646,70.663,456.644,70.606,456.639,70.55Zm-.032-.578a.953.953,0,0,1-.115-.776l0-.008a.178.178,0,0,1,.014-.042l.012-.015a.033.033,0,0,1,.024-.008c.027,0,.034.027.041.051l.005.017a1.977,1.977,0,0,1,.161.877l0,.029-.005.059-.005.007-.01.012-.007.008C456.681,70.111,456.642,70.042,456.607,69.972Zm-.144-1.092a1.253,1.253,0,0,0-.522-.9l-.019-.017-.014-.012.014.012.019.017a1.248,1.248,0,0,1,.523.9l0,.037Zm-1.841,9.337a.67.67,0,0,1-.347-.285l-.01-.015-.015-.027A2.154,2.154,0,0,1,454,77.3a3.471,3.471,0,0,1-.085-.39,6.931,6.931,0,0,1-.078-.932c0-.061,0-.124,0-.185a6.3,6.3,0,0,1,.269-1.765c.022-.069.044-.137.069-.2a2.206,2.206,0,0,1,.345-.635.793.793,0,0,1,.241-.208c.249-.135.513-.049.715.254a1.953,1.953,0,0,1,.151.3,5.037,5.037,0,0,1,.217,1.175,6.794,6.794,0,0,1,.01.932,6.1,6.1,0,0,1-.418,1.982l-.149.266,0,0h0l-.015.015-.014.015-.017.022A.547.547,0,0,1,454.622,78.217Zm2.974-.471c-.762.229-1.541.422-2.325.578l-.037.008a4.435,4.435,0,0,0,.688-1.763,7.247,7.247,0,0,0,.132-1.236l0-.069c0-.044.01-.064.031-.064a.1.1,0,0,1,.049.02.256.256,0,0,0,.134.052.15.15,0,0,0,.093-.036c.2-.158.4-.31.6-.466a.111.111,0,0,0,.027-.173.267.267,0,0,1-.041-.19c.029-.589.046-1.18.086-1.77a.8.8,0,0,0-.171-.586.536.536,0,0,1-.113-.393c.017-.269.019-.535.034-.8.007-.1-.042-.191-.007-.291a1.856,1.856,0,0,0-.029-1.326,2.333,2.333,0,0,1-.178-.473,1.19,1.19,0,0,0-.5-.849.259.259,0,0,1-.1-.188,15.374,15.374,0,0,0-.451-1.785,7.1,7.1,0,0,0-.742-1.7.521.521,0,0,0-.217-.232,5.115,5.115,0,0,0-.549-.225,1.589,1.589,0,0,1-.825-.53.905.905,0,0,0-.454-.286,18.653,18.653,0,0,0-2.363-.6,21.492,21.492,0,0,0-2.571-.32c-.037,0-.075,0-.11,0a1.493,1.493,0,0,0-.716.169.49.49,0,0,1-.229.056.9.9,0,0,1-.093-.007c-.828-.113-1.665-.147-2.5-.2-.437-.03-.877-.027-1.314-.037q-.6-.013-1.2-.014c-.42,0-.838.005-1.258.019-.188.005-.378.015-.566.015-.125,0-.217-.005-.24-.007a22.457,22.457,0,0,0-3.181.32c-.115.02-.229.044-.229.044-.11.022-.22.044-.329.071a3.164,3.164,0,0,0-.981.368c-.144.1-.285.2-.422.3l-.024.019c-.291.222-.572.459-.845.7q-.727.638-1.426,1.306c-.051.049-.1.095-.152.144a.277.277,0,0,1-.1.083l-.014.005c-.034-.058-.017-.122-.027-.181-.037-.212-.078-.251-.286-.295a1.545,1.545,0,0,0-.329-.032c-.088,0-.176.005-.264.012-.276.022-.361.1-.445.366a3.383,3.383,0,0,0-.112,1.008.3.3,0,0,0,.049.188c.046.058.012.069-.039.075-.149.014-.295.039-.444.042-.794.017-1.585.061-2.376.122-.632.047-1.26.119-1.888.2a60.189,60.189,0,0,1,6.057-3.535c6.509-3.289,16.225-6.5,25.83-3.374Zm0-20.346a28.31,28.31,0,0,0-3.394-.772,1.808,1.808,0,0,0,.818-1.511v-2.1a.467.467,0,0,0-.933,0v2.1a.871.871,0,0,1-.41.738V51.946a.467.467,0,0,0-.933,0v2.961a.9.9,0,0,1-.439-.772v-.65a.467.467,0,0,0-.933,0v.65a1.839,1.839,0,0,0,1.372,1.775v.52c-6.609-.737-13.834.716-21.259,4.314V59.719a1.843,1.843,0,0,0,1.375-1.778v-.65a.467.467,0,1,0-.933,0v.65a.9.9,0,0,1-.442.776V55.784a.467.467,0,0,0-.933,0v3.882a.875.875,0,0,1-.412-.742v-2.1a.467.467,0,0,0-.933,0v2.1a1.814,1.814,0,0,0,1.345,1.748v.4a.484.484,0,0,0,.019.122,64.179,64.179,0,0,0-11.024,7.132V60.3l28.811-14.256,9.239,6.068Zm0-7.522L448.487,43.9l-4.8,2.376a6.983,6.983,0,0,0-.332-1.162l13.394-5.642a18.969,18.969,0,0,1,.849,5.621Z" transform="translate(-417.681 -24.199)" fill="#b2b2b2"/>
      <path id="Path_174" data-name="Path 174" d="M426.1,37.4a.7.7,0,0,0,.264-1.348l-2.932-1.194a.7.7,0,1,0-.528,1.3l2.933,1.194A.685.685,0,0,0,426.1,37.4Z" transform="translate(-414.363 -16.842)" fill="#b2b2b2"/>
      <path id="Path_175" data-name="Path 175" d="M432.051,36.146a.7.7,0,0,0,.989-.005l2.187-2.212a.7.7,0,1,0-1-.984l-2.187,2.212A.7.7,0,0,0,432.051,36.146Z" transform="translate(-407.857 -18.276)" fill="#b2b2b2"/>
      <path id="Path_176" data-name="Path 176" d="M435.363,57.643c.034-.278.059-.564.076-.867a7.547,7.547,0,0,0-.073-1.639q-.041-.277-.107-.554a3.022,3.022,0,0,0-.786-1.411,1.2,1.2,0,0,0-.828-.352,1.23,1.23,0,0,0-.649.193,2.665,2.665,0,0,0-.935,1.074,6.473,6.473,0,0,0-.689,2.241,7.219,7.219,0,0,0,.183,3.035,3,3,0,0,0,.794,1.411,1.156,1.156,0,0,0,1.416.178,2.008,2.008,0,0,0,.567-.474,4.81,4.81,0,0,0,.616-1.135,6.559,6.559,0,0,0,.395-1.546,6.538,6.538,0,0,1-.395,1.546,4.865,4.865,0,0,1-.613,1.131,3.529,3.529,0,0,0,.369-.544,6.277,6.277,0,0,0,.732-2.293C435.412,57.638,435.388,57.639,435.363,57.643Zm-.208-.683a5.549,5.549,0,0,1-.65,2.417,2.049,2.049,0,0,1-.779.845.99.99,0,0,1-1.211-.152,2.5,2.5,0,0,1-.654-1.162,5.906,5.906,0,0,1-.149-2.464,5.34,5.34,0,0,1,.561-1.822,2.234,2.234,0,0,1,.774-.886,1,1,0,0,1,1.262.135,2.605,2.605,0,0,1,.669,1.236A5.6,5.6,0,0,1,435.155,56.96Z" transform="translate(-408.239 -4.346)" fill="#b2b2b2"/>
      <path id="Path_177" data-name="Path 177" d="M438.774,57.39a7.8,7.8,0,0,1,.08-1.853c.017-.1.032-.2.049-.3.051-.317.1-.635.132-.954q.02-.191.036-.381c.015-.2.025-.4.034-.6.012-.266.014-.535.01-.8-.005-.359-.02-.722-.054-1.092v0a.391.391,0,0,1-.063.066.361.361,0,0,1-.2.071c-.027,0-.054,0-.08.005a4.1,4.1,0,0,1-.578-.015,1.11,1.11,0,0,1-.18-.044l-.024-.008a.132.132,0,0,1-.073-.058.1.1,0,0,1-.014-.039.094.094,0,0,1,.051-.1l.025-.02a.4.4,0,0,1,.134-.063.57.57,0,0,1,.058-.019,1.753,1.753,0,0,1,.31-.034l.029,0h0c.112,0,.225,0,.337.005a.31.31,0,0,1,.11.036.13.13,0,0,0,.064.019h0l.007,0,.015-.005,0,0,.019-.019h0a.08.08,0,0,0,.007-.029.418.418,0,0,0-.024-.174l-.012-.049a4.1,4.1,0,0,0-.122-.451,1.674,1.674,0,0,0-.183-.381.348.348,0,0,0-.049-.059.289.289,0,0,0-.191-.073h-.015c-.483-.007-.965,0-1.448-.007-.18,0-.357-.005-.537-.01-.677-.015-1.353-.046-2.031-.053a.255.255,0,0,0-.091.008l0,0c-.024.012-.034.039-.017.1l.02.08a8.425,8.425,0,0,1,.247,1.667c.007.12.015.239.022.357.024.447.027.893.022,1.34q0,.259-.01.518c0,.154-.008.307-.012.461-.007.185-.017.371-.024.556-.051,1.187-.142,2.369-.281,3.548-.01.088-.007.122.095.086a3.921,3.921,0,0,1,.517-.134c.137-.025.276-.047.415-.068.637-.088,1.277-.171,1.916-.254.3-.039.6-.078.894-.119a2.319,2.319,0,0,0,.263-.034l0,0,.012,0a.4.4,0,0,0,.075-.027.509.509,0,0,0,.307-.462A.719.719,0,0,0,438.774,57.39Z" transform="translate(-406.169 -6.376)" fill="#b2b2b2"/>
      <path id="Path_178" data-name="Path 178" d="M440.194,50.246l0-.007a.876.876,0,0,1-.076-.154.132.132,0,0,0-.149-.095h-.029c-.144,0-.286,0-.43-.005h-.061c-.8-.017-1.6-.03-2.393-.049-.047,0-.075,0-.085.017s0,.039.027.08a1.6,1.6,0,0,1,.157.33l0,.005v0c.014.039.025.076.037.115a7.013,7.013,0,0,1,.235,1.96c0,.095,0,.188,0,.283a14.367,14.367,0,0,1-.2,2.395q-.03.178-.056.356a9.555,9.555,0,0,0-.1,1,6.086,6.086,0,0,0,.014.786c.005.051.007.1.007.154a.732.732,0,0,1-.183.5l.058-.007c.115-.015.208-.029.3-.039a5.766,5.766,0,0,1,1.219-.086c.156.019.313.015.471.025a.421.421,0,0,0,.44-.254c.02-.042.042-.083.061-.127l.022-.051a6.8,6.8,0,0,0,.239-.849c.054-.237.1-.474.151-.711s.107-.454.169-.677a6.873,6.873,0,0,1,.322-.9c.061-.137.13-.269.2-.4.108-.2.22-.4.318-.61a.408.408,0,0,0,.041-.263c-.034-.186-.049-.376-.078-.562-.042-.263-.088-.523-.134-.784l-.029-.166c-.005-.037-.01-.063-.025-.075s-.042-.007-.093.017a.9.9,0,0,1-.644.041c-.049-.014-.1-.03-.149-.049-.088-.034-.09-.127-.015-.19a.289.289,0,0,1,.107-.059c.056-.015.112-.027.168-.037a1.031,1.031,0,0,1,.395,0,.629.629,0,0,1,.108.025l.025.008c.022.007.042.01.049-.008h0a.072.072,0,0,0,0-.041L440.574,51a1.269,1.269,0,0,0-.269-.618.842.842,0,0,1-.107-.135Z" transform="translate(-404.346 -6.346)" fill="#b2b2b2"/>
      <path id="Path_179" data-name="Path 179" d="M435.5,54.45a3.151,3.151,0,0,1,.23.442,4.213,4.213,0,0,1,.332,1.526c.005.125.008.252.007.381-.008.64-.024,1.28-.042,1.921,0,.042.007.064.022.078a.142.142,0,0,0,.078.012c.285-.012.293-.017.318-.251.025-.249.051-.5.074-.744.068-.7.124-1.357.144-1.875.036-.676.068-1.294.083-1.882a20.523,20.523,0,0,0-.075-2.678c-.022-.213-.047-.427-.083-.637-.024-.144-.054-.286-.09-.427-.02-.08-.039-.158-.063-.235l-.007-.022-.015-.034a.1.1,0,0,0-.049-.044l-.015-.008c-.219-.058-.439-.107-.659-.152-.127-.027-.254-.052-.381-.078l-.039,0a.492.492,0,0,1-.361.447,1.506,1.506,0,0,1-.171.022c-.156.012-.391.019-.723.029a8.432,8.432,0,0,0-2.41.257,4.724,4.724,0,0,0-.615,2.28c.042.628.078,1.121,1.353,1.69.063-.066.124-.124.181-.174s.1-.083.146-.117a2.442,2.442,0,0,1,.464-.356l.01-.007.063-.034a1.6,1.6,0,0,1,1.33-.144A1.843,1.843,0,0,1,435.5,54.45Zm-1.152-2.988a.657.657,0,0,1,.583-.527,8.96,8.96,0,0,1,.977-.042c.095,0,.19,0,.313-.005.171,0,.207.022.207.224a1.3,1.3,0,0,1-.3.83.172.172,0,0,1-.188.063c-.456-.1-.921-.146-1.382-.217C434.323,51.752,434.276,51.691,434.347,51.462Z" transform="translate(-408.451 -6.482)" fill="#b2b2b2"/>
      <path id="Path_180" data-name="Path 180" d="M435.685,49.384q-1.347-.1-2.7-.156-2.073-.084-4.148-.046a6.543,6.543,0,0,1-1.082.374,8.044,8.044,0,0,1-1.5.174l-.843.064a18.945,18.945,0,0,0-2.107.224c-.369.069-.737.158-1.1.259-.076.119-.149.239-.215.364a.163.163,0,0,0-.02.053l0,.015,0,.017c.008.012.031.015.059.019l.022,0c.247.017.495.037.742.056v0a10.978,10.978,0,0,0-.029,1.868,1.351,1.351,0,0,0,1.275,1.236l3.259.176.074,0a1.341,1.341,0,0,0,1.175-.688c.417-.737,1.218-1.949,2.039-2.063h0c.191.014.381.027.572.037a.317.317,0,0,0,.129-.015l.031-.017.029-.015-.014-.014c.064-.066.124-.129.181-.19.508-.539.815-.864,2.833-.987,1.409-.086,3.345-.285,4.537-.413-.085-.014-.169-.027-.254-.039Q437.169,49.5,435.685,49.384Zm-8.36,4.431-3.257-.178a1.071,1.071,0,0,1-.669-.281l4.6.269A1.072,1.072,0,0,1,427.325,53.814Zm1-.549a1.015,1.015,0,0,1-.066.1l-5.079-.3a1.138,1.138,0,0,1-.1-.263l5.35.283C428.392,53.149,428.358,53.208,428.324,53.266Zm.264-.44-5.549-.295c-.012-.161-.017-.327-.019-.488l5.869.335C428.783,52.526,428.683,52.675,428.588,52.825Zm.5-.708-6.065-.347c0-.095.005-.186.008-.273l6.277.364C429.234,51.943,429.159,52.029,429.088,52.117Zm.884-.827h0a2.626,2.626,0,0,0-.4.313l-6.522-.379c.01-.146.02-.269.027-.354l6.387.381h.008l.517.03Z" transform="translate(-414.7 -6.878)" fill="#b2b2b2"/>
      <path id="Path_181" data-name="Path 181" d="M437.163,50.273c.059.379.11.759.146,1.14.007.078.027.1.11.1.278,0,.554.017.833-.007.032,0,.066,0,.1-.008l.276.015.689.039c.073,0,.119,0,.11-.1l-.046-.395c-.015-.119-.032-.237-.049-.357-.012-.076-.02-.152-.034-.229s-.034-.173-.051-.259c-.1-.523-.229-1.042-.369-1.555-.049-.176-.1-.352-.151-.527a.445.445,0,0,0-.4-.39c-.174-.029-.347-.059-.522-.091-.247-.042-.495-.086-.742-.125-.124-.02-.249-.039-.374-.054-.085-.012-.115,0-.086.1.151.574.279,1.153.395,1.734Q437.086,49.789,437.163,50.273Z" transform="translate(-404.567 -8.056)" fill="#b2b2b2"/>
      <path id="Path_182" data-name="Path 182" d="M434.342,51.519l.037,0c.03,0,.051-.014.054-.042a.139.139,0,0,0,0-.053c-.017-.115,0-.181.051-.217a.3.3,0,0,1,.176-.032l.061,0c.042,0,.085,0,.125.007a.143.143,0,0,0,.063,0c.036-.008.049-.037.044-.1,0-.042-.01-.085-.017-.129l-.007-.066,0-.029a.553.553,0,0,1,0-.091l0-.014a.418.418,0,0,1,.029-.093l0-.005a5.266,5.266,0,0,1,.356-.6,3.128,3.128,0,0,1,.347-.432.472.472,0,0,1,.146-.1.489.489,0,0,1,.125-.037c.024,0,.049,0,.073-.007a4.161,4.161,0,0,1,1.272.034.426.426,0,0,1,.373.361c.015.076.027.154.037.232a1,1,0,0,1,.014.122,2.312,2.312,0,0,1-.169,1.164l-.007.014a1.284,1.284,0,0,1-.08.141l.4.022.122.008c.078.005.108-.02.112-.095a.056.056,0,0,0,0-.017c0-.232-.015-.464-.031-.7-.01-.159-.022-.318-.041-.479-.073-.683-.18-1.36-.31-2.034-.042-.22-.088-.442-.135-.662a.181.181,0,0,0-.051-.107.187.187,0,0,0-.108-.037h0q-.567-.048-1.135-.066c-.088,0-.176-.008-.264-.01h-.03a.556.556,0,0,0-.251.027c-.063.032-.093.1-.156.256-.225.562-.425,1.131-.616,1.706-.229.689-.445,1.382-.667,2.075-.015.047-.014.076.037.085Z" transform="translate(-406.167 -8.127)" fill="#b2b2b2"/>
      <path id="Path_183" data-name="Path 183" d="M438.2,47.879q.142.442.269.889.119.406.225.818c.032.117.059.235.09.352.11.428.215.859.3,1.292a.2.2,0,0,0,.041.091.127.127,0,0,0,.122.037h.017a1.565,1.565,0,0,1,.2.005c.044,0,.088.008.134.01l.01,0v-.012c.046,0,.091.007.137.008.1,0,.18,0,.239,0a.226.226,0,0,0,.188-.088,1.185,1.185,0,0,0,.122-.3,4.842,4.842,0,0,0,.176-1.714.782.782,0,0,0-.164-.493c-.014-.015-.022-.032-.037-.047-.108-.112-.212-.23-.327-.337-.029-.024-.056-.049-.085-.071a.286.286,0,0,0-.073-.044c-.3-.112-.6-.21-.9-.3-.2-.063-.4-.124-.6-.181l-.024-.007-.014-.005-.012,0a.05.05,0,0,0-.046.01c-.025.024,0,.053.008.08Z" transform="translate(-403.464 -7.843)" fill="#b2b2b2"/>
      <path id="Path_184" data-name="Path 184" d="M436.323,49.7l.032,0a.193.193,0,0,0,.1,0,.077.077,0,0,0,.034-.036.419.419,0,0,0,.042-.188.786.786,0,0,0,0-.09c0-.044-.036-.03-.063-.02l-.017.005a2,2,0,0,0-.5.178.634.634,0,0,0-.154.095.5.5,0,0,0-.051.053h0l.1,0c.117,0,.227,0,.334,0Z" transform="translate(-405.144 -6.75)" fill="#b2b2b2"/>
      <path id="Path_185" data-name="Path 185" d="M437.33,50.732a.242.242,0,0,0-.037-.007h-.012l-.031,0a3.774,3.774,0,0,0-.391-.012c-.054,0-.107.007-.161.015l-.047.008a.329.329,0,0,0-.164.075h0c.064.012.127.02.188.029a3.188,3.188,0,0,0,.61,0c.024,0,.059,0,.076-.02a.056.056,0,0,0,.008-.025v-.005a.048.048,0,0,0-.024-.047l0,0Z" transform="translate(-404.636 -5.81)" fill="#b2b2b2"/>
      <path id="Path_186" data-name="Path 186" d="M438.861,50.709a.985.985,0,0,0-.215.056h0a1.044,1.044,0,0,0,.581.029.124.124,0,0,0,.034-.008.03.03,0,0,0,.022-.029h0c0-.024-.022-.036-.041-.039A1.257,1.257,0,0,0,438.861,50.709Z" transform="translate(-403.138 -5.817)" fill="#b2b2b2"/>
      <path id="Path_187" data-name="Path 187" d="M434.305,57.188l.674-.243-.178-.366Z" transform="translate(-406.149 -1.738)" fill="#b2b2b2"/>
      <path id="Path_188" data-name="Path 188" d="M434.55,56.2a4.351,4.351,0,0,1-.422.759l.589-.517Z" transform="translate(-406.272 -2)" fill="#b2b2b2"/>
      <path id="Path_189" data-name="Path 189" d="M433.526,57.549l.759-.356-.258-.226Z" transform="translate(-406.69 -1.469)" fill="#b2b2b2"/>
      <path id="Path_190" data-name="Path 190" d="M433.651,57.188l.619-.575-.288-.149Z" transform="translate(-406.603 -1.818)" fill="#b2b2b2"/>
      <path id="Path_191" data-name="Path 191" d="M440.555,56.168l.611-.166-.052-.238Z" transform="translate(-401.814 -2.303)" fill="#b2b2b2"/>
      <path id="Path_192" data-name="Path 192" d="M441,55.512l-.169-.22-.23.44Z" transform="translate(-401.783 -2.631)" fill="#b2b2b2"/>
      <path id="Path_193" data-name="Path 193" d="M440.523,54.871l-.166.933.467-.616Z" transform="translate(-401.952 -2.923)" fill="#b2b2b2"/>
      <path id="Path_194" data-name="Path 194" d="M440.173,56.177l.544-.135-.044-.348Z" transform="translate(-402.079 -2.352)" fill="#b2b2b2"/>
      <path id="Path_195" data-name="Path 195" d="M439.741,53.947c-.093-.015-.137.086-.166.169a2.688,2.688,0,0,0-.1.351,2.831,2.831,0,0,0-.059.745,3.168,3.168,0,0,0,.068.545.464.464,0,0,0,.017.044c.02.059.049.113.112.12.007,0,.012,0,.019,0,.09,0,.117-.09.146-.164a2.158,2.158,0,0,0,.152-.788,2.273,2.273,0,0,0-.061-.816C439.85,54.065,439.826,53.958,439.741,53.947Z" transform="translate(-402.604 -3.565)" fill="#b2b2b2"/>
      <path id="Path_196" data-name="Path 196" d="M432.711,54.663c-.093-.015-.137.086-.168.169a3.012,3.012,0,0,0-.095.351,2.909,2.909,0,0,0-.061.745,3.37,3.37,0,0,0,.069.545.449.449,0,0,0,.017.044c.019.059.049.113.112.12.007,0,.01,0,.017,0,.091,0,.119-.09.147-.164a2.156,2.156,0,0,0,.152-.788,2.272,2.272,0,0,0-.061-.816C432.819,54.781,432.8,54.674,432.711,54.663Z" transform="translate(-407.482 -3.068)" fill="#b2b2b2"/>
    </g>
  </g>
</svg>
