<svg xmlns="http://www.w3.org/2000/svg" width="37.533" height="37.533" viewBox="0 0 37.533 37.533">
  <g id="jigsaw" transform="translate(0)">
    <path id="Path_265" data-name="Path 265" d="M304.481,0h-11.45A1.032,1.032,0,0,0,292,1.032V5.779a1.032,1.032,0,0,0,1.721.769,1.409,1.409,0,1,1,0,2.1A1.032,1.032,0,0,0,292,9.418V14.11a1.032,1.032,0,0,0,1.032,1.032h3.088a3.477,3.477,0,0,0,3.29,4.067l.136,0a3.475,3.475,0,0,0,3.421-4.07h3.143a1.032,1.032,0,0,0,1.032-1.032V2.66A2.663,2.663,0,0,0,304.481,0Zm.6,13.078h-3.714a1.032,1.032,0,0,0-.769,1.721,1.409,1.409,0,1,1-2.1,0,1.032,1.032,0,0,0-.769-1.721h-3.66V11.021a3.482,3.482,0,0,0,.6.051h0a3.474,3.474,0,0,0,3.472-3.608,3.477,3.477,0,0,0-4.067-3.29V2.065h10.417a.6.6,0,0,1,.6.6Z" transform="translate(-269.609 0)" fill="#27a8e0"/>
    <path id="Path_266" data-name="Path 266" d="M27.188,115.078H22.441a1.032,1.032,0,0,0-.769,1.721,1.409,1.409,0,1,1-2.1,0,1.032,1.032,0,0,0-.769-1.721h-3.66v-2.056a3.477,3.477,0,0,0,4.067-3.29,3.475,3.475,0,0,0-4.067-3.557v-3.143A1.032,1.032,0,0,0,14.11,102H2.66A2.663,2.663,0,0,0,0,104.66v22.9a2.663,2.663,0,0,0,2.66,2.66h22.9a2.663,2.663,0,0,0,2.66-2.66V116.11a1.032,1.032,0,0,0-1.032-1.032ZM2.065,104.66a.6.6,0,0,1,.6-.6H13.078v3.714a1.032,1.032,0,0,0,1.721.769,1.409,1.409,0,1,1,0,2.1,1.032,1.032,0,0,0-1.721.769v3.66H11.022a3.485,3.485,0,0,0,.051-.6,3.474,3.474,0,0,0-3.608-3.472,3.477,3.477,0,0,0-3.29,4.067H2.065Zm0,22.9V117.142H5.779a1.032,1.032,0,0,0,.769-1.721,1.409,1.409,0,1,1,2.1,0,1.032,1.032,0,0,0,.769,1.721h3.66V119.2a3.477,3.477,0,0,0-4.067,3.29,3.475,3.475,0,0,0,4.067,3.557v2.11H2.66a.6.6,0,0,1-.6-.6Zm24.09,0a.6.6,0,0,1-.6.6H15.143v-3.714a1.032,1.032,0,0,0-1.721-.769,1.409,1.409,0,1,1,0-2.1,1.032,1.032,0,0,0,1.721-.769v-3.66H17.2a3.477,3.477,0,0,0,3.29,4.067,3.475,3.475,0,0,0,3.557-4.067h2.111Z" transform="translate(0 -92.688)" fill="#292561"/>
  </g>
</svg>
