<svg xmlns="http://www.w3.org/2000/svg" width="24" height="24" viewBox="0 0 24 24">
  <g id="Group_4300" data-name="Group 4300" transform="translate(6107 -8703)">
    <g id="Rectangle_298" data-name="Rectangle 298" transform="translate(-6107 8703)" fill="none" stroke="#fff" stroke-width="1">
      <rect width="24" height="24" rx="12" stroke="none"/>
      <rect x="0.5" y="0.5" width="23" height="23" rx="11.5" fill="none"/>
    </g>
    <g id="_01" data-name="01" transform="translate(-6101.103 8708.811)">
      <path id="Path_936" data-name="Path 936" d="M13.5,10.46a1.3,1.3,0,0,0-.461-.547L11.123,8.555a2.6,2.6,0,0,0-.483-.268,1.224,1.224,0,0,0-1.124.063,2.171,2.171,0,0,0-.518.4l-.415.386a3.857,3.857,0,0,1-.666-.478c-.262-.223-.546-.485-.886-.819-.266-.271-.533-.561-.813-.886a4.521,4.521,0,0,1-.471-.637l-.014-.04.393-.408a2.381,2.381,0,0,0,.385-.489,1.2,1.2,0,0,0,.184-.633,1.329,1.329,0,0,0-.115-.515A2.363,2.363,0,0,0,6.3,3.741L4.969,1.861a1.371,1.371,0,0,0-.554-.467,1.518,1.518,0,0,0-.652-.144,2.1,2.1,0,0,0-1.494.662A3.074,3.074,0,0,0,1.5,3.024,3.416,3.416,0,0,0,1.265,4.3a5.313,5.313,0,0,0,.448,2.049A10.837,10.837,0,0,0,2.89,8.392a16.924,16.924,0,0,0,1.652,1.935A17.074,17.074,0,0,0,6.48,11.986a10.526,10.526,0,0,0,2.065,1.188,5.226,5.226,0,0,0,2.045.455,3.331,3.331,0,0,0,1.287-.251,2.993,2.993,0,0,0,1.1-.789,2.763,2.763,0,0,0,.461-.691,1.89,1.89,0,0,0,.185-.812,1.628,1.628,0,0,0-.127-.626Zm-.838,1.066a1.916,1.916,0,0,1-.32.481,2.17,2.17,0,0,1-.79.571,3.433,3.433,0,0,1-2.663-.2,9.676,9.676,0,0,1-1.895-1.09A16.269,16.269,0,0,1,5.152,9.719,16.035,16.035,0,0,1,3.588,7.888,9.882,9.882,0,0,1,2.509,6.011,4.458,4.458,0,0,1,2.128,4.3a2.552,2.552,0,0,1,.178-.953,2.238,2.238,0,0,1,.562-.811,1.26,1.26,0,0,1,.9-.417.665.665,0,0,1,.288.063.526.526,0,0,1,.215.181L5.6,4.243a1.543,1.543,0,0,1,.184.32.5.5,0,0,1,.047.181.374.374,0,0,1-.064.2,1.605,1.605,0,0,1-.258.322l-.433.448a.737.737,0,0,0-.22.536,1.018,1.018,0,0,0,.045.288l.072.173a5.209,5.209,0,0,0,.587.81c.3.342.576.646.858.935.361.355.66.633.939.867a4.862,4.862,0,0,0,.82.582l.153.068A.81.81,0,0,0,9.167,9.8l.439-.434a1.4,1.4,0,0,1,.333-.258.306.306,0,0,1,.373-.016,1.744,1.744,0,0,1,.317.177l1.909,1.356a.429.429,0,0,1,.162.173.736.736,0,0,1,.061.288,1.025,1.025,0,0,1-.1.442Z" transform="translate(-1.265 -1.25)" fill="#fff"/>
    </g>
  </g>
</svg>
